<svg version="1.1" xmlns="http://www.w3.org/2000/svg" viewBox="0 0 359.0826873042024 445.80657064959223" width="359.0826873042024" height="445.80657064959223">
  <!-- svg-source:excalidraw -->
  
  <defs>
    <style class="style-fonts">
      @font-face {
        font-family: "Virgil";
        src: url("https://excalidraw.com/Virgil.woff2");
      }
      @font-face {
        font-family: "Cascadia";
        src: url("https://excalidraw.com/Cascadia.woff2");
      }
    </style>
  </defs>
  <rect x="0" y="0" width="359.0826873042024" height="445.80657064959223" fill="#ffffff"></rect><g stroke-linecap="round"><g transform="translate(95.31025081937514 261.81317686917237) rotate(0 0.4428800500995749 -106.77512981916777)"><path d="M1.1 -0.63 C0.98 -36.37, -0.74 -179.62, -0.72 -215.21 M0.22 1.66 C0.48 -33.82, 1.47 -177.41, 1.61 -213.69" stroke="#495057" stroke-width="2" fill="none"></path></g><g transform="translate(95.31025081937514 261.81317686917237) rotate(0 0.4428800500995749 -106.77512981916777)"><path d="M1.61 -214.22 L8.39 -200.7 L-5.48 -199.87 L1.72 -214.73" stroke="none" stroke-width="0" fill="#495057" fill-rule="evenodd"></path><path d="M0.83 -214.59 C3.38 -208.18, 6.56 -206.34, 9.05 -200.26 M1.06 -214.06 C3.57 -209.12, 5.36 -204.46, 7.7 -199.68 M8.28 -200.11 C4.08 -200.39, 3.02 -200.65, -4.85 -199.02 M8.39 -200.03 C5.38 -199.59, 2.84 -200.17, -4.8 -200.51 M-5.65 -201.14 C-3.53 -204.6, -1.38 -205.06, 0.36 -212.7 M-4.47 -200.52 C-2.89 -203.3, -0.67 -206.85, 1.4 -213.23 M1.61 -213.69 C1.61 -213.69, 1.61 -213.69, 1.61 -213.69 M1.61 -213.69 C1.61 -213.69, 1.61 -213.69, 1.61 -213.69" stroke="#495057" stroke-width="2" fill="none"></path></g></g><mask></mask><g stroke-linecap="round"><g transform="translate(94.37706514210367 261.8131768691726) rotate(0 114.79319313311771 -0.5437591726067694)"><path d="M-0.63 0.78 C37.7 0.32, 191.99 -1.43, 230.22 -1.87 M1.24 0.14 C39.49 -0.28, 192.07 -0.64, 229.82 -0.84" stroke="#495057" stroke-width="2" fill="none"></path></g><g transform="translate(94.37706514210367 261.8131768691726) rotate(0 114.79319313311771 -0.5437591726067694)"><path d="M227.84 -0.03 L214.34 5.91 L216.66 -5.73 L228.04 -0.34" stroke="none" stroke-width="0" fill="#495057" fill-rule="evenodd"></path><path d="M230.79 0.46 C224.34 0.54, 220.04 3.15, 215.54 5.91 M229.7 -1.46 C224.71 0.68, 220.7 3.21, 216.33 5.35 M215.79 5.7 C215.27 1.08, 217.11 -4.28, 215.51 -7.07 M216.29 5.55 C215.95 0.9, 216.29 -3.85, 215.89 -6.71 M217.61 -7.77 C222.26 -3.79, 225.57 -4.28, 230.68 -0.81 M216.82 -7.66 C220.24 -4.84, 225.26 -2.98, 229.88 -1.53 M229.82 -0.84 C229.82 -0.84, 229.82 -0.84, 229.82 -0.84 M229.82 -0.84 C229.82 -0.84, 229.82 -0.84, 229.82 -0.84" stroke="#495057" stroke-width="2" fill="none"></path></g></g><mask></mask><g stroke-linecap="round"><g transform="translate(93.4438794648313 263.6795482237162) rotate(0 -34.8418000936731 66.31425186770684)"><path d="M0.37 1.08 C-10.97 23.26, -57.49 110.5, -69.22 132.03 M-0.9 0.59 C-12.27 22.56, -58.36 108.68, -70.05 130.45" stroke="#495057" stroke-width="2" fill="none"></path></g><g transform="translate(93.4438794648313 263.6795482237162) rotate(0 -34.8418000936731 66.31425186770684)"><path d="M-71.25 128.7 L-69.44 117.11 L-58.21 119.73 L-71.76 131.35" stroke="none" stroke-width="0" fill="#495057" fill-rule="evenodd"></path><path d="M-68.71 130.73 C-68.47 126.7, -70.51 125.64, -68.77 114.29 M-70.64 130.64 C-70.03 126.28, -69.46 121.85, -69.7 115.55 M-69.44 115.59 C-64.86 118.52, -61.33 118.4, -57.17 121.03 M-69.03 115.27 C-65.24 118.07, -61.38 119.68, -58.2 121.3 M-59.3 121.28 C-61.85 122.91, -63.09 125.23, -69.87 130.64 M-57.55 121.88 C-62.26 124.67, -66.34 127.68, -69.59 130.78 M-70.05 130.45 C-70.05 130.45, -70.05 130.45, -70.05 130.45 M-70.05 130.45 C-70.05 130.45, -70.05 130.45, -70.05 130.45" stroke="#495057" stroke-width="2" fill="none"></path></g></g><mask></mask><g transform="translate(10 389.80657064959223) rotate(0 11 23)"><text x="0" y="0" font-family="Virgil, Segoe UI Emoji" font-size="36px" fill="#495057" text-anchor="start" style="white-space: pre;" direction="ltr" dominant-baseline="text-before-edge">x</text></g><g transform="translate(330.0826873042024 253.5614617679205) rotate(0 9.5 23)"><text x="0" y="0" font-family="Virgil, Segoe UI Emoji" font-size="36px" fill="#495057" text-anchor="start" style="white-space: pre;" direction="ltr" dominant-baseline="text-before-edge">y</text></g><g transform="translate(111.71723882261904 10) rotate(0 11.5 23)"><text x="0" y="0" font-family="Virgil, Segoe UI Emoji" font-size="36px" fill="#495057" text-anchor="start" style="white-space: pre;" direction="ltr" dominant-baseline="text-before-edge">z</text></g><g stroke-linecap="round"><g transform="translate(96.24343649664752 261.8131768691726) rotate(0 85.27104397516086 0.03190576855763538)"><path d="M0.41 1.16 C29.15 1.06, 143.15 -0.7, 171.38 -1.1 M-0.84 0.72 C27.88 0.83, 141.85 0.36, 170.67 0.21" stroke="#087f5b" stroke-width="2" fill="none"></path></g><g transform="translate(96.24343649664752 261.8131768691726) rotate(0 85.27104397516086 0.03190576855763538)"><path d="M168.83 -1.01 L158.31 6.65 L156.06 -7.44 L170.79 0.23" stroke="none" stroke-width="0" fill="#087f5b" fill-rule="evenodd"></path><path d="M172.11 0.76 C167.21 0.14, 164.16 4.27, 156.67 7.25 M171.31 -0.5 C167.65 1.36, 163.43 3.03, 156.93 6.67 M158.32 6.25 C157.22 1.92, 155.73 -1.46, 155.89 -5.15 M157.39 6.05 C157.32 3.61, 157.35 -0.29, 157.43 -6.34 M157.58 -4.88 C162.74 -2.62, 166.54 -0.6, 169.48 -0.11 M156.81 -6.02 C161.52 -4.08, 165.99 -2.41, 170.01 -0.17 M170.67 0.21 C170.67 0.21, 170.67 0.21, 170.67 0.21 M170.67 0.21 C170.67 0.21, 170.67 0.21, 170.67 0.21" stroke="#087f5b" stroke-width="2" fill="none"></path></g></g><mask></mask><g stroke-linecap="round"><g transform="translate(93.44387946483221 262.7463625464443) rotate(0 28.209449320830572 -53.67583341163481)"><path d="M0.92 -0.2 C10.04 -18.19, 46.35 -89.31, 55.49 -107.15" stroke="#087f5b" stroke-width="2.5" fill="none" stroke-dasharray="8 10"></path></g><g transform="translate(93.44387946483221 262.7463625464443) rotate(0 28.209449320830572 -53.67583341163481)"><path d="M55.59 -106.95 L56.17 -91.17 L42.29 -98.96 L53.83 -105.48" stroke="none" stroke-width="0" fill="#087f5b" fill-rule="evenodd"></path><path d="M55.24 -106.11 C54.77 -100.18, 54.45 -95.9, 53.61 -92.28 M55.73 -91.96 C51.82 -93.7, 47.21 -97.33, 43.53 -97.98 M42.83 -98.67 C47.35 -99.57, 49.44 -102.7, 56.04 -106.87 M55.49 -107.15 C55.49 -107.15, 55.49 -107.15, 55.49 -107.15" stroke="#087f5b" stroke-width="2.5" fill="none"></path></g></g><mask></mask><g stroke-linecap="round"><g transform="translate(96.24343649664661 261.81317686917214) rotate(0 -0.36606495772957715 -76.89804779088297)"><path d="M0.15 0.41 C0.35 -25, 0.39 -126.88, 0.49 -152.28 M-1.22 -0.42 C-1.08 -26.21, -0.48 -128.61, -0.2 -154.2" stroke="#087f5b" stroke-width="2" fill="none"></path></g><g transform="translate(96.24343649664661 261.81317686917214) rotate(0 -0.36606495772957715 -76.89804779088297)"><path d="M1.34 -155.7 L6.46 -139.85 L-7.88 -140.73 L0.77 -155.11" stroke="none" stroke-width="0" fill="#087f5b" fill-rule="evenodd"></path><path d="M0.31 -153.59 C1.8 -149.93, 3.67 -148.1, 6.37 -141.18 M-0.14 -153.69 C1.27 -149.81, 3.82 -145.64, 5.9 -140.26 M5.45 -141.81 C3.82 -140.23, 0.11 -139.84, -6.65 -140.69 M5.65 -141.11 C2.29 -140.14, -1.35 -141.23, -7.19 -140.37 M-7.88 -140.23 C-4.59 -145.01, -3.17 -147.72, -1.62 -155.56 M-6.32 -140.13 C-4.99 -144.04, -4.31 -146.52, 0.21 -154.26 M-0.2 -154.2 C-0.2 -154.2, -0.2 -154.2, -0.2 -154.2 M-0.2 -154.2 C-0.2 -154.2, -0.2 -154.2, -0.2 -154.2" stroke="#087f5b" stroke-width="2" fill="none"></path></g></g><mask></mask><g transform="translate(247.96234770429055 270.3588039588112) rotate(0 16 23)"><text x="0" y="0" font-family="Virgil, Segoe UI Emoji" font-size="36px" fill="#087f5b" text-anchor="start" style="white-space: pre;" direction="ltr" dominant-baseline="text-before-edge">x'</text></g><g transform="translate(159.3097083634757 135.0468807544114) rotate(0 14 23)"><text x="0" y="0" font-family="Virgil, Segoe UI Emoji" font-size="36px" fill="#087f5b" text-anchor="start" style="white-space: pre;" direction="ltr" dominant-baseline="text-before-edge">y'</text></g><g transform="translate(49.19379844541254 87.45441121355339) rotate(0 16 23)"><text x="0" y="0" font-family="Virgil, Segoe UI Emoji" font-size="36px" fill="#087f5b" text-anchor="start" style="white-space: pre;" direction="ltr" dominant-baseline="text-before-edge">z'</text></g><g stroke-linecap="round"><g transform="translate(85.58803985900977 311.1048809295039) rotate(10.493713393133158 29.54928448019291 -25.200124710977548)"><path d="M0.15 -1.08 C6.05 -3.53, 26.54 -6.05, 36.17 -14.43 C45.79 -22.81, 53.95 -45.23, 57.9 -51.36 M-1.23 0.96 C4.4 -1.37, 24.72 -4.75, 34.98 -13.3 C45.24 -21.84, 56.65 -44.13, 60.33 -50.3" stroke="#087f5b" stroke-width="1" fill="none"></path></g><g transform="translate(85.58803985900977 311.1048809295039) rotate(10.493713393133158 29.54928448019291 -25.200124710977548)"><path d="M54.93 -29.68 C56.71 -38.2, 58.49 -42.67, 59.73 -52.01 M56.84 -28.06 C56.9 -35.03, 57.87 -42.17, 61.11 -50.65" stroke="#087f5b" stroke-width="1" fill="none"></path></g><g transform="translate(85.58803985900977 311.1048809295039) rotate(10.493713393133158 29.54928448019291 -25.200124710977548)"><path d="M42.04 -36.99 C48.53 -42.87, 55.01 -44.68, 59.73 -52.01 M43.95 -35.36 C47.84 -40.2, 52.63 -45.17, 61.11 -50.65" stroke="#087f5b" stroke-width="1" fill="none"></path></g></g><mask></mask><g stroke-linecap="round"><g transform="translate(95.31025081937605 261.8131768691726) rotate(0 0.6593634299492805 54.02719273488822)"><path d="M0.93 1.13 C0.93 18.81, 0.24 89.45, 0.42 106.92" stroke="#1864ab" stroke-width="2.5" fill="none" stroke-dasharray="8 10"></path></g><g transform="translate(95.31025081937605 261.8131768691726) rotate(0 0.6593634299492805 54.02719273488822)"><path d="M-1.55 107.74 L-7.8 93.68 L7.24 94.73 L-1.35 107.42" stroke="none" stroke-width="0" fill="#1864ab" fill-rule="evenodd"></path><path d="M1.84 106.29 C-0.29 103.79, -3.63 96.68, -5.04 93.35 M-4.85 92.42 C-2.27 93.81, 2.93 93.57, 6.88 92.17 M6.76 94.49 C6.25 95.01, 3.28 99.85, -0.16 108.17 M0.42 106.92 C0.42 106.92, 0.42 106.92, 0.42 106.92" stroke="#1864ab" stroke-width="2.5" fill="none"></path></g></g><mask></mask><g transform="translate(112.6504244998896 357.145071945082) rotate(0 17 23)"><text x="0" y="0" font-family="Virgil, Segoe UI Emoji" font-size="36px" fill="#1864ab" text-anchor="start" style="white-space: pre;" direction="ltr" dominant-baseline="text-before-edge">x"</text></g><g stroke-linecap="round"><g transform="translate(95.31025081937605 262.7463625464445) rotate(0 64.09237811872254 -0.3621979906438355)"><path d="M-0.09 -0.59 C21.56 -0.85, 108.32 -0.23, 129.78 -0.43 M-1.6 1.71 C19.9 1.58, 106.69 -1.97, 128.79 -2.44" stroke="#1864ab" stroke-width="2" fill="none"></path></g><g transform="translate(95.31025081937605 262.7463625464445) rotate(0 64.09237811872254 -0.3621979906438355)"><path d="M127.67 -1.99 L114.15 3.14 L116.93 -6.47 L128.43 -3.02" stroke="none" stroke-width="0" fill="#1864ab" fill-rule="evenodd"></path><path d="M128.05 -2.55 C125.28 -1.95, 119.73 1.72, 115.92 3.14 M128.4 -2.23 C124.87 -1.09, 121.89 0.71, 115.1 4.76 M114.72 4.17 C115.17 -0.2, 115.95 -5.38, 114.27 -7.51 M115.3 3.86 C115.71 -0.15, 115.21 -5.23, 114.65 -7.91 M114.26 -9.43 C119.82 -5.6, 123.11 -5.87, 129.78 -3.37 M115.39 -8.16 C120.46 -6.21, 125.38 -3.35, 128.39 -3.15 M128.79 -2.44 C128.79 -2.44, 128.79 -2.44, 128.79 -2.44 M128.79 -2.44 C128.79 -2.44, 128.79 -2.44, 128.79 -2.44" stroke="#1864ab" stroke-width="2" fill="none"></path></g></g><mask></mask><g transform="translate(171.44112216800931 275.02473234517015) rotate(0 17 23)"><text x="0" y="0" font-family="Virgil, Segoe UI Emoji" font-size="36px" fill="#1864ab" text-anchor="start" style="white-space: pre;" direction="ltr" dominant-baseline="text-before-edge">z"</text></g><g stroke-linecap="round"><g transform="translate(94.37706514210458 261.81317686917237) rotate(0 18.82137631712476 -36.48725071558874)"><path d="M0.55 -1.1 C6.88 -12.99, 31.39 -60.14, 37.1 -71.87" stroke="#1864ab" stroke-width="2.5" fill="none" stroke-dasharray="8 10"></path></g><g transform="translate(94.37706514210458 261.81317686917237) rotate(0 18.82137631712476 -36.48725071558874)"><path d="M36.53 -69.93 L37.42 -57.69 L25.75 -62.27 L36.6 -70.57" stroke="none" stroke-width="0" fill="#1864ab" fill-rule="evenodd"></path><path d="M35.72 -70.51 C36.39 -70.03, 36.78 -66.61, 36.58 -56.57 M35.79 -57.21 C32.7 -58.97, 30.68 -60.91, 25.58 -63.4 M25.03 -63.04 C29.29 -66.03, 29.79 -66.08, 37.05 -72.53 M37.1 -71.87 C37.1 -71.87, 37.1 -71.87, 37.1 -71.87" stroke="#1864ab" stroke-width="2.5" fill="none"></path></g></g><mask></mask><g transform="translate(138.77962346349796 187.30527868162812) rotate(0 15.5 23)"><text x="0" y="0" font-family="Virgil, Segoe UI Emoji" font-size="36px" fill="#1864ab" text-anchor="start" style="white-space: pre;" direction="ltr" dominant-baseline="text-before-edge">y"</text></g><g stroke-linecap="round"><g transform="translate(105.37580076459562 254.10824534806352) rotate(79.96417549518769 28.01255603099571 -22.01477876097806)"><path d="M0.55 -0.26 C2.85 -5, 3.65 -22.07, 12.99 -29.32 C22.34 -36.57, 49.55 -41.36, 56.64 -43.77 M-0.62 -1.44 C2.14 -6.41, 5.93 -24.04, 15.37 -30.86 C24.81 -37.68, 49.36 -40.42, 56.03 -42.37" stroke="#1864ab" stroke-width="1" fill="none"></path></g><g transform="translate(105.37580076459562 254.10824534806352) rotate(79.96417549518769 28.01255603099571 -22.01477876097806)"><path d="M36.55 -31.68 C43.41 -32.98, 46.34 -37.56, 56.3 -44.24 M36.22 -30.84 C41.58 -33.25, 47.15 -37.53, 55.96 -42.72" stroke="#1864ab" stroke-width="1" fill="none"></path></g><g transform="translate(105.37580076459562 254.10824534806352) rotate(79.96417549518769 28.01255603099571 -22.01477876097806)"><path d="M33.44 -46.68 C40.93 -44.45, 44.59 -45.48, 56.3 -44.24 M33.11 -45.84 C39.44 -44, 45.88 -44.07, 55.96 -42.72" stroke="#1864ab" stroke-width="1" fill="none"></path></g></g><mask></mask><g stroke-linecap="round"><g transform="translate(97.1766221739199 266.47910525553107) rotate(0 28.6652675624332 16.217865282263233)"><path d="M0.58 -0.55 C10.16 4.96, 47.37 27.47, 56.75 32.98" stroke="#d9480f" stroke-width="2.5" fill="none" stroke-dasharray="8 10"></path></g><g transform="translate(97.1766221739199 266.47910525553107) rotate(0 28.6652675624332 16.217865282263233)"><path d="M56.59 33.31 L40.72 31.58 L47.64 21.49 L56.95 34.95" stroke="none" stroke-width="0" fill="#d9480f" fill-rule="evenodd"></path><path d="M56.07 33.91 C54.25 33.72, 50.12 32.67, 41.37 31.98 M41.29 32.54 C44.01 28.03, 43.97 25.52, 47.46 19.35 M48.43 20.71 C51.55 25.45, 51.97 27.7, 56.61 31.52 M56.75 32.98 C56.75 32.98, 56.75 32.98, 56.75 32.98" stroke="#d9480f" stroke-width="2.5" fill="none"></path></g></g><mask></mask><g stroke-linecap="round"><g transform="translate(96.24343649664843 262.74636254644474) rotate(0 46.5250761266675 -0.440642219959841)"><path d="M-0.88 0.49 C14.7 0.52, 77.87 0.72, 93.94 0.52 M0.85 -0.29 C16.19 -0.69, 77 -1.54, 92.74 -1.49" stroke="#d9480f" stroke-width="2" fill="none"></path></g><g transform="translate(96.24343649664843 262.74636254644474) rotate(0 46.5250761266675 -0.440642219959841)"><path d="M91.52 -0.56 L80.4 6.2 L78.06 -7.85 L92.34 -0.85" stroke="none" stroke-width="0" fill="#d9480f" fill-rule="evenodd"></path><path d="M93.35 -2.08 C88.48 1.91, 82.32 2.6, 79.89 4.33 M93.35 -1.74 C88.85 0.81, 84.03 2.23, 79.66 5.1 M80.12 5.55 C78.93 2.23, 77.99 -1.82, 78.58 -7.01 M79.43 5.06 C79.61 1.85, 79.27 -1.33, 78.72 -7.91 M78.29 -8.05 C81.7 -6.19, 87.32 -5.6, 93.77 -2.07 M79.67 -7.42 C82.98 -6.09, 86.18 -4.41, 91.99 -1.33 M92.74 -1.49 C92.74 -1.49, 92.74 -1.49, 92.74 -1.49 M92.74 -1.49 C92.74 -1.49, 92.74 -1.49, 92.74 -1.49" stroke="#d9480f" stroke-width="2" fill="none"></path></g></g><mask></mask><g stroke-linecap="round"><g transform="translate(95.31025081937605 262.7463625464443) rotate(0 8.34141157537124 -35.904110285734305)"><path d="M1.03 0.26 C3.67 -11.61, 13.26 -59.96, 15.66 -72.07" stroke="#d9480f" stroke-width="2.5" fill="none" stroke-dasharray="8 10"></path></g><g transform="translate(95.31025081937605 262.7463625464443) rotate(0 8.34141157537124 -35.904110285734305)"><path d="M15.72 -73.53 L18.47 -58.82 L6.17 -60.72 L14.6 -73.3" stroke="none" stroke-width="0" fill="#d9480f" fill-rule="evenodd"></path><path d="M15.99 -73.01 C15.79 -69.21, 16.36 -63.06, 20.52 -58.5 M19.5 -56.76 C15.74 -57.88, 9.79 -59.83, 5.53 -59.61 M5.86 -59.63 C8.34 -64.61, 12.92 -67.71, 16.44 -70.64 M15.66 -72.07 C15.66 -72.07, 15.66 -72.07, 15.66 -72.07" stroke="#d9480f" stroke-width="2.5" fill="none"></path></g></g><mask></mask><g transform="translate(121.98228127260609 303.0203026633217) rotate(0 25.5 23)"><text x="0" y="0" font-family="Virgil, Segoe UI Emoji" font-size="36px" fill="#d9480f" text-anchor="start" style="white-space: pre;" direction="ltr" dominant-baseline="text-before-edge">x'''</text></g><g transform="translate(177.9734219089096 207.83536358160563) rotate(0 25.5 23)"><text x="0" y="0" font-family="Virgil, Segoe UI Emoji" font-size="36px" fill="#d9480f" text-anchor="start" style="white-space: pre;" direction="ltr" dominant-baseline="text-before-edge">z'''</text></g><g transform="translate(43.59468438178192 173.30749352255157) rotate(0 24 23)"><text x="0" y="0" font-family="Virgil, Segoe UI Emoji" font-size="36px" fill="#d9480f" text-anchor="start" style="white-space: pre;" direction="ltr" dominant-baseline="text-before-edge">y'''</text></g></svg>