<svg version="1.1" xmlns="http://www.w3.org/2000/svg" viewBox="0 0 1607.5397385244369 1453.6161109650893" width="1607.5397385244369" height="1453.6161109650893">
  <!-- svg-source:excalidraw -->
  
  <defs>
    <style class="style-fonts">
      @font-face {
        font-family: "Virgil";
        src: url("https://excalidraw.com/Virgil.woff2");
      }
      @font-face {
        font-family: "Cascadia";
        src: url("https://excalidraw.com/Cascadia.woff2");
      }
    </style>
  </defs>
  <rect x="0" y="0" width="1607.5397385244369" height="1453.6161109650893" fill="#ffffff"></rect><g stroke-linecap="round" transform="translate(10 258.5961455412357) rotate(0 593.3704580417002 563.6089303656274)"><path d="M142.86 199.71 C142.86 199.71, 142.86 199.71, 142.86 199.71 M142.86 199.71 C142.86 199.71, 142.86 199.71, 142.86 199.71 M97.9 278.99 C127.3 248.45, 160.17 209.64, 215.42 139.83 M94.46 281.58 C140.51 230.99, 183.53 181.28, 215.76 140.01 M47.33 360.22 C104.96 291.11, 161.49 221.86, 286.33 83.24 M47.99 359.98 C100.7 303.3, 150.28 244.78, 287.1 81.81 M34.31 397.74 C138.24 280.7, 238.37 163.53, 326.53 62.98 M35.7 397.1 C98.15 328.65, 158.91 258.16, 324.48 64.23 M19.29 440.6 C90.73 360.28, 159.59 282.62, 361.93 44.48 M17.71 441.19 C128.22 315.96, 238.43 190.48, 362.54 44.62 M11.51 471.19 C132.2 339.64, 246.03 206.88, 383.16 46.33 M13.74 471.51 C127.29 341.2, 241.72 207.42, 381.02 46.48 M8.01 501.08 C151.15 334.11, 296.14 166.81, 409.56 40.51 M9.19 500.1 C163.41 323.23, 314.97 149.08, 408.52 39.7 M1.67 531.63 C148.85 365.2, 292.65 197.25, 438.21 34.02 M3.62 531.39 C169.06 344.54, 331.68 156.77, 437.31 32.19 M3.52 554.97 C104.3 438.88, 207.91 318.13, 469.69 20.63 M4.06 553.86 C108.47 438.27, 210.62 322.6, 468.08 20.84 M3.69 578.18 C193.72 360.19, 386.61 142.09, 491.06 18.61 M4.55 578.21 C176.78 378.95, 349.01 178.77, 492.98 16.75 M4.17 601.12 C128.62 465.69, 248.34 328.17, 515.1 14.28 M4.62 602.62 C176.98 398.31, 353.57 195.45, 516.65 13.83 M7.88 625.36 C203.04 396.32, 399.62 171.84, 539.6 10.84 M7.26 624.31 C184.39 414.68, 365.41 206.34, 539.59 10.75 M11.75 643.67 C165.89 462.07, 324.35 279.82, 563.55 8.57 M10.51 643.82 C148.35 486.27, 289.83 325.24, 564.07 6.54 M13.78 665.39 C211.13 446.66, 402.92 222.65, 584.71 5.52 M13.89 664.12 C159.54 497.59, 303.63 334.42, 585.47 6.44 M17.85 683.29 C136.36 550.69, 256.44 414.79, 605.64 6.74 M18.53 685.03 C202.97 473.08, 390 259.64, 607.21 8.14 M20.91 706.61 C178.95 520.6, 337.65 338.02, 628.68 8.79 M21.61 705.33 C226.46 463.11, 434.17 224.48, 627.83 7.39 M31.25 717.07 C185.72 534.63, 343.29 351.48, 650.13 6.5 M31.69 719.01 C209.95 512.44, 392.73 302.09, 648.93 7.46 M36.04 737.31 C224.34 520.37, 406.25 310.23, 665 11.63 M37.03 735.22 C229.8 517.58, 419.97 297.87, 665.63 12.41 M44.49 752.4 C214.72 560.14, 386.42 362.64, 683.89 15.65 M42.58 752.83 C191.58 586.42, 337.71 416.96, 684.39 15 M51.6 768.31 C225.62 564.29, 409.56 356.09, 703.49 19.37 M50.63 770.38 C281.42 509.57, 511.46 246.47, 703.22 18.61 M52.46 792.74 C235.62 573.08, 423.81 357.91, 721.5 20.43 M51.17 792.8 C282.43 524.03, 510.9 260.26, 721.12 22.53 M61.42 806.22 C242.31 601.41, 421.98 397.81, 740.64 23.68 M59.7 806.75 C295.8 542.16, 527.48 274.14, 740.61 24.67 M69.76 821.09 C273.28 581.68, 486.19 338.56, 759.05 28.85 M68.52 822.35 C299.35 554.97, 533.86 285.56, 757.5 27.91 M76.47 834.35 C338.12 529, 600.47 230.84, 775.7 35.68 M76.9 836.59 C256.48 631.13, 434.24 425.77, 774.38 34.27 M85.76 851.39 C355.56 550.14, 622.31 244.73, 789.18 38.9 M85.49 851.06 C307 593.6, 527.14 338.71, 790.74 41.02 M94.96 866.53 C334.48 588.69, 576.9 309.56, 804.88 45.09 M94.74 864.65 C321.68 600.36, 547.78 340.14, 805.51 46.52 M104.31 876.78 C301.66 643.21, 503.56 413.48, 822.25 50.68 M105.22 878.08 C270.23 678.02, 440.23 483.52, 822.76 51.81 M113.71 889.31 C384.52 575.67, 655.74 262.99, 840.21 56.16 M115.33 891.18 C309.59 664.44, 510.05 435.11, 841.37 55.81 M125.67 902.83 C301.06 707.9, 473.15 509.28, 856.26 63.15 M124.3 903.78 C320.8 688.63, 510.85 468.88, 854.92 63.1 M135.63 915.04 C344.03 674.47, 552.49 432, 869.77 68.95 M134.7 916.23 C370.59 650.36, 599.98 387.26, 869.62 70.74 M144.4 930.16 C300.77 748.34, 459.34 563.06, 885.46 75.52 M144.2 929.19 C309.34 736.27, 476.34 543.84, 886.24 76.73 M155.57 943.29 C430.22 617.34, 709.41 294.86, 901.56 85.94 M155.05 941.86 C409.31 642.62, 667.99 344.85, 899.64 84.72 M165.66 953.74 C330.2 762.19, 500.18 567.18, 915 92.99 M164.42 954.43 C435.6 650.03, 698.95 346.4, 914.47 92.12 M176.73 963.47 C427.5 677.38, 680.43 387.77, 930.59 100.14 M177.9 964.35 C421.8 685.93, 667.47 403.76, 928.87 100.08 M190.31 974.29 C359.45 786.29, 527.92 593.7, 941.18 109.91 M189.18 975.01 C452.04 673.95, 710.04 377.63, 941.13 109.43 M201.7 984.41 C463.17 681.22, 727.89 376.59, 954.85 119.64 M200.81 985.39 C457.03 690.57, 709.84 398.7, 954.67 119.81 M214.24 997.46 C516.56 648.04, 813.07 303.67, 967.32 127.94 M213.12 996.13 C425.96 744.48, 641 497.84, 967.33 129.31 M224 1006.84 C382.54 825.24, 537.38 646.98, 978.87 137.57 M225.67 1007.76 C444.49 753.81, 663.93 501.03, 980.42 139.13 M237.96 1019.41 C450.19 774.49, 665.6 529.52, 992.44 148.59 M236.51 1017.48 C501.56 708.92, 765.05 406.88, 992.94 149.47 M250.94 1025.33 C519.51 718.78, 791.91 404.25, 1006.82 159.5 M250.36 1026.86 C434.55 816.97, 612.36 610.62, 1006.13 159.3 M264.38 1034.97 C466.36 813.33, 662.04 588.07, 1016.67 168.3 M265.48 1034.23 C472.7 787.65, 686.54 542.41, 1016.34 170.11 M279.35 1044.39 C489.83 804.45, 698.85 565.11, 1028.8 181.9 M278.9 1044.43 C475.06 819.79, 667.64 599.09, 1028.33 181.24 M293.67 1051.73 C480.29 831.68, 664.73 619.14, 1039.73 192.2 M293.19 1051.88 C531.67 766.92, 774.52 486.37, 1038.49 192.53 M306.95 1059.77 C545.6 789.01, 781.05 517.23, 1052 204.64 M308.03 1058.62 C570.68 755.24, 838.43 446.9, 1049.69 204.47 M322.1 1065.8 C477.52 881.45, 632.67 700.46, 1061.28 217.49 M323.51 1066.04 C535.92 809.3, 752.64 559.91, 1060.92 216.08 M337.08 1073.38 C503.26 888.92, 665.64 702.62, 1072.06 228.81 M339.11 1071.74 C481.8 907.78, 629.43 739.28, 1070.32 230.55 M352.19 1079.79 C532.56 861.76, 718.55 649.11, 1081.06 244.08 M353.18 1079.62 C562.92 845.1, 771.35 605.14, 1080.26 243.19 M367.5 1085.31 C529.75 894.5, 692.3 704.05, 1089.53 255.54 M369.31 1086.28 C618.09 789.99, 874.41 496.61, 1089.04 256.22 M385.03 1092.56 C617.54 828.45, 848.07 562.07, 1099.49 269.02 M384.15 1093.37 C655.3 769.91, 932.18 450.7, 1099.21 269.84 M399.1 1100.53 C660.06 805.74, 922.18 506.8, 1106.92 282.68 M397.98 1101.17 C561.33 915.75, 725.02 726.47, 1109.29 283.73 M416.64 1103.68 C634.11 859.71, 846.24 613.84, 1119.7 295.43 M415.87 1104.69 C675.84 808.89, 930.88 516.66, 1118.22 296.86 M433.76 1108.24 C687.74 813.56, 938.92 524.06, 1127.05 313.34 M434.84 1107.95 C694.93 806.18, 957.69 506.02, 1125.37 312.63 M452.36 1111.73 C684.47 845.65, 908.33 585.95, 1132.38 329.06 M452.55 1111.65 C702.28 823.9, 948.75 541.67, 1132.29 328.91 M471.66 1115.87 C692.3 865.2, 913.99 612.47, 1140.61 345.71 M470.97 1116.04 C719.09 823.56, 968.29 536.37, 1139.72 344.67 M488.53 1117.36 C674.08 907.5, 856.98 696.46, 1147.89 362.73 M488.81 1118.32 C627.88 955.63, 769.03 792.15, 1147.91 361.27 M507 1121.72 C690.36 916.15, 866.53 712.56, 1154.76 378.88 M508.81 1119.64 C714.16 882.05, 923.45 640.48, 1153.82 379.34 M528.34 1122.11 C690.12 937.63, 854.24 746.12, 1159.66 396.55 M527.91 1123.28 C747.25 873.39, 962.6 627.56, 1158.45 396.14 M547.2 1126.1 C787.67 840.71, 1035.35 557.75, 1165.73 415.67 M547.1 1124.19 C780.61 854.48, 1014.89 583.72, 1164.06 414.21 M566.62 1125.6 C766.09 897.2, 966.2 663.17, 1170.37 432.41 M565.8 1127.16 C706.5 965.33, 845.05 806.63, 1169.56 433.06 M585.17 1129.95 C817.28 864.85, 1048.94 599.76, 1174.67 452.48 M584.25 1131.36 C713.58 988.15, 838.91 844.58, 1175.16 451.65 M607.63 1129.16 C728.35 993.89, 844.57 858.31, 1182.65 467.43 M606.43 1130.69 C814.11 887.75, 1024.89 643.55, 1182.62 468.02 M627.37 1127.6 C811.33 915.38, 997.54 703.6, 1185.95 487.93 M628.04 1129.35 C812.76 913.24, 997.2 701.87, 1184.84 488.99 M648.65 1126.85 C809.36 938.02, 974.97 748.51, 1186.16 509.6 M649.41 1128.14 C814.91 934.32, 981.87 740.89, 1187.48 511.41 M674.45 1122.84 C779.77 1000.26, 883.45 880.9, 1189.45 531.35 M675.44 1124.25 C873.21 903.9, 1066.55 681.54, 1189.38 532.74 M700.13 1117.49 C859.54 937.68, 1018.3 753.93, 1189.46 556.81 M701.34 1118.48 C805.04 998.77, 910.87 876.93, 1190.29 556.77 M725.75 1112.48 C896.25 916.1, 1067.37 721.58, 1188.03 580.36 M727.54 1113.15 C833.04 990.87, 938.68 870.77, 1189.44 581.59 M753.76 1109.42 C881.38 959.46, 1009.56 812.93, 1188.89 606.88 M752.66 1107.83 C883.82 955.65, 1016.72 803.65, 1188.01 607.52 M775.46 1108.47 C895.88 971.7, 1018.05 832.25, 1185.6 633.31 M773.7 1107.04 C892.11 972.75, 1010.92 834.93, 1185.33 633.41 M805.06 1094.79 C913.66 973.69, 1020.19 852.57, 1193.19 651.35 M805.84 1094.11 C956.96 926.52, 1105.1 756.84, 1192.18 652.39 M840.19 1081.62 C913.17 994.17, 993.4 902.65, 1185.48 684.52 M839.07 1081.79 C908.4 1001.48, 976.69 922.74, 1184.22 684.41 M864.13 1075.75 C945.29 978.37, 1030.28 879.11, 1162.87 733.11 M864.63 1076.51 C968.29 955.13, 1073.62 834.77, 1162.72 735.45 M911.75 1047.69 C978.45 967.77, 1048.69 885.21, 1135.48 785.18 M910.62 1049.81 C986.4 962.96, 1062.91 873.52, 1136.89 786.63 M949.51 1031.53 C1014.16 955.04, 1083.85 876.24, 1126.17 820.89 M948.77 1030.17 C998.73 968.19, 1050.42 908.69, 1129.71 821.97" stroke="#ced4da" stroke-width="2" fill="none"></path><path d="M371.9 39.06 C395.78 20.01, 430.73 20.97, 461.84 14.79 C492.94 8.61, 526.24 3.98, 558.52 1.97 C590.8 -0.04, 624.11 -0.05, 655.51 2.72 C686.91 5.49, 716.64 10.4, 746.92 18.6 C777.2 26.81, 808.21 39.52, 837.18 51.95 C866.15 64.39, 894.29 76.83, 920.74 93.21 C947.2 109.58, 972.61 129.81, 995.89 150.21 C1019.17 170.61, 1040.83 191.95, 1060.42 215.6 C1080.01 239.26, 1098.33 265.39, 1113.43 292.12 C1128.53 318.85, 1140.58 347.63, 1151.01 375.99 C1161.44 404.35, 1170.22 432.9, 1176 462.27 C1181.78 491.64, 1184.77 522.15, 1185.68 552.23 C1186.59 582.3, 1185.65 612.5, 1181.48 642.71 C1177.31 672.93, 1170.58 704.51, 1160.68 733.52 C1150.78 762.53, 1136.58 790.31, 1122.09 816.77 C1107.59 843.24, 1092.32 868.27, 1073.71 892.3 C1055.1 916.34, 1033.1 939.68, 1010.42 960.99 C987.74 982.29, 963.21 1002.16, 937.61 1020.15 C912.01 1038.13, 884.86 1055, 856.84 1068.89 C828.82 1082.77, 799.9 1094.51, 769.48 1103.46 C739.06 1112.41, 706.03 1118.7, 674.33 1122.6 C642.62 1126.49, 610.5 1127.96, 579.24 1126.85 C547.99 1125.73, 517.69 1121.06, 486.79 1115.91 C455.89 1110.76, 424.11 1105.79, 393.84 1095.95 C363.58 1086.11, 333.3 1071.59, 305.2 1056.89 C277.1 1042.19, 250.18 1026.24, 225.23 1007.73 C200.28 989.22, 176.64 968.42, 155.51 945.81 C134.37 923.21, 115.86 897.67, 98.41 872.12 C80.96 846.57, 63.93 819.7, 50.81 792.52 C37.68 765.35, 27.51 737.62, 19.66 709.08 C11.81 680.53, 6.8 651.23, 3.71 621.25 C0.63 591.27, -0.78 559.58, 1.15 529.2 C3.07 498.83, 8.42 468.22, 15.25 439.02 C22.09 409.81, 30.61 381.84, 42.13 353.97 C53.65 326.09, 67.6 297.46, 84.37 271.77 C101.14 246.08, 121.82 223.04, 142.76 199.82 C163.7 176.61, 186.06 152.07, 210.02 132.49 C233.98 112.9, 255.82 98.72, 286.5 82.32 C317.19 65.93, 372.51 41.79, 394.13 34.11 C415.76 26.43, 412.85 27.3, 416.23 36.24 M250.72 102.62 C270.04 79.33, 303.05 73.13, 331.48 60.45 C359.91 47.76, 390.78 35.91, 421.3 26.5 C451.83 17.09, 483.32 8.41, 514.64 4.01 C545.96 -0.4, 577.48 -0.96, 609.23 0.06 C640.99 1.09, 674.22 4.22, 705.14 10.15 C736.07 16.09, 765.65 25.96, 794.78 35.69 C823.92 45.41, 852.1 54.38, 879.95 68.52 C907.8 82.65, 936.17 101.25, 961.88 120.51 C987.59 139.77, 1012.69 161.54, 1034.23 184.09 C1055.77 206.64, 1073.79 231, 1091.12 255.8 C1108.45 280.6, 1125.95 305.7, 1138.18 332.88 C1150.41 360.06, 1156.92 389.66, 1164.51 418.86 C1172.1 448.07, 1179.82 478.35, 1183.7 508.12 C1187.59 537.89, 1190.04 567.37, 1187.83 597.48 C1185.62 627.6, 1178.33 658.97, 1170.43 688.83 C1162.54 718.69, 1152.66 748.68, 1140.47 776.66 C1128.28 804.64, 1113.27 830.9, 1097.29 856.71 C1081.31 882.52, 1064.58 908.46, 1044.58 931.52 C1024.59 954.57, 1002.14 975.25, 977.32 995.03 C952.5 1014.8, 923.57 1034.77, 895.68 1050.16 C867.79 1065.56, 839.49 1076.7, 809.97 1087.4 C780.45 1098.1, 749.43 1107.53, 718.55 1114.34 C687.68 1121.14, 655.71 1127.03, 624.74 1128.25 C593.77 1129.46, 564.44 1124.88, 532.72 1121.64 C501.01 1118.39, 465.32 1116.17, 434.46 1108.77 C403.61 1101.37, 375.61 1089.96, 347.59 1077.22 C319.57 1064.49, 293.03 1048.76, 266.34 1032.37 C239.64 1015.99, 210.64 999.09, 187.4 978.94 C164.17 958.78, 145.77 935.97, 126.92 911.45 C108.07 886.92, 89.92 858.42, 74.32 831.77 C58.71 805.13, 43.73 779.9, 33.29 751.58 C22.86 723.26, 16.84 691.89, 11.72 661.84 C6.6 631.79, 3.88 601.27, 2.59 571.27 C1.3 541.26, -0.58 511.84, 3.99 481.83 C8.56 451.82, 19.88 419.8, 30.03 391.2 C40.17 362.6, 50.58 337.19, 64.84 310.22 C79.09 283.26, 96.64 254.38, 115.54 229.4 C134.45 204.42, 156 181.54, 178.26 160.36 C200.53 139.18, 235.97 109.83, 249.11 102.33 C262.25 94.82, 251.24 107.06, 257.11 115.34" stroke="#343a40" stroke-width="4" fill="none"></path></g><g stroke-linecap="round"><g transform="translate(95.59762018711626 910.4858805794554) rotate(0 411.8912064362503 -266.51949856383897)" fill-rule="evenodd"><path d="M179.73 -462.55 C179.73 -462.55, 179.73 -462.55, 179.73 -462.55 M179.73 -462.55 C179.73 -462.55, 179.73 -462.55, 179.73 -462.55 M103.86 -351.52 C136.6 -389.35, 171.56 -431.55, 241.37 -513.48 M101.86 -348.82 C135.67 -393.16, 172.35 -432.71, 240.88 -508.59 M80.4 -297.27 C127.23 -347.16, 173.99 -402.55, 294.18 -546.41 M77.59 -295.9 C165.23 -391.48, 248.09 -486, 296.84 -546.8 M57.47 -245.63 C132.14 -338.86, 212.05 -428.58, 339.32 -570.46 M56.37 -248.4 C129.49 -332.39, 205.31 -421.15, 337.38 -569.68 M39.04 -200.92 C117.87 -292.83, 197.37 -384.03, 379.92 -596.03 M37.29 -202.07 C117.4 -294.69, 195.77 -384.66, 379.89 -595.11 M29.77 -167.95 C135.86 -285.06, 238.74 -403.19, 410.89 -608.12 M28.38 -166.97 C181.04 -340, 333.79 -513.95, 412.79 -608.3 M18.63 -130.39 C112.52 -228.56, 198.87 -331.53, 447.85 -626.38 M17.85 -130.5 C184.43 -323.52, 353.53 -518.04, 447.63 -625.15 M14.03 -100.48 C167.32 -278.4, 323.24 -454.67, 479.67 -636.1 M12.41 -99.52 C159.57 -274.79, 309.42 -448, 478.79 -635.58 M0.52 -60.8 C192.42 -286.38, 386.13 -506.32, 498.49 -632.25 M-0.08 -61.16 C116.79 -193.54, 235.28 -329.26, 498.08 -633.01 M0.41 -35.73 C121.4 -173.13, 238.18 -306.28, 514.67 -625.52 M0 -36.37 C167.24 -222.43, 331.95 -411.36, 513.83 -627.39 M0.58 -14.53 C116.35 -141.83, 229.66 -271.83, 525.77 -616.54 M1.31 -13.16 C197.04 -231.39, 387.07 -452.1, 526.39 -617.48 M6.89 4.71 C143.76 -154.26, 282.49 -317.1, 538.57 -609.07 M6.49 4.89 C185.86 -207.57, 369.86 -419.02, 539.82 -607.81 M20.33 11.77 C142.33 -131.13, 263.75 -270.06, 551.93 -597.98 M22.09 12.5 C177.42 -169.46, 338.59 -354.97, 551.38 -597.99 M35.48 19.08 C234.84 -214.43, 431.87 -440.49, 564.58 -589.47 M36.26 18.44 C215.56 -181.35, 388.99 -380.42, 564.96 -587.38 M50.08 26.33 C240.8 -186.79, 424.77 -399.84, 577.2 -576.16 M51.73 25.7 C170.19 -109.06, 287.87 -243.9, 575.73 -577.22 M66.42 33.87 C198.01 -116.15, 331.47 -271.42, 589.34 -569.2 M66.5 32.31 C220.52 -141.19, 375.04 -318.02, 588.74 -567.98 M82.26 40.44 C191.47 -82.04, 296.87 -204.49, 598.87 -554.38 M81.66 39.77 C200.51 -89.91, 314.71 -222.12, 599.35 -555.22 M94.98 49.15 C216.57 -86.15, 334.29 -221.27, 612.46 -544.73 M96.09 48.1 C221.48 -93.61, 347.37 -236.18, 611 -544.32 M111.3 54.63 C214.43 -62.18, 317.95 -181.48, 623.88 -534.37 M112.29 53.66 C225.93 -80.15, 342.51 -214.06, 623.25 -532.83 M126.8 59.45 C306.04 -149.05, 488.68 -357.54, 633.88 -521.15 M127.25 61.05 C259.43 -86.12, 388.77 -236.23, 633.35 -520.9 M142.78 66.29 C265.39 -72.69, 388.7 -211.97, 642.86 -505.36 M143.81 66.76 C293.52 -108.29, 445.23 -283.62, 641.9 -506.44 M160.09 72.51 C347.35 -137.03, 532.73 -349.13, 653.34 -494.31 M159.82 73.21 C262.22 -42.54, 364.83 -160.7, 651.38 -493.46 M179.7 73.67 C292.64 -55.13, 401.16 -184.75, 662.57 -481.19 M179.24 74.14 C345.52 -122.45, 513.97 -318.75, 660.55 -480.24 M197.76 76.38 C347.49 -93.81, 497.94 -264.17, 670.86 -465.51 M197.73 77.32 C313.97 -50.9, 429.62 -184.16, 670.41 -465.94 M214.77 82.32 C378.08 -100.82, 537.1 -287.32, 680.51 -451.18 M215.92 81.71 C402.64 -131.7, 585.72 -343.11, 680.17 -451.53 M233.18 85.34 C364.41 -65.76, 495.49 -214.75, 688.83 -435.67 M233.98 84.34 C365.41 -71.65, 501.23 -226.85, 687.51 -437.54 M252.25 87.53 C420.36 -103.77, 584.74 -292.41, 694.82 -422.42 M252.14 87.95 C384.23 -64.75, 517.35 -217.6, 697.02 -423.37 M269.57 91.74 C412.28 -74.18, 554.66 -238.28, 706.75 -407.91 M270.83 90.49 C437.73 -99.15, 605.49 -292.6, 704.68 -409.29 M292.09 90.9 C452.5 -91.67, 610.86 -275.14, 711.75 -392.39 M291.33 93.21 C398.29 -30.82, 507.83 -156.84, 714.04 -394.06 M311.17 95.07 C440.33 -53.86, 568.71 -203.92, 720.03 -378.62 M310.21 94.31 C437.58 -51.52, 564.17 -197.49, 722.07 -379.06 M328.4 95.49 C425.18 -16.46, 522.21 -124.49, 730.49 -362.05 M330.05 97.3 C452.11 -43.73, 573.39 -182.27, 729.77 -362.95 M348.73 98.36 C457.25 -27.26, 563.75 -145.78, 737.14 -345.8 M349.53 98.67 C481.42 -58.92, 615.9 -212.79, 735.06 -345.97 M370.19 101.04 C481.06 -31.2, 595.36 -160.59, 742.27 -331.76 M368.41 100.3 C513.93 -67.58, 657.97 -234.36, 742.95 -330.41 M387.47 101.44 C484.39 -8.47, 581.6 -120.2, 750.49 -315.4 M388.08 103.22 C519.19 -46.65, 652.01 -198.99, 750.82 -314.31 M403.88 106.88 C520.67 -20.89, 634.45 -152.25, 757 -296.88 M405.29 107.85 C515.22 -14.46, 624.87 -140.27, 757.67 -297.46 M424.33 108.01 C526.88 -10.12, 633.07 -131.31, 764.8 -280.88 M425.93 109.09 C526.64 -9.12, 631.94 -129.22, 763.01 -280.27 M447.13 109.97 C555.26 -15.07, 665.26 -141.03, 772.17 -263.46 M446.66 109.22 C570.9 -40.33, 698.89 -187.08, 770.51 -264.62 M465.62 110.2 C544.53 22.74, 618.38 -65.27, 777.62 -249.38 M466.35 108.88 C562.75 -0.21, 658.08 -111.56, 778 -249.33 M486.7 110.12 C602.22 -19.89, 713.84 -148.62, 783.66 -231.21 M487.61 108.74 C548.23 42.7, 606.68 -25.84, 784.14 -231.63 M511.66 106.13 C586.06 17.81, 661.66 -71.29, 796.14 -218.9 M512.34 107.61 C621.14 -17.89, 730.67 -140.63, 795.23 -219.12 M535.14 105.48 C637.99 -8.68, 739.25 -126.31, 801.11 -201.1 M533.13 105.45 C592.31 35.21, 652.1 -31.04, 799.89 -200.98 M553.13 105.35 C607.42 41.2, 657.1 -19.24, 806.98 -184.83 M554.52 105.21 C638.54 14.99, 718.81 -76.91, 806.18 -182.5 M578.51 102.06 C638.43 39.46, 695.51 -31.94, 811.13 -166.15 M578.32 103.57 C665.58 4.93, 752.87 -98.61, 812.29 -164.74 M599.23 101.67 C652.17 41.8, 708.28 -19.99, 815.63 -144.96 M598.25 102.38 C686.89 3.34, 773.09 -96.63, 816.07 -146.21 M621.18 108.27 C662.04 55.26, 701.97 8.83, 822.17 -125.74 M618.85 106.12 C687.83 28.18, 754.36 -47.41, 820.08 -126.52 M643.44 104.46 C680 54.73, 720.05 15.56, 823.53 -107.56 M640.66 104.56 C692.03 43.13, 740.81 -17.32, 823.71 -105.72 M661.79 102.35 C706.79 53.16, 748.4 7.26, 822.59 -83.26 M663.44 101.96 C726.13 33.32, 785.98 -35.35, 824.45 -84.89 M686.55 99.09 C723.25 58.34, 755.93 18.23, 826.93 -61.93 M690.8 95.89 C734.36 47.63, 779.5 -5, 827.82 -64.15 M710.36 96.75 C745.35 56, 775.97 22.87, 830.64 -37.5 M715.68 95.22 C751.76 51.19, 787.87 7.76, 830.94 -38.25 M739.14 92.23 C774.71 49.69, 806.03 11.04, 833.13 -14.58 M740.41 89.3 C762.26 64.21, 783.39 37.47, 829.21 -15.19 M761.67 87.18 C788.29 55.86, 814.13 29.82, 830.17 3.62 M763.89 84.59 C776.42 65.71, 794.53 46.98, 831.06 3.86 M786.18 86.34 C801.58 69.8, 815.49 50.75, 826.94 29.33 M783.92 85.88 C796.31 76.5, 804.37 63.56, 829.02 34.36 M808.16 81.66 C816.25 77.36, 815.22 71.03, 827.35 60.56 M803.89 86.54 C812.72 77.25, 818.75 71.29, 829.53 59.2 M0 0 C0 0, 0 0, 0 0 M0 0 C0 0, 0 0, 0 0 M52.42 22.5 C33.86 10.16, 26.09 1.35, -4.82 -20.32 M50.8 22.86 C30.63 7.64, 14.87 -9.45, -3.96 -22.25 M92.48 32.07 C54.4 5.42, 24.07 -19.4, -0.13 -40.5 M87.88 36.82 C60.45 8.17, 27.38 -19.13, -1.04 -40.58 M135.76 51.87 C101.18 16.79, 60.79 -10.89, -2.34 -62.07 M134.01 52.17 C89.75 15.76, 47.31 -24.41, -0.2 -63.99 M174.62 69.51 C111.75 14.36, 44.28 -42.49, 1.35 -83.37 M174 67.76 C106.46 6.52, 40.27 -54.4, 0.52 -81.83 M207.4 73.91 C158.68 32.44, 106.12 -9.78, 3.1 -102.31 M205 74.04 C166 36.35, 123.33 -1.61, 4.5 -102.15 M233.75 78.83 C182.08 35.46, 132.66 -7.38, 10.07 -117.56 M237 77.17 C149.06 0.56, 59.19 -76.4, 9.9 -119.95 M266.83 82.19 C193.14 18.89, 119.14 -47.07, 13.09 -140.29 M266.59 85.1 C180.18 6.09, 94.57 -67.85, 13.11 -138.97 M294.56 85.37 C222.52 23.03, 154.53 -38.07, 15.95 -153.59 M293.07 83.67 C220.71 22.26, 145.39 -43.52, 16.95 -155.85 M320.57 86.75 C209.81 -5.59, 99.41 -103.06, 21.53 -171.09 M321.12 86.85 C245.5 19.81, 167.52 -47.83, 21.38 -171.75 M348.93 90.36 C230.06 -13.63, 109.13 -119.89, 26.28 -187.7 M348.92 90.19 C271.65 27.85, 197.75 -36.25, 26.47 -189 M375.92 92.62 C275.54 3.43, 174.22 -85.54, 29.57 -208.36 M375.51 92.64 C289.66 21.18, 204.5 -52.68, 29.68 -207.28 M403.2 93.52 C290.26 -2.35, 180.92 -96.95, 39.23 -219.21 M401.99 95.25 C307.05 9.97, 211.74 -73.13, 39.83 -219.31 M426.62 94.64 C314.27 -7.06, 200.4 -104.53, 47.14 -234.56 M427.35 95.93 C340.3 19.54, 251.76 -57.86, 45.29 -235.48 M450.34 96.35 C311 -23, 171.28 -147.01, 52.26 -250.15 M452.58 96.05 C351.87 8.43, 252.46 -76.88, 51.29 -251.82 M477.72 95.85 C352.65 -9.87, 227.95 -121.82, 57.1 -267.28 M476.28 96.65 C368.62 4.34, 260.21 -89.12, 58.53 -266.29 M506.68 101.3 C409.58 15.41, 309.75 -73.06, 63.96 -281.93 M507.44 102.3 C403.33 12.73, 301.33 -76.13, 65.31 -283 M530.89 99.57 C431.35 16.79, 335.84 -68.01, 71.22 -296.99 M530.74 101.02 C434.75 11.61, 335.54 -74.59, 73.54 -297.01 M554.5 99.27 C460.67 19.42, 363.88 -65.77, 80.44 -313.29 M553.48 99.55 C389.51 -42.98, 223.2 -187.63, 79.13 -312.97 M577.58 98.93 C468.92 5.21, 358.9 -89.46, 88.48 -326.93 M577.49 99.04 C422.38 -34.39, 265.33 -169.82, 86.67 -327.93 M600.04 97.92 C406.35 -69.88, 211.18 -241.93, 93.82 -340.17 M601.66 98.23 C431.52 -49.65, 263.39 -196.15, 95.84 -341.03 M616.18 90.1 C449.16 -57.88, 279.2 -204.94, 101.84 -357.67 M617.28 91.37 C507.43 -6.51, 396.49 -103.87, 102.08 -355.94 M639.9 90.47 C514.87 -16.42, 389.4 -123.06, 112.03 -370.19 M639.94 88.74 C439.22 -83.25, 238.34 -256.4, 110.21 -369.81 M661.73 88.56 C543.99 -15.57, 423.6 -120.17, 121.5 -383.05 M662.51 88.74 C504.46 -51.44, 347.74 -188.67, 120.59 -383.94 M683.45 85.72 C552.56 -27.89, 424.77 -139.08, 128.15 -396.63 M683.65 85.03 C532.67 -48.59, 381.17 -179.13, 128.32 -395.97 M705.48 83.3 C492.28 -106.02, 278.39 -291.07, 137.68 -410.36 M703.99 81.4 C500.29 -93.51, 297 -269.91, 138.45 -409.96 M724.4 79.2 C599.99 -31.96, 471.34 -143.09, 145.62 -423.21 M725.47 78.96 C560.79 -65.65, 394.43 -209.59, 147.25 -423.05 M744.02 74.35 C535.53 -110.85, 324.96 -296.24, 156.94 -435 M745.69 75.79 C530.45 -113.02, 315.36 -300.6, 157.23 -436.1 M765.04 72.79 C598.58 -75.81, 433.98 -221.34, 166.56 -448.25 M766.89 71.97 C604.6 -66.25, 442.1 -208.64, 166.55 -448.01 M794.23 76.07 C590.24 -103.47, 385.57 -283.4, 178.28 -460.59 M794.89 76.32 C606.95 -83.83, 424.58 -243.82, 178.42 -460.72 M818.24 74.33 C676.14 -47.77, 538.29 -169.04, 188.23 -473.49 M816.17 73.78 C586.48 -118.62, 359.57 -316.24, 188.75 -472.42 M829.71 64.32 C609.77 -130.77, 387.73 -324.82, 201.38 -484.07 M828.18 63.65 C662.34 -76.88, 497.55 -221.74, 199.53 -483.5 M833.21 46.76 C636.5 -122.33, 440.13 -294.46, 212.18 -492.68 M834.14 47.64 C662.41 -98.78, 491.86 -247.15, 211.65 -493.48 M831.53 22.93 C674.22 -115.25, 514.77 -254.24, 224.8 -504.23 M830.26 22.79 C700.28 -89.25, 572.02 -200.55, 224.4 -505.21 M830.28 0.85 C614.48 -192.85, 397.49 -381.12, 237.57 -516.47 M829.73 0.63 C707.67 -106.94, 583.75 -215.63, 236.91 -515.31 M828.18 -21.86 C712.58 -128.01, 596.46 -232.15, 248.51 -525.32 M828.26 -23.21 C700.45 -130.62, 574.57 -239.96, 248.9 -525.64 M822.36 -49.47 C701.06 -151.28, 578.77 -259.04, 262.39 -536.68 M822.31 -49.05 C621.95 -224.35, 422.55 -397.78, 262.4 -536.41 M822.83 -68.39 C658.75 -218.17, 491.31 -362.39, 275.13 -543.76 M824.58 -68.33 C603.56 -261.27, 384.86 -452.57, 275.75 -545.62 M820.45 -94.31 C678.32 -210.77, 539.19 -332.81, 289.77 -555.48 M820.73 -92.85 C619.68 -262.57, 421.8 -433.79, 289.36 -554.04 M816.44 -118.5 C612.85 -292.67, 413.63 -467.54, 300.99 -565.35 M816.03 -117.65 C608.57 -294.53, 401.88 -474.22, 301.57 -564.14 M811.71 -142.46 C650.92 -284.65, 486.69 -428.37, 315.64 -574.26 M811.81 -142.5 C659.37 -274.51, 506 -409.38, 315.64 -573.08 M816.72 -158.78 C682.16 -272.93, 551.62 -387.68, 332.19 -581.02 M818 -158.21 C677.76 -282.55, 533.49 -407.26, 332.2 -580.53 M808.95 -186.83 C624.78 -342.13, 445.25 -499.23, 348.05 -588.66 M807.43 -188.28 C670.9 -305.65, 531.98 -426.57, 347.82 -589.09 M784.84 -227.03 C681.08 -323.81, 572 -419.14, 361.98 -598.06 M786.34 -227.87 C659.91 -339.74, 534.96 -448.71, 362.42 -596.1 M771.34 -262.55 C668.2 -355.45, 565.53 -445.42, 378.6 -605.2 M770.84 -262.67 C670.23 -349.19, 567.91 -437.52, 376.65 -604.14 M758.59 -293.78 C670.93 -369.9, 582.73 -446.78, 395.29 -609.5 M757.22 -296.21 C664.12 -371.31, 573.28 -451.17, 394.89 -611.69 M743.81 -329.56 C641.27 -413.52, 537.37 -505.16, 412.65 -617.43 M744.14 -328.38 C612.72 -439.44, 483.69 -550.06, 410.87 -618.26 M739.83 -354.55 C669.25 -415.4, 597.4 -479.03, 426.49 -622.02 M738.87 -355.34 C636.29 -441.91, 534.38 -532.28, 429.14 -624.1 M718.47 -395.36 C632.24 -471.14, 544.94 -541.93, 447.83 -631.4 M718 -394.79 C648.07 -456.91, 580.84 -516.47, 446.77 -630.71 M704.83 -422.37 C610.7 -509.24, 513.77 -593.99, 464.39 -636.14 M705.73 -424.33 C624.8 -495.94, 544.35 -566.73, 464.26 -633.61 M680.5 -468.49 C632.1 -510.34, 582.29 -551.19, 481.44 -637.64 M679.13 -467.06 C615.09 -527.82, 547.99 -587.1, 484.02 -641.62" stroke="#ced4da" stroke-width="2" fill="none"></path><path d="M0.37 -0.02 C-0.45 -12.47, -10.51 -34.6, -2.27 -76.98 C5.97 -119.37, 22.24 -193.62, 49.84 -254.35 C77.43 -315.08, 119.37 -389.23, 163.29 -441.34 C207.21 -493.45, 270.1 -537.39, 313.36 -567.01 C356.63 -596.64, 393.13 -607.97, 422.88 -619.11 C452.64 -630.25, 470.51 -637.09, 491.88 -633.84 C513.25 -630.6, 529.68 -617.26, 551.12 -599.64 C572.55 -582.02, 591.91 -566.26, 620.5 -528.13 C649.09 -490, 693.18 -428.11, 722.64 -370.85 C752.1 -313.59, 780.54 -233.65, 797.27 -184.57 C813.99 -135.49, 819.01 -99.47, 822.98 -76.38 C826.94 -53.3, 821.43 -70.07, 821.06 -46.07 C820.69 -22.08, 828.55 47.53, 820.77 67.57 C812.99 87.62, 808.88 68.71, 774.37 74.18 C739.85 79.64, 676.45 95.96, 613.68 100.35 C550.92 104.75, 467.78 105.29, 397.78 100.56 C327.77 95.84, 245.53 82.34, 193.67 72.01 C141.8 61.68, 118.91 50.87, 86.59 38.59 C54.26 26.3, 13.79 5.06, -0.27 -1.7 M-2.87 -2.5 C-3.07 -15.55, -5.75 -38.31, 2.9 -81.1 C11.55 -123.89, 22.11 -198.37, 49.03 -259.23 C75.95 -320.1, 120.93 -395.21, 164.43 -446.27 C207.93 -497.34, 266.59 -536.52, 310.02 -565.63 C353.45 -594.74, 394.6 -609.18, 425 -620.93 C455.4 -632.67, 471.78 -639.39, 492.42 -636.08 C513.06 -632.78, 526.83 -618.78, 548.85 -601.1 C570.88 -583.42, 595.25 -568.22, 624.56 -529.98 C653.86 -491.75, 696 -429.73, 724.67 -371.68 C753.34 -313.62, 780.72 -230.51, 796.56 -181.66 C812.41 -132.8, 815.51 -100.99, 819.73 -78.54 C823.96 -56.09, 820.74 -71.21, 821.89 -46.95 C823.04 -22.68, 834.27 45.85, 826.64 67.05 C819.02 88.25, 812.45 75.54, 776.14 80.27 C739.84 85, 672.29 91.84, 608.8 95.44 C545.31 99.05, 464.72 105.86, 395.18 101.9 C325.64 97.94, 243.55 82.18, 191.54 71.66 C139.54 61.14, 114.97 50.44, 83.17 38.8 C51.37 27.16, 14.45 7.81, 0.74 1.81" stroke="#343a40" stroke-width="4" fill="none"></path></g></g><mask></mask><g stroke-linecap="round"><g transform="translate(176.79173361500125 894.1931266313562) rotate(0 341.0239162331286 -225.87711423724102)" fill-rule="evenodd"><path d="M-0.55 2.96 L-3.4 -20.83 L0.69 -50.94 L14.28 -135.41 L24.7 -180.53 L38.52 -214.29 L56.48 -260.25 L78.49 -302.58 L120.11 -357 L159.14 -408.71 L190.02 -434.82 L256.83 -487.45 L280.95 -497.14 L323.82 -523.58 L374.92 -537.94 L398.9 -540.58 L410.17 -539.73 L421.92 -529.8 L476.23 -489.24 L501.08 -466.12 L547.03 -388.35 L585.86 -318.78 L621.34 -232.76 L641.78 -175.33 L661.79 -131.78 L667.41 -59.14 L667.03 -46.47 L669.38 -44.64 L684.49 16.12 L685.74 42.81 L675.86 53.13 L670.92 64.72 L626.85 68.13 L537.42 78.51 L414.62 87.27 L327.79 88.23 L240.71 74.23 L132.53 57.13 L69.78 36.45 L-2.93 -3.38" stroke="none" stroke-width="0" fill="#ffedc2" fill-rule="evenodd"></path><path d="M1.39 2.37 C1.53 -8.27, -6.04 -29.29, 0.57 -66.25 C7.18 -103.22, 18.95 -167.07, 41.05 -219.42 C63.15 -271.78, 97.54 -336.23, 133.16 -380.4 C168.78 -424.57, 219.67 -459.59, 254.78 -484.44 C289.88 -509.29, 319.05 -520.5, 343.8 -529.52 C368.54 -538.54, 386.01 -542.16, 403.24 -538.54 C420.48 -534.92, 430.46 -522.39, 447.21 -507.81 C463.96 -493.22, 480.48 -483.29, 503.75 -451.04 C527.03 -418.8, 562.04 -363.19, 586.87 -314.35 C611.71 -265.51, 639.14 -200.07, 652.78 -158 C666.41 -115.93, 666.19 -81.63, 668.67 -61.94 C671.16 -42.24, 665.81 -58.77, 667.68 -39.82 C669.55 -20.87, 686.3 33.91, 679.87 51.77 C673.45 69.64, 659.05 62.36, 629.13 67.37 C599.21 72.37, 550.31 78.44, 500.36 81.82 C450.41 85.21, 386.45 91.68, 329.45 87.69 C272.44 83.71, 201.02 66.57, 158.35 57.91 C115.68 49.26, 99.72 45.36, 73.43 35.74 C47.15 26.13, 12.49 6.36, 0.62 0.21 M-1.3 1.18 C-1.46 -10.13, -8.29 -34.46, -1.36 -70.87 C5.58 -107.29, 17.7 -165.88, 40.32 -217.29 C62.94 -268.69, 99.18 -334.87, 134.34 -379.31 C169.5 -423.76, 216.01 -459.84, 251.28 -483.96 C286.54 -508.08, 320.23 -514.64, 345.95 -524.01 C371.66 -533.39, 389.18 -542.96, 405.55 -540.23 C421.93 -537.49, 427.25 -522.01, 444.2 -507.6 C461.15 -493.19, 483.26 -485.99, 507.26 -453.79 C531.26 -421.59, 563.65 -364.1, 588.19 -314.41 C612.73 -264.71, 640.27 -197.64, 654.48 -155.61 C668.69 -113.58, 671.17 -81.3, 673.46 -62.23 C675.74 -43.15, 666.19 -60.23, 668.17 -41.16 C670.15 -22.1, 691.68 34.09, 685.34 52.16 C679 70.24, 660.72 61.84, 630.13 67.28 C599.54 72.71, 552.21 82.32, 501.79 84.77 C451.37 87.22, 384.06 86.45, 327.61 81.98 C271.16 77.5, 205.73 65.31, 163.07 57.91 C120.41 50.51, 98.48 47.87, 71.65 37.58 C44.82 27.28, 13.9 1.71, 2.1 -3.88" stroke="#343a40" stroke-width="4" fill="none"></path></g></g><mask></mask><g stroke-linecap="round" transform="translate(915.0013167470634 956.8218022710504) rotate(0 98.02279221369736 94.10188052514951)"><path d="M149.28 16.12 C160.71 21.35, 173.28 31.85, 180.44 41.25 C187.59 50.65, 189.81 61.18, 192.21 72.53 C194.61 83.89, 196.91 97.1, 194.83 109.38 C192.75 121.65, 186.67 136, 179.74 146.2 C172.8 156.4, 163.2 163.72, 153.2 170.58 C143.21 177.44, 132.09 184.36, 119.76 187.36 C107.43 190.35, 91.58 190.94, 79.22 188.56 C66.86 186.18, 56.15 179.84, 45.59 173.06 C35.03 166.29, 23.32 157.53, 15.86 147.9 C8.4 138.27, 3.11 127.05, 0.84 115.29 C-1.43 103.52, -0.29 89.44, 2.24 77.31 C4.77 65.18, 9.39 52.33, 16.01 42.48 C22.63 32.63, 32 25.07, 41.99 18.21 C51.97 11.34, 63.62 3.88, 75.92 1.27 C88.22 -1.33, 96.88 -7.4, 115.78 2.59 C134.67 12.57, 177.21 41.05, 189.31 61.18 C201.41 81.31, 189.97 122.5, 188.39 123.36 M179.76 43.24 C188.31 51.87, 194.09 63.75, 196.22 75.5 C198.35 87.25, 195.35 101.72, 192.54 113.73 C189.74 125.75, 185.78 138.09, 179.38 147.59 C172.99 157.1, 164.94 164.15, 154.17 170.75 C143.4 177.35, 126.83 184.92, 114.76 187.18 C102.7 189.45, 93.28 186.37, 81.78 184.33 C70.28 182.29, 56.19 181.39, 45.77 174.93 C35.35 168.47, 26.56 156.41, 19.25 145.57 C11.95 134.73, 4.64 121.74, 1.92 109.89 C-0.8 98.04, 0.16 85.52, 2.94 74.5 C5.72 63.47, 11.88 53.59, 18.6 43.73 C25.32 33.86, 33.42 22.08, 43.27 15.32 C53.12 8.56, 65.48 5.18, 77.71 3.16 C89.95 1.14, 104.35 0.95, 116.68 3.21 C129.01 5.48, 141.66 10.47, 151.7 16.73 C161.74 22.99, 172.93 36.69, 176.92 40.77 C180.91 44.85, 176.37 39.87, 175.62 41.2" stroke="none" stroke-width="0" fill="#a3bdd6"></path><path d="M171.36 30.78 C180.87 38.2, 186.85 51.39, 190.9 62.42 C194.94 73.45, 195.91 85.14, 195.62 96.96 C195.33 108.78, 194.51 122.68, 189.17 133.34 C183.82 143.99, 172.97 152.86, 163.53 160.9 C154.09 168.93, 143.95 176.74, 132.53 181.54 C121.1 186.33, 107.79 190.26, 94.97 189.69 C82.15 189.12, 66.79 183.5, 55.62 178.11 C44.45 172.71, 36.06 165.54, 27.98 157.31 C19.89 149.07, 11.67 139.68, 7.12 128.69 C2.56 117.7, 0.18 103.69, 0.65 91.35 C1.13 79.02, 5.12 65.77, 9.97 54.69 C14.81 43.61, 21.09 33.09, 29.73 24.85 C38.37 16.61, 50.18 9.53, 61.81 5.25 C73.43 0.96, 86.8 -1.07, 99.46 -0.86 C112.12 -0.64, 122.19 -5.26, 137.78 6.54 C153.38 18.34, 183.7 51.99, 193.04 69.94 C202.37 87.9, 195.35 114.34, 193.79 114.25 M36.25 18.96 C44.84 10.05, 57.31 4.94, 69.19 1.79 C81.07 -1.35, 94.69 -1.63, 107.54 0.1 C120.39 1.84, 134.96 6.14, 146.28 12.22 C157.6 18.29, 168.34 27.69, 175.47 36.55 C182.6 45.41, 185.54 54.82, 189.05 65.39 C192.56 75.95, 197.48 87.74, 196.54 99.94 C195.59 112.15, 189.8 127.22, 183.39 138.64 C176.98 150.06, 167.01 161.01, 158.09 168.47 C149.16 175.93, 141.35 180.22, 129.84 183.38 C118.32 186.55, 102.25 188.54, 88.98 187.44 C75.72 186.34, 61.61 182.32, 50.22 176.78 C38.83 171.24, 27.87 163.25, 20.65 154.2 C13.44 145.16, 10.12 133.8, 6.93 122.52 C3.74 111.23, 1.3 98.3, 1.52 86.49 C1.74 74.67, 2.64 62.73, 8.25 51.64 C13.87 40.55, 30.82 24.3, 35.2 19.96 C39.59 15.61, 33.68 24.19, 34.57 25.58" stroke="#1864ab" stroke-width="4" fill="none"></path></g><g stroke-linecap="round" transform="translate(955.7764980198363 994.5590860384895) rotate(0 61.950404679056646 59.472388491894435)"><path d="M56.66 2.02 C65.73 0.46, 76.18 0.9, 84.85 3.87 C93.53 6.83, 102.14 12.84, 108.71 19.79 C115.28 26.75, 122.15 36.72, 124.26 45.6 C126.37 54.48, 124.05 64.24, 121.37 73.08 C118.68 81.93, 114.27 91.81, 108.15 98.67 C102.02 105.52, 93.7 110.72, 84.62 114.21 C75.53 117.71, 63.52 120.5, 53.64 119.65 C43.76 118.79, 33.07 114.64, 25.32 109.1 C17.58 103.55, 11.34 94.94, 7.16 86.38 C2.98 77.81, 0.45 67.12, 0.26 57.73 C0.08 48.33, 1.5 37.87, 6.04 30.01 C10.59 22.15, 13.52 14.2, 27.54 10.58 C41.57 6.95, 75.29 4.06, 90.21 8.27 C105.13 12.47, 117.19 34.78, 117.08 35.8 M46.49 4.02 C55.13 0.22, 67.72 -1.37, 76.81 0.68 C85.91 2.72, 93.88 10.73, 101.03 16.29 C108.17 21.85, 116.37 26.03, 119.69 34.04 C123 42.06, 121.97 54.76, 120.9 64.35 C119.83 73.95, 117.58 84.3, 113.27 91.59 C108.95 98.88, 103.64 103.17, 95.04 108.09 C86.43 113.01, 71.9 120.06, 61.64 121.1 C51.38 122.14, 41.34 118.53, 33.46 114.34 C25.59 110.15, 19.77 103.22, 14.39 95.94 C9.01 88.66, 3.2 80.25, 1.19 70.68 C-0.82 61.12, -0.52 48.02, 2.33 38.57 C5.18 29.12, 11.4 20.45, 18.29 13.97 C25.19 7.5, 39.45 1.63, 43.72 -0.29 C47.99 -2.21, 43.88 0.89, 43.9 2.46" stroke="none" stroke-width="0" fill="#d4ebff"></path><path d="M52.49 0.98 C61.72 -1.04, 73.68 1.77, 82.47 4.45 C91.27 7.13, 98.54 10.43, 105.24 17.04 C111.93 23.66, 119.92 35.02, 122.65 44.14 C125.39 53.27, 123.65 62.6, 121.62 71.78 C119.6 80.96, 116.63 92.22, 110.49 99.22 C104.35 106.23, 94.17 110.42, 84.8 113.82 C75.42 117.22, 63.86 120.65, 54.26 119.61 C44.67 118.57, 34.81 112.99, 27.23 107.56 C19.66 102.14, 13.17 94.54, 8.82 87.08 C4.47 79.62, 1.62 71.85, 1.13 62.82 C0.64 53.8, 1.79 41.26, 5.87 32.94 C9.95 24.63, 14.08 18.03, 25.64 12.95 C37.19 7.87, 63.11 2.43, 75.19 2.46 C87.27 2.5, 97.89 12.32, 98.13 13.17 M112.38 28.86 C118.11 35.5, 123.23 46.67, 124.25 55.11 C125.27 63.55, 122.54 70.95, 118.49 79.5 C114.45 88.04, 107.19 100.32, 99.98 106.37 C92.76 112.42, 83.98 113.8, 75.21 115.78 C66.44 117.76, 56.58 120.23, 47.35 118.25 C38.12 116.27, 27.27 110.61, 19.82 103.9 C12.37 97.19, 6.26 86.86, 2.66 77.99 C-0.94 69.12, -3.71 59.79, -1.79 50.68 C0.13 41.56, 8.46 30.5, 14.18 23.29 C19.9 16.08, 23.89 11.46, 32.53 7.41 C41.16 3.35, 56.03 -1.45, 65.98 -1.04 C75.93 -0.63, 84.66 5.48, 92.23 9.85 C99.81 14.21, 108.14 22.16, 111.44 25.14 C114.74 28.13, 112.15 26.85, 112.02 27.75" stroke="#1864ab" stroke-width="4" fill="none"></path></g><g stroke-linecap="round"><g transform="translate(943.5925947119849 1117.3404548032297) rotate(0 -276.3692587366172 -264.1221725582994)" fill-rule="evenodd"><path d="M-3.62 3.87 L-431.56 -246.02 L-637.36 -359.94 L-647.47 -375.23 L-658.45 -387.45 L-661.37 -398.28 L-662.96 -416.37 L-653.86 -441.67 L-646.96 -474.91 L-630.23 -501.65 L-610.82 -518.98 L-572.79 -529.84 L-540.52 -521.95 L-511.96 -517.45 L-414.36 -455.95 L5.1 -220.16 L98.75 -165.41 L102.95 -157.5 L70.06 -159.68 L32.93 -149.4 L9.6 -138.68 L-8.39 -119.97 L-26.87 -92.08 L-26.07 -74.94 L-31.98 -61.99 L-21.54 -30.18 L1.19 3.77" stroke="none" stroke-width="0" fill="#d4ebff" fill-rule="evenodd"></path><path d="M-0.05 1.59 C-91.91 -50.53, -442.61 -246.95, -552.1 -312.27 C-661.59 -377.58, -642.82 -359.85, -656.99 -390.29 C-671.16 -420.73, -649.52 -473.01, -637.12 -494.89 C-624.72 -516.77, -601.52 -518.02, -582.6 -521.58 C-563.69 -525.13, -551.41 -526.73, -523.63 -516.21 C-495.85 -505.68, -515.24 -514.29, -415.94 -458.44 C-316.63 -402.58, -8.77 -230.63, 72.19 -181.06 C153.15 -131.5, 75.82 -165.72, 69.82 -161.05 C63.82 -156.38, 47.93 -157.91, 36.18 -153.04 C24.43 -148.16, 9.53 -141.77, -0.68 -131.8 C-10.89 -121.83, -20.68 -104.82, -25.08 -93.22 C-29.48 -81.62, -28.12 -72.54, -27.08 -62.19 C-26.04 -51.84, -23.74 -41.77, -18.85 -31.12 C-13.97 -20.46, -1.13 -3.62, 2.2 1.72 M-3.52 -0.01 C-94.48 -51.77, -439.25 -244.43, -547.18 -309.1 C-655.11 -373.76, -636.2 -357.24, -651.1 -387.99 C-665.99 -418.75, -647.39 -470.31, -636.55 -493.65 C-625.7 -516.99, -605.33 -523.99, -586.03 -528.04 C-566.72 -532.08, -549.36 -530.24, -520.7 -517.93 C-492.03 -505.62, -512.57 -510.21, -414.03 -454.17 C-315.49 -398.13, -9.7 -229.98, 70.53 -181.71 C150.76 -133.44, 74.05 -169, 67.34 -164.55 C60.64 -160.1, 41.33 -160.77, 30.28 -155.01 C19.24 -149.26, 9.55 -140.16, 1.07 -130.03 C-7.4 -119.9, -16.08 -105.25, -20.58 -94.23 C-25.09 -83.22, -26.11 -74.53, -25.96 -63.92 C-25.81 -53.32, -24.71 -41.46, -19.68 -30.58 C-14.66 -19.7, 0.19 -3.05, 4.17 1.34" stroke="#1864ab" stroke-width="4" fill="none"></path></g></g><mask></mask><g stroke-linecap="round"><g transform="translate(560.3725202501728 355.45582159867985) rotate(0 27.483762046578704 -29.25499824207111)" fill-rule="evenodd"><path d="M0.06 0.53 L-2.75 -60 L-15.58 -69.24 L-15.1 -71.47 L-13.53 -73.12 L-9.48 -79 L4.34 -80.76 L42.05 -83.78 L52.39 -81.81 L68.74 -74.19 L72.15 -70.94 L63.2 -61.1 L54.9 -56.59 L55.24 -7.47 L51.84 26.86 L48.07 15.13 L36.6 8.87 L28.51 4.08 L0.74 0.02" stroke="none" stroke-width="0" fill="#fff700" fill-rule="evenodd"></path><path d="M-0.07 -1.16 C-1 -10.4, -3.75 -44.61, -4.45 -54.56 C-5.15 -64.51, -2.53 -58.58, -4.26 -60.85 C-5.99 -63.11, -13.25 -65.95, -14.84 -68.17 C-16.42 -70.38, -15.91 -72.1, -13.76 -74.15 C-11.61 -76.2, -8.68 -78.91, -1.94 -80.47 C4.8 -82.03, 17.45 -83.33, 26.68 -83.5 C35.91 -83.67, 46.15 -83.3, 53.44 -81.5 C60.72 -79.71, 67.89 -75.06, 70.41 -72.72 C72.93 -70.39, 69.74 -69.59, 68.56 -67.49 C67.38 -65.39, 65.43 -61.85, 63.32 -60.11 C61.21 -58.37, 57.42 -59.61, 55.9 -57.05 C54.38 -54.48, 54.76 -55.15, 54.21 -44.7 C53.66 -34.24, 53.02 -6.07, 52.59 5.68 C52.16 17.43, 52.67 24.2, 51.61 25.79 C50.54 27.38, 48.54 18.39, 46.2 15.22 C43.87 12.05, 40.39 8.96, 37.6 6.78 C34.8 4.6, 33 3.31, 29.42 2.16 C25.85 1.01, 19.87 -0.02, 16.15 -0.1 C12.42 -0.18, 9.62 1.49, 7.09 1.69 C4.57 1.89, 2.33 1.43, 0.97 1.08 M-1.57 0.85 C-2.22 -8.86, -1.68 -46.45, -2.27 -56.55 C-2.85 -66.65, -2.92 -58, -5.08 -59.77 C-7.23 -61.53, -13.57 -64.86, -15.21 -67.13 C-16.84 -69.41, -16.81 -71.1, -14.9 -73.43 C-13 -75.76, -10.77 -79.26, -3.78 -81.1 C3.21 -82.95, 17.65 -84.41, 27.04 -84.48 C36.44 -84.55, 45.58 -83.27, 52.58 -81.51 C59.57 -79.76, 66.29 -76.18, 69 -73.95 C71.71 -71.71, 69.81 -70.06, 68.82 -68.12 C67.83 -66.18, 65.37 -64.06, 63.06 -62.32 C60.76 -60.59, 56.52 -60.61, 54.99 -57.72 C53.45 -54.83, 54.42 -55.5, 53.86 -44.99 C53.3 -34.49, 51.87 -6.39, 51.61 5.32 C51.34 17.04, 53.02 23.95, 52.29 25.29 C51.56 26.63, 49.38 16.33, 47.25 13.34 C45.12 10.34, 42.72 9.15, 39.52 7.33 C36.31 5.5, 31.58 3.65, 28 2.39 C24.42 1.14, 21.36 0.15, 18.01 -0.2 C14.67 -0.54, 10.87 0.21, 7.93 0.32 C5 0.43, 1.94 0.23, 0.4 0.47" stroke="#495057" stroke-width="2" fill="none"></path></g></g><mask></mask><g stroke-linecap="round" transform="translate(573.4772399899612 10) rotate(0 16.69866540973635 68.33607690753536)"><path d="M-3.02 -3.04 L37.18 0.9 L29.65 135.92 L2.64 135.61" stroke="none" stroke-width="0" fill="#fff700"></path><path d="M1.65 -1.32 C13.84 -0.86, 25.57 -0.73, 34.18 0.09 M0.48 -0.51 C7.89 -0.19, 15.25 -2.1, 32.28 1.75 M32.71 2.61 C33.1 44.17, 29.33 88.09, 36.98 136.84 M33.49 -1.58 C31.72 29.99, 32.36 60.51, 32.58 135.64 M33.36 137.09 C30.04 133.57, 18.76 135.57, 0.45 139.65 M34.4 137.17 C20.36 135.37, 9.13 134.36, -0.14 138.67 M0.65 137.74 C1.43 86.16, 1.37 25.22, -2.13 -3.26 M1.37 134.81 C-0.21 82.59, -0.44 28.41, 1.64 -1.17" stroke="#fff700" stroke-width="4" fill="none"></path></g><g stroke-linecap="round"><g transform="translate(534.941858275186 124.06472987573568) rotate(0 52.11894565545572 48.398221262735944)" fill-rule="evenodd"><path d="M-1.04 -3.91 L51.21 108.46 L56.83 120.87 L53.68 116.06 L101.88 6.17 L102.4 -22.58 L97.29 -18.05 L69.45 11.21 L59.24 22.16 L44.2 17.93 L-2.57 -8.38" stroke="none" stroke-width="0" fill="#fff700" fill-rule="evenodd"></path><path d="M1.16 -0.92 C9.83 17, 43.82 86.04, 53.38 104.78 C62.94 123.53, 54.4 118.73, 58.53 111.55 C62.65 104.37, 70.71 83.72, 78.14 61.72 C85.57 39.72, 101.07 -9.41, 103.1 -20.44 C105.14 -31.47, 96.45 -11.04, 90.37 -4.46 C84.28 2.12, 74.03 14.31, 66.6 19.06 C59.17 23.8, 57.32 28.23, 45.78 24.02 C34.25 19.82, 4.69 -1.45, -2.62 -6.19 M-1.66 -3.89 C6.65 14.67, 42.08 88.17, 51.94 107.84 C61.81 127.51, 53.02 121.38, 57.53 114.13 C62.04 106.89, 70.81 86.81, 79.02 64.36 C87.23 41.91, 105.55 -8.75, 106.78 -20.57 C108.02 -32.39, 92.93 -12.77, 86.42 -6.55 C79.91 -0.33, 74.86 11.56, 67.73 16.74 C60.61 21.92, 54.81 27.61, 43.67 24.55 C32.54 21.48, 8.81 3.31, 0.93 -1.66" stroke="#fff700" stroke-width="4" fill="none"></path></g></g><mask></mask><g stroke-linecap="round" transform="translate(1008.3392428724546 705.820188940012) rotate(0 38.32106847017394 33.64776743722558)"><path d="M15.33 4.59 C20.67 0.49, 32.09 0.3, 39.91 0.55 C47.72 0.81, 56.3 2, 62.22 6.13 C68.14 10.26, 73.7 18.97, 75.41 25.32 C77.13 31.67, 75.41 37.97, 72.52 44.22 C69.64 50.47, 64.23 59.29, 58.1 62.82 C51.97 66.35, 42.81 65.84, 35.75 65.41 C28.69 64.97, 21.15 63.85, 15.74 60.22 C10.34 56.58, 5.75 50.25, 3.33 43.6 C0.91 36.95, -5.94 27.64, 1.22 20.3 C8.38 12.96, 34.41 -0.3, 46.31 -0.44 C58.2 -0.58, 72.39 18.55, 72.59 19.46 M32.74 -1.6 C39.43 -2.82, 46.76 0.31, 53.85 3.99 C60.95 7.68, 71.75 14.25, 75.31 20.51 C78.87 26.76, 77.07 35.26, 75.2 41.55 C73.34 47.83, 69.06 53.86, 64.14 58.2 C59.23 62.54, 53.1 66.28, 45.71 67.58 C38.32 68.88, 26.5 68.96, 19.8 66.03 C13.11 63.09, 8.71 55.99, 5.53 49.98 C2.36 43.97, -0.27 36.63, 0.74 29.97 C1.75 23.3, 6.21 15.15, 11.59 9.98 C16.98 4.82, 29.11 0.85, 33.07 -1.01 C37.02 -2.87, 35.73 -2.16, 35.32 -1.17" stroke="none" stroke-width="0" fill="#fff700"></path><path d="M43.04 0.69 C49.81 1.04, 57.33 4.69, 62.81 9.19 C68.29 13.69, 73.96 21.27, 75.92 27.68 C77.87 34.09, 77.18 41.59, 74.55 47.64 C71.92 53.69, 66.43 60.69, 60.15 63.98 C53.87 67.28, 44.73 68.42, 36.85 67.43 C28.97 66.44, 18.54 62.07, 12.89 58.06 C7.25 54.06, 4.33 49.66, 2.96 43.4 C1.6 37.15, 2.1 26.62, 4.69 20.52 C7.28 14.42, 9.04 8.87, 18.52 6.8 C27.99 4.73, 52.32 5.24, 61.52 8.11 C70.72 10.98, 73.53 23.79, 73.72 23.99 M13.82 7.99 C18.58 4.31, 27.6 2.98, 35.02 2.07 C42.44 1.17, 52.21 -0.71, 58.34 2.56 C64.46 5.83, 69.21 15.08, 71.79 21.69 C74.37 28.31, 74.88 35.63, 73.83 42.24 C72.77 48.85, 70.52 57.37, 65.47 61.35 C60.43 65.34, 51.33 66.42, 43.56 66.17 C35.79 65.93, 26.14 63.01, 18.85 59.88 C11.56 56.74, 2.42 52.67, -0.19 47.37 C-2.79 42.07, 0.7 34.61, 3.22 28.07 C5.74 21.53, 13.45 10.95, 14.93 8.14 C16.41 5.34, 11.77 10.54, 12.1 11.25" stroke="#000000" stroke-width="1" fill="none"></path></g><g stroke-linecap="round" transform="translate(1160.3996963911268 674.6311070849033) rotate(269.60761876986146 16.69866540973635 68.33607690753536)"><path d="M-2.58 -2.64 L30.01 -3.24 L30.45 139.94 L1.8 136.92" stroke="none" stroke-width="0" fill="#fff700"></path><path d="M1.03 1.12 C10.26 -0.26, 26.6 -2.5, 36.81 3.24 M-1.12 -0.48 C12.82 -0.08, 25.44 -1.48, 32.57 1.27 M30.58 -1.79 C37 41.66, 36.07 83.36, 35.77 134.08 M31.52 1.24 C35.6 41.4, 35.66 84.12, 32.77 135.82 M34.05 138.07 C24.9 138.61, 13.14 139.55, 0.87 138.3 M35.17 135.35 C22.49 135.77, 15.2 137.7, -0.12 135.12 M0 135.04 C-0.81 78.72, -1.27 30.66, 3.41 0.36 M-1.4 135.16 C1.33 105.33, 2.93 71.54, 0.78 0.69" stroke="#fff700" stroke-width="4" fill="none"></path></g><g stroke-linecap="round"><g transform="translate(1219.447825410326 698.5664698302427) rotate(269.60761876986146 52.38113911795563 49.14136353846689)" fill-rule="evenodd"><path d="M-3.78 -2.82 L50.11 107.75 L54.46 119.96 L53.15 114.9 L95.7 6.37 L108.57 -23.2 L96.15 -15.75 L73.27 11.15 L58.61 21.72 L39.07 17.87 L1.02 -1.77" stroke="none" stroke-width="0" fill="#fff700" fill-rule="evenodd"></path><path d="M0.79 -0.9 C9.68 17.02, 42.35 88.99, 51.38 108.29 C60.41 127.6, 50.2 122.23, 54.95 114.91 C59.69 107.59, 71.19 86.8, 79.85 64.37 C88.52 41.95, 105.87 -7.93, 106.94 -19.63 C108.01 -31.33, 93 -11.91, 86.29 -5.81 C79.58 0.29, 73.79 12.82, 66.69 16.97 C59.59 21.13, 55.09 22.43, 43.69 19.13 C32.3 15.82, 5.6 0.82, -1.67 -2.85 M-2.23 -3.86 C6.43 13.26, 38.38 85.52, 48.86 104.61 C59.34 123.7, 55.18 118.15, 60.64 110.68 C66.11 103.21, 74.43 81.48, 81.67 59.82 C88.91 38.15, 102.88 -7.92, 104.06 -19.33 C105.25 -30.73, 94.81 -14.11, 88.77 -8.63 C82.74 -3.16, 74.49 7.82, 67.87 13.53 C61.26 19.24, 60 28.74, 49.09 25.63 C38.17 22.52, 10.22 -0.37, 2.39 -5.15" stroke="#fff700" stroke-width="4" fill="none"></path></g></g><mask></mask><g stroke-linecap="round" transform="translate(453.5711866677502 736.9332154469854) rotate(22.819655697982842 144.91842044653276 76.90639134697182)"><path d="M71.98 10.22 C84.26 5.01, 100.41 2.25, 115.99 0.58 C131.58 -1.08, 148.73 -1.1, 165.5 0.21 C182.27 1.52, 201.94 3.95, 216.6 8.45 C231.27 12.95, 242.79 20.56, 253.49 27.2 C264.19 33.85, 274.73 40.32, 280.8 48.32 C286.87 56.33, 289.55 66.2, 289.92 75.23 C290.29 84.26, 288.18 94.11, 283.01 102.51 C277.83 110.9, 269.28 118.6, 258.84 125.62 C248.41 132.63, 234.85 139.91, 220.41 144.59 C205.96 149.28, 188.37 152.3, 172.19 153.7 C156.02 155.1, 139.27 154.31, 123.36 152.98 C107.45 151.66, 91.33 150.27, 76.73 145.74 C62.13 141.22, 46.96 132.98, 35.76 125.83 C24.55 118.69, 15.5 110.96, 9.5 102.87 C3.5 94.77, 0.27 85.54, -0.25 77.28 C-0.78 69.01, 1.18 61.19, 6.34 53.29 C11.51 45.38, 13.21 38.64, 30.71 29.86 C48.22 21.08, 90.69 5.22, 111.39 0.6 C132.08 -4.02, 154.5 0.92, 154.9 2.15" stroke="#1864ab" stroke-width="4.5" fill="none" stroke-dasharray="8 12"></path></g><g stroke-opacity="0.3" fill-opacity="0.3" stroke-linecap="round" transform="translate(453.05673959021624 735.7770840593012) rotate(22.819655697982842 144.91842044653276 76.90639134697182)"><path d="M221.64 13.99 C236.17 17.45, 251.49 25.23, 261.53 32.08 C271.58 38.92, 277.3 47.3, 281.9 55.07 C286.5 62.84, 289.56 70.37, 289.13 78.69 C288.7 87.02, 285.49 96.77, 279.31 105.02 C273.12 113.27, 263.59 121.35, 252.02 128.2 C240.44 135.06, 224.57 141.83, 209.85 146.17 C195.14 150.5, 180.04 153.15, 163.73 154.23 C147.42 155.32, 128.38 155.02, 111.97 152.68 C95.57 150.33, 79 144.77, 65.31 140.17 C51.62 135.56, 39.39 131.98, 29.84 125.03 C20.29 118.07, 12.68 107.03, 8.01 98.43 C3.34 89.83, 1.46 82.19, 1.81 73.44 C2.16 64.7, 3.7 53.93, 10.1 45.98 C16.49 38.03, 28.92 31.87, 40.19 25.73 C51.46 19.59, 63.31 13.03, 77.73 9.11 C92.16 5.2, 110.38 3.43, 126.75 2.24 C143.11 1.06, 151.36 -4.51, 175.94 2.01 C200.51 8.52, 255.54 27.71, 274.19 41.33 C292.84 54.96, 289.88 83.06, 287.83 83.75" stroke="none" stroke-width="0" fill="#d6138f"></path><path d="M203.35 5.82 C218.98 7.96, 235.1 13.92, 247.41 20.3 C259.71 26.69, 270.35 36.08, 277.18 44.12 C284.02 52.17, 286.95 59.7, 288.41 68.56 C289.86 77.42, 289.79 88.97, 285.92 97.28 C282.05 105.59, 274.25 111.52, 265.18 118.41 C256.12 125.29, 244.86 133.15, 231.53 138.6 C218.2 144.05, 201.1 148.58, 185.2 151.09 C169.29 153.6, 152.88 154.09, 136.11 153.64 C119.33 153.2, 99.94 152.08, 84.54 148.43 C69.15 144.78, 55.08 138.22, 43.72 131.75 C32.37 125.28, 23.43 117.7, 16.4 109.6 C9.38 101.51, 3.75 92.09, 1.58 83.2 C-0.59 74.32, -0.72 64.75, 3.38 56.31 C7.48 47.87, 16.75 39.48, 26.17 32.56 C35.59 25.64, 46.98 19.83, 59.91 14.78 C72.85 9.74, 87.77 5.03, 103.78 2.29 C119.79 -0.45, 129.02 -6.91, 155.98 -1.66 C182.93 3.59, 243.46 21.84, 265.51 33.77 C287.55 45.71, 290.42 69.3, 288.26 69.95" stroke="transparent" stroke-width="4.5" fill="none" stroke-dasharray="8 12"></path></g><g stroke-opacity="0.3" fill-opacity="0.3" stroke-linecap="round" transform="translate(526.0266667761498 758.5502199094439) rotate(22.819655697982842 10.321861512351461 16.621392693547783)"><path d="M7.12 1.8 C8.45 -0.38, 8.95 -2.33, 11.11 -1.27 C13.26 -0.21, 18.15 4.76, 20.06 8.18 C21.98 11.6, 23.12 16.19, 22.58 19.27 C22.05 22.35, 18.83 24.49, 16.86 26.66 C14.9 28.84, 13.1 31.93, 10.79 32.32 C8.48 32.71, 4.61 30.94, 3 29.01 C1.39 27.09, 1.3 23.69, 1.14 20.76 C0.99 17.82, 0.48 14.8, 2.07 11.42 C3.66 8.04, 8.57 1.97, 10.66 0.48 C12.75 -1.02, 14.44 1.97, 14.59 2.44" stroke="none" stroke-width="0" fill="#d6138f"></path><path d="M9.77 -0.24 C12.24 -1.23, 14.22 1.3, 15.82 3.3 C17.42 5.29, 18.49 8.43, 19.38 11.72 C20.26 15.01, 21.39 19.67, 21.12 23.03 C20.85 26.4, 20.03 30.44, 17.75 31.91 C15.47 33.38, 9.69 32.69, 7.42 31.85 C5.14 31.01, 5.1 29.55, 4.1 26.89 C3.11 24.23, 1.69 19.52, 1.45 15.89 C1.22 12.26, 0.95 7.56, 2.69 5.1 C4.43 2.63, 9.87 2, 11.9 1.11 C13.94 0.22, 14.9 -0.61, 14.91 -0.24" stroke="transparent" stroke-width="4.5" fill="none" stroke-dasharray="8 12"></path></g><g stroke-opacity="0.3" fill-opacity="0.3" stroke-linecap="round" transform="translate(543.4428887919594 800.0812108702194) rotate(22.819655697982842 10.321861512351461 16.621392693547783)"><path d="M17.25 7.07 C18.17 9.67, 19.89 13.42, 19.71 17.16 C19.53 20.9, 17.67 26.65, 16.17 29.51 C14.68 32.37, 12.44 34.13, 10.74 34.32 C9.03 34.51, 7.63 32.86, 5.96 30.66 C4.3 28.45, 1.38 24.42, 0.74 21.1 C0.1 17.78, 0.95 13.79, 2.14 10.71 C3.33 7.64, 6.26 4.55, 7.86 2.67 C9.45 0.79, 9.53 -3.86, 11.72 -0.57 C13.91 2.72, 21.19 17.07, 20.99 22.39 C20.78 27.72, 10.78 31.2, 10.49 31.36" stroke="none" stroke-width="0" fill="#d6138f"></path><path d="M16.21 -0.22 C17.65 0.96, 17.93 7.11, 18.4 10.88 C18.87 14.65, 19.71 19.07, 19.04 22.42 C18.36 25.77, 16.25 28.95, 14.36 30.98 C12.46 33.02, 9.37 34.75, 7.66 34.63 C5.95 34.51, 5.56 32.77, 4.1 30.25 C2.64 27.73, -1.02 23.37, -1.11 19.5 C-1.19 15.64, 2.22 10.36, 3.59 7.06 C4.97 3.75, 4.16 -1.43, 7.14 -0.33 C10.12 0.78, 19.37 9.31, 21.49 13.68 C23.62 18.05, 20.58 26.4, 19.9 25.92" stroke="transparent" stroke-width="4.5" fill="none" stroke-dasharray="8 12"></path></g><g stroke-opacity="0.3" fill-opacity="0.3" stroke-linecap="round" transform="translate(547.4620169494538 769.2678949960956) rotate(22.819655697982842 10.321861512351461 16.621392693547783)"><path d="M10.12 0.53 C12.13 -0.11, 14.94 1.8, 16.89 4.03 C18.85 6.26, 21.17 10.91, 21.85 13.91 C22.54 16.92, 22.4 18.9, 20.99 22.05 C19.59 25.21, 15.77 31.36, 13.42 32.84 C11.08 34.33, 9.07 32.03, 6.94 30.97 C4.8 29.92, 1.61 28.94, 0.61 26.52 C-0.39 24.11, 0.33 19.8, 0.94 16.48 C1.56 13.17, 1.88 9.39, 4.29 6.64 C6.7 3.89, 12.81 -0.01, 15.4 -0.03 C17.98 -0.04, 20.09 5.87, 19.8 6.56" stroke="none" stroke-width="0" fill="#d6138f"></path><path d="M3.53 7.73 C4.89 5, 7.76 -0.01, 9.92 -0.72 C12.08 -1.42, 14.85 1.8, 16.5 3.51 C18.16 5.22, 19.38 6.37, 19.85 9.57 C20.32 12.77, 19.72 19.01, 19.32 22.7 C18.92 26.39, 19.11 30.3, 17.45 31.73 C15.78 33.15, 12.06 31.65, 9.31 31.24 C6.56 30.83, 2.31 31.21, 0.94 29.25 C-0.42 27.29, -0.14 24.36, 1.11 19.48 C2.37 14.6, 6.68 3.11, 8.47 -0.01 C10.25 -3.14, 12.12 0.58, 11.83 0.74" stroke="transparent" stroke-width="4.5" fill="none" stroke-dasharray="8 12"></path></g><g stroke-opacity="0.3" fill-opacity="0.3" stroke-linecap="round" transform="translate(516.6487010753299 794.7223733268935) rotate(22.819655697982842 10.321861512351461 16.621392693547783)"><path d="M14.73 3.09 C16.83 5.28, 20.06 9.51, 21.12 13.16 C22.17 16.8, 21.98 22.18, 21.07 24.97 C20.17 27.77, 17.66 28.72, 15.68 29.91 C13.69 31.09, 11.51 32.48, 9.14 32.1 C6.77 31.71, 3.23 30.28, 1.46 27.58 C-0.31 24.88, -1.98 19.83, -1.45 15.9 C-0.92 11.98, 2.81 6.8, 4.64 4.04 C6.47 1.29, 7.59 -1.04, 9.54 -0.65 C11.49 -0.26, 14.98 5.09, 16.32 6.38 C17.67 7.68, 17.23 7.48, 17.6 7.12" stroke="none" stroke-width="0" fill="#d6138f"></path><path d="M16.5 1.14 C17.74 2.93, 17.75 9.55, 18.46 13.64 C19.17 17.72, 21.2 22.77, 20.77 25.65 C20.34 28.53, 18.35 29.84, 15.88 30.94 C13.4 32.03, 8.41 33.27, 5.93 32.23 C3.45 31.2, 2.18 27.45, 1 24.73 C-0.19 22.01, -1.5 19.06, -1.19 15.93 C-0.88 12.8, 0.79 8.48, 2.86 5.95 C4.93 3.43, 8.58 0.6, 11.25 0.77 C13.93 0.95, 17.32 5.11, 18.91 7.02 C20.5 8.93, 20.73 11.98, 20.78 12.26" stroke="transparent" stroke-width="4.5" fill="none" stroke-dasharray="8 12"></path></g><g stroke-opacity="0.3" fill-opacity="0.3" stroke-linecap="round" transform="translate(583.6341703669032 774.6267325394215) rotate(22.819655697982842 10.321861512351461 16.621392693547783)"><path d="M16.97 6.47 C18.83 9.04, 22.02 12.4, 21.94 15.73 C21.86 19.07, 17.95 23.73, 16.49 26.48 C15.04 29.24, 15.05 31.33, 13.2 32.26 C11.35 33.19, 7.74 33.57, 5.39 32.07 C3.04 30.57, -0.48 26.83, -0.92 23.24 C-1.36 19.65, 1.97 14.43, 2.75 10.54 C3.53 6.64, 2.27 1.38, 3.77 -0.12 C5.28 -1.62, 9.24 -1, 11.76 1.53 C14.27 4.07, 17.77 11.48, 18.86 15.1 C19.95 18.71, 18.26 23.37, 18.31 23.23" stroke="none" stroke-width="0" fill="#d6138f"></path><path d="M16.51 6.3 C17.71 8.57, 19.75 10.41, 19.89 13.83 C20.04 17.25, 18.41 23.43, 17.38 26.81 C16.34 30.18, 15.4 32.98, 13.68 34.06 C11.95 35.14, 9.04 35.34, 7.03 33.28 C5.02 31.23, 2.5 25.41, 1.6 21.74 C0.7 18.07, 1.22 14.25, 1.62 11.27 C2.02 8.29, 2.62 5.66, 4.01 3.85 C5.41 2.03, 6.98 -2.42, 9.98 0.36 C12.97 3.14, 21.53 15.27, 21.97 20.52 C22.41 25.77, 13.27 31.45, 12.62 31.86" stroke="transparent" stroke-width="4.5" fill="none" stroke-dasharray="8 12"></path></g><g stroke-opacity="0.3" fill-opacity="0.3" stroke-linecap="round" transform="translate(567.5576577369256 788.0238263977361) rotate(22.819655697982842 10.321861512351461 16.621392693547783)"><path d="M2.78 4.62 C4.77 1.77, 9.08 -1.58, 11.71 -1.39 C14.35 -1.2, 17.07 3.56, 18.59 5.76 C20.1 7.96, 21.02 8.76, 20.81 11.8 C20.6 14.83, 18.29 20.85, 17.33 23.98 C16.37 27.12, 16.55 29.48, 15.05 30.58 C13.54 31.68, 10.25 31.56, 8.3 30.58 C6.34 29.6, 4.63 27.35, 3.33 24.68 C2.02 22.02, 0.35 18.51, 0.45 14.59 C0.55 10.66, 2.86 3.13, 3.92 1.14 C4.98 -0.85, 6.45 2.39, 6.81 2.64" stroke="none" stroke-width="0" fill="#d6138f"></path><path d="M5.5 4.5 C7.35 2.3, 11.02 0.54, 12.75 0.76 C14.48 0.98, 14.69 3.57, 15.88 5.81 C17.07 8.06, 19.21 11.13, 19.89 14.22 C20.57 17.32, 21.02 21.01, 19.95 24.38 C18.89 27.74, 15.97 33.08, 13.48 34.4 C10.99 35.71, 7.21 34.16, 5.01 32.25 C2.82 30.33, 0.79 26.3, 0.31 22.89 C-0.17 19.49, 1.27 14.99, 2.13 11.84 C3 8.68, 5.03 5.96, 5.5 3.94 C5.97 1.93, 5.17 -0.16, 4.96 -0.24" stroke="transparent" stroke-width="4.5" fill="none" stroke-dasharray="8 12"></path></g><g stroke-opacity="0.3" fill-opacity="0.3" stroke-linecap="round" transform="translate(532.7252137053074 766.5884762244327) rotate(22.819655697982842 10.321861512351461 16.621392693547783)"><path d="M16.89 6.44 C18.31 9.16, 21.37 13.29, 21.72 16.69 C22.06 20.09, 20.4 24.15, 18.95 26.84 C17.49 29.53, 15.37 32.18, 12.98 32.84 C10.59 33.51, 6.88 33.06, 4.59 30.83 C2.3 28.6, -0.21 22.84, -0.76 19.45 C-1.32 16.07, 0.02 13.73, 1.25 10.54 C2.49 7.35, 4.37 1.7, 6.67 0.32 C8.96 -1.06, 12.48 -0.47, 15.04 2.26 C17.6 5, 21.64 12.36, 22.04 16.72 C22.43 21.08, 17.79 28.63, 17.41 28.42" stroke="none" stroke-width="0" fill="#d6138f"></path><path d="M17.23 1.47 C19.19 3.61, 20.32 10.28, 20.54 14.02 C20.76 17.77, 19.64 21.19, 18.55 23.94 C17.46 26.7, 15.49 29.23, 13.99 30.55 C12.5 31.86, 11.54 32.27, 9.56 31.86 C7.58 31.45, 3.96 31.15, 2.11 28.09 C0.26 25.04, -1.43 17.41, -1.54 13.54 C-1.66 9.67, -0.63 7.39, 1.41 4.87 C3.44 2.34, 8.19 -1.38, 10.66 -1.61 C13.13 -1.84, 14.62 2.11, 16.22 3.47 C17.81 4.83, 20.01 5.88, 20.24 6.56" stroke="transparent" stroke-width="4.5" fill="none" stroke-dasharray="8 12"></path></g><g stroke-opacity="0.3" fill-opacity="0.3" stroke-linecap="round" transform="translate(527.366376161981 785.3444076260733) rotate(22.819655697982842 10.321861512351461 16.621392693547783)"><path d="M4.75 4.81 C5.91 2.62, 7.78 1.38, 9.48 0.84 C11.18 0.29, 13.12 -0.5, 14.95 1.54 C16.78 3.58, 19.55 9.65, 20.45 13.08 C21.35 16.51, 20.96 18.79, 20.35 22.13 C19.75 25.47, 18.66 31.47, 16.82 33.14 C14.97 34.82, 11.9 33.03, 9.3 32.18 C6.71 31.33, 2.76 31.1, 1.24 28.04 C-0.29 24.98, -1.28 18.49, 0.15 13.8 C1.58 9.11, 7.08 1.58, 9.81 -0.12 C12.54 -1.83, 17.03 3.24, 16.54 3.57" stroke="none" stroke-width="0" fill="#d6138f"></path><path d="M17.71 5.33 C19.61 7.66, 22.4 12.35, 22.48 16.4 C22.55 20.44, 20.23 27.13, 18.18 29.61 C16.12 32.1, 12.64 31.17, 10.16 31.33 C7.67 31.5, 4.66 32.49, 3.27 30.61 C1.87 28.72, 2.46 23.65, 1.81 20.04 C1.16 16.42, -1.53 12.1, -0.65 8.94 C0.23 5.78, 4.77 2.26, 7.07 1.08 C9.37 -0.11, 11.17 -0.34, 13.14 1.84 C15.12 4.02, 17.41 11.23, 18.93 14.17 C20.45 17.12, 22.5 20.06, 22.26 19.52" stroke="transparent" stroke-width="4.5" fill="none" stroke-dasharray="8 12"></path></g><g stroke-opacity="0.3" fill-opacity="0.3" stroke-linecap="round" transform="translate(542.1031794061264 796.062082712725) rotate(22.819655697982842 10.321861512351461 16.621392693547783)"><path d="M6.15 2.04 C7.4 0.02, 8.88 1.43, 10.86 1.68 C12.84 1.94, 16.21 1.27, 18.04 3.57 C19.87 5.87, 21.51 11.39, 21.86 15.48 C22.21 19.58, 22.01 25.26, 20.15 28.15 C18.28 31.04, 13.3 32.02, 10.69 32.83 C8.08 33.63, 6.24 34.96, 4.46 33 C2.68 31.04, 0.82 24.68, 0 21.05 C-0.82 17.42, -2.4 14.9, -0.44 11.22 C1.53 7.54, 8.27 -0.32, 11.79 -1.03 C15.31 -1.75, 20.69 6.16, 20.69 6.93" stroke="none" stroke-width="0" fill="#d6138f"></path><path d="M8.46 -1.4 C10.59 -1.62, 16.08 -0.07, 18.17 2.58 C20.27 5.23, 21.06 10.59, 21.05 14.49 C21.03 18.39, 18.89 23.01, 18.09 25.98 C17.29 28.95, 18.34 31.56, 16.22 32.32 C14.11 33.07, 7.98 31.45, 5.4 30.51 C2.83 29.57, 1.93 29.12, 0.78 26.68 C-0.38 24.25, -1.68 19.29, -1.53 15.89 C-1.39 12.49, -0.42 8.86, 1.64 6.28 C3.71 3.69, 8.91 1.48, 10.84 0.37 C12.76 -0.74, 13.35 -0.64, 13.19 -0.38" stroke="transparent" stroke-width="4.5" fill="none" stroke-dasharray="8 12"></path></g><g stroke-opacity="0.3" fill-opacity="0.3" stroke-linecap="round" transform="translate(550.1414357211152 805.4400484135452) rotate(22.819655697982842 10.321861512351461 16.621392693547783)"><path d="M17.77 4 C19.34 6.49, 22.42 11.15, 22.23 14.74 C22.05 18.33, 18.32 22.7, 16.66 25.55 C15.01 28.39, 14.39 30.53, 12.32 31.79 C10.25 33.06, 6.42 34.67, 4.25 33.13 C2.09 31.59, -0.3 26.11, -0.68 22.56 C-1.07 19.01, 0.76 15.37, 1.95 11.86 C3.13 8.34, 4.74 3.5, 6.42 1.47 C8.1 -0.56, 9.78 -2.11, 12.04 -0.3 C14.3 1.51, 18.62 8.54, 20 12.33 C21.39 16.12, 20.13 22.25, 20.35 22.46" stroke="none" stroke-width="0" fill="#d6138f"></path><path d="M16.89 6.44 C18.31 9.16, 21.37 13.29, 21.72 16.69 C22.06 20.09, 20.4 24.15, 18.95 26.84 C17.49 29.53, 15.37 32.18, 12.98 32.84 C10.59 33.51, 6.88 33.06, 4.59 30.83 C2.3 28.6, -0.21 22.84, -0.76 19.45 C-1.32 16.07, 0.02 13.73, 1.25 10.54 C2.49 7.35, 4.37 1.7, 6.67 0.32 C8.96 -1.06, 12.48 -0.47, 15.04 2.26 C17.6 5, 21.64 12.36, 22.04 16.72 C22.43 21.08, 17.79 28.63, 17.41 28.42" stroke="transparent" stroke-width="4.5" fill="none" stroke-dasharray="8 12"></path></g><g stroke-opacity="0.3" fill-opacity="0.3" stroke-linecap="round" transform="translate(560.8591108077662 757.2105105236125) rotate(22.819655697982842 10.321861512351461 16.621392693547783)"><path d="M10.34 -0.37 C12.06 -0.67, 14.36 0.3, 16.11 2.59 C17.86 4.88, 19.94 9.75, 20.84 13.37 C21.73 17, 22.68 21.45, 21.49 24.32 C20.3 27.18, 15.79 29.25, 13.68 30.57 C11.57 31.89, 11.05 33.03, 8.81 32.24 C6.57 31.45, 1.87 28.53, 0.26 25.81 C-1.36 23.08, -1.55 19.62, -0.86 15.91 C-0.17 12.21, 1.12 5.72, 4.39 3.59 C7.66 1.46, 15.92 1.38, 18.76 3.13 C21.6 4.88, 21.58 14.1, 21.44 14.09" stroke="none" stroke-width="0" fill="#d6138f"></path><path d="M17.88 4.35 C19.85 6.12, 21.42 7.83, 21.61 11.23 C21.8 14.62, 20.11 21.65, 19.03 24.72 C17.95 27.8, 16.74 28.39, 15.1 29.68 C13.46 30.96, 11.09 32.72, 9.19 32.44 C7.28 32.17, 5.51 30.82, 3.67 28.03 C1.82 25.23, -1.55 19.21, -1.88 15.68 C-2.21 12.15, -0.02 9.78, 1.68 6.85 C3.37 3.93, 5.56 -1.94, 8.3 -1.87 C11.05 -1.79, 16.31 4.85, 18.16 7.33 C20 9.8, 19.11 13.03, 19.38 12.99" stroke="transparent" stroke-width="4.5" fill="none" stroke-dasharray="8 12"></path></g><g stroke-opacity="0.3" fill-opacity="0.3" stroke-linecap="round" transform="translate(574.2562046660805 802.7606296418824) rotate(22.819655697982842 10.321861512351461 16.621392693547783)"><path d="M17.55 8.82 C18.75 11.39, 20.29 13.82, 20.3 16.95 C20.3 20.09, 18.91 24.76, 17.57 27.66 C16.24 30.55, 14.67 33.6, 12.3 34.33 C9.92 35.06, 5.42 34.12, 3.33 32.03 C1.24 29.93, 0.14 25.24, -0.23 21.75 C-0.6 18.27, 0.4 14.81, 1.13 11.11 C1.87 7.41, 2.25 1.2, 4.2 -0.47 C6.15 -2.13, 10.12 -1.86, 12.84 1.13 C15.57 4.11, 19.72 12.83, 20.54 17.45 C21.36 22.08, 17.71 28.77, 17.76 28.87" stroke="none" stroke-width="0" fill="#d6138f"></path><path d="M10.64 1.65 C13.28 1.14, 17.25 0.71, 18.91 2.72 C20.57 4.72, 20.3 9.96, 20.57 13.69 C20.84 17.41, 22.07 22.06, 20.52 25.06 C18.96 28.05, 13.7 30.71, 11.23 31.67 C8.76 32.64, 7.66 31.88, 5.71 30.86 C3.77 29.85, 0.72 28.73, -0.44 25.58 C-1.6 22.42, -2.29 15.66, -1.26 11.92 C-0.23 8.17, 2.29 4.48, 5.75 3.11 C9.22 1.73, 16.99 1.6, 19.53 3.66 C22.08 5.73, 21.52 15.21, 21.02 15.51" stroke="transparent" stroke-width="4.5" fill="none" stroke-dasharray="8 12"></path></g><g stroke-opacity="0.3" fill-opacity="0.3" stroke-linecap="round" transform="translate(586.3135891385637 821.5165610435229) rotate(22.819655697982842 10.321861512351461 16.621392693547783)"><path d="M9.73 1.72 C11.95 1.11, 15.26 0.51, 17.03 1.84 C18.8 3.17, 19.69 6.41, 20.36 9.71 C21.02 13, 22.01 17.76, 21.02 21.61 C20.03 25.45, 16.7 31.11, 14.43 32.77 C12.16 34.42, 9.73 32.5, 7.39 31.52 C5.04 30.54, 1.71 29.36, 0.37 26.88 C-0.98 24.41, -0.89 20.5, -0.68 16.66 C-0.46 12.81, -0.63 6.25, 1.66 3.82 C3.94 1.4, 10.66 2.2, 13.03 2.09 C15.39 1.98, 15.79 2.95, 15.84 3.17" stroke="none" stroke-width="0" fill="#d6138f"></path><path d="M16.48 6.64 C18.25 8.51, 21.59 11.36, 21.86 14.67 C22.12 17.98, 19.87 23.81, 18.05 26.51 C16.24 29.22, 13.13 30.25, 10.98 30.9 C8.84 31.54, 6.98 31.53, 5.16 30.38 C3.34 29.23, 0.87 27.35, 0.06 23.97 C-0.75 20.59, -0.4 13.75, 0.32 10.11 C1.03 6.46, 2.4 3.62, 4.34 2.1 C6.28 0.58, 9.16 -0.75, 11.97 0.98 C14.78 2.72, 20.07 9.46, 21.19 12.51 C22.3 15.55, 19.3 19.25, 18.69 19.24" stroke="transparent" stroke-width="4.5" fill="none" stroke-dasharray="8 12"></path></g><g stroke-opacity="0.3" fill-opacity="0.3" stroke-linecap="round" transform="translate(625.2147264566984 783.8868174471306) rotate(57.9946167919204 8.262732304581732 23.437820415816034)"><path d="M7.47 -1.25 C9.1 -2.78, 9.02 -0.94, 10.51 1.93 C12 4.8, 15.58 11, 16.4 15.99 C17.23 20.99, 15.99 27.38, 15.45 31.89 C14.91 36.39, 14.46 40.26, 13.17 43.03 C11.89 45.79, 9.85 48.74, 7.73 48.49 C5.62 48.24, 1.76 45.27, 0.5 41.53 C-0.77 37.79, 0.08 31.52, 0.14 26.06 C0.2 20.6, -1.23 12.88, 0.87 8.77 C2.97 4.66, 10 0.57, 12.75 1.37 C15.51 2.18, 17.69 12.9, 17.39 13.6" stroke="none" stroke-width="0" fill="#d6138f"></path><path d="M15.9 6.81 C17.05 10.39, 15.38 17.54, 15.36 22.52 C15.34 27.5, 16.79 32.76, 15.79 36.67 C14.79 40.57, 11.53 44.79, 9.36 45.94 C7.19 47.1, 4.02 46.17, 2.8 43.58 C1.58 40.98, 2.73 35.4, 2.05 30.36 C1.36 25.33, -1.45 17.67, -1.31 13.36 C-1.16 9.06, 0.84 6.68, 2.9 4.54 C4.96 2.4, 8.55 -3.86, 11.05 0.52 C13.55 4.9, 17.79 23.13, 17.89 30.8 C17.99 38.48, 12.23 46.89, 11.65 46.57" stroke="transparent" stroke-width="4.5" fill="none" stroke-dasharray="8 12"></path></g><g stroke-opacity="0.3" fill-opacity="0.3" stroke-linecap="round" transform="translate(622.1591863869671 783.0802342997572) rotate(122.15229514127823 0.6005972876619126 46.34960842940864)"><path d="M1.82 15.6 C2.37 21.99, 2.12 34.71, 2.19 43.63 C2.25 52.55, 2.56 61.36, 2.24 69.11 C1.92 76.87, 0.59 86.33, 0.25 90.16 C-0.09 93.99, 0.34 94.2, 0.2 92.1 C0.06 90, -0.26 84.23, -0.59 77.58 C-0.92 70.94, -1.82 61.52, -1.79 52.23 C-1.77 42.95, -0.53 30.25, -0.45 21.85 C-0.37 13.46, -1.2 5.41, -1.31 1.88 C-1.43 -1.66, -1.55 -3.72, -1.13 0.62 C-0.72 4.97, 1.03 20.11, 1.17 27.94 C1.31 35.77, -0.17 47.02, -0.29 47.61" stroke="none" stroke-width="0" fill="#d6138f"></path><path d="M2.91 18.08 C2.67 23.97, 0.11 33.58, -0.05 42.36 C-0.21 51.14, 1.97 63, 1.96 70.74 C1.95 78.49, 0.3 85.26, -0.09 88.85 C-0.48 92.44, -0.56 94.6, -0.37 92.29 C-0.18 89.98, 1.07 82.18, 1.05 74.98 C1.03 67.78, -0.49 58.17, -0.51 49.08 C-0.54 39.98, 0.95 27.88, 0.89 20.41 C0.84 12.93, -0.6 7.15, -0.84 4.24 C-1.09 1.34, -0.65 -1.88, -0.58 2.98 C-0.51 7.83, -0.69 24.45, -0.43 33.39 C-0.17 42.33, 1.04 56.07, 0.97 56.63" stroke="transparent" stroke-width="4.5" fill="none" stroke-dasharray="8 12"></path></g><g stroke-opacity="0.3" fill-opacity="0.3" stroke-linecap="round" transform="translate(605.0695205402044 826.8753985868487) rotate(22.819655697982842 10.321861512351461 16.621392693547783)"><path d="M4.29 -0.21 C5.8 -1.86, 10.06 -1.24, 12.49 -0.22 C14.93 0.8, 17.86 2.85, 18.89 5.89 C19.93 8.93, 18.59 14.38, 18.69 18.02 C18.79 21.67, 20.7 25.09, 19.47 27.75 C18.25 30.42, 13.59 33.86, 11.34 34.03 C9.1 34.2, 7.72 30.57, 6 28.78 C4.28 26.98, 1.68 26.25, 1.02 23.28 C0.36 20.31, 0.34 14.68, 2.06 10.96 C3.77 7.25, 9.44 2.81, 11.31 0.99 C13.17 -0.83, 13.3 -0.35, 13.25 0.04" stroke="none" stroke-width="0" fill="#d6138f"></path><path d="M9.8 0.02 C11.78 -0.69, 12.6 -0.05, 14.24 1.84 C15.88 3.74, 18.56 7.75, 19.65 11.38 C20.74 15.02, 21.28 20.65, 20.79 23.65 C20.3 26.66, 18.5 28.13, 16.69 29.41 C14.89 30.69, 12.23 31.96, 9.96 31.33 C7.69 30.7, 4.7 28.17, 3.06 25.63 C1.43 23.08, 0.15 19.59, 0.13 16.05 C0.12 12.51, 1.23 6.8, 2.95 4.38 C4.68 1.97, 9.04 2.33, 10.48 1.57 C11.92 0.81, 11.71 0.04, 11.6 -0.18" stroke="transparent" stroke-width="4.5" fill="none" stroke-dasharray="8 12"></path></g><g stroke-opacity="0.3" fill-opacity="0.3" stroke-linecap="round" transform="translate(642.581383343485 800.0812108702194) rotate(22.819655697982842 10.321861512351461 16.621392693547783)"><path d="M7.89 0.64 C10.15 0.15, 16.09 2.06, 18.32 4.36 C20.56 6.67, 20.94 11.21, 21.31 14.47 C21.68 17.74, 21.82 20.82, 20.53 23.96 C19.24 27.1, 15.48 31.86, 13.57 33.31 C11.67 34.77, 11.19 34.02, 9.08 32.69 C6.98 31.36, 2.45 28.2, 0.95 25.32 C-0.54 22.44, -0.49 18.91, 0.1 15.41 C0.7 11.9, 2.19 6.52, 4.55 4.29 C6.91 2.06, 11.59 1.05, 14.25 2.01 C16.92 2.97, 20.34 9.54, 20.54 10.05" stroke="none" stroke-width="0" fill="#d6138f"></path><path d="M16.17 5.06 C17.96 7.27, 20.09 12, 20.29 15.7 C20.49 19.4, 18.35 24.22, 17.38 27.29 C16.41 30.36, 16.44 33.35, 14.45 34.12 C12.45 34.9, 7.89 33.52, 5.4 31.93 C2.91 30.35, 0.48 28.05, -0.51 24.61 C-1.5 21.18, -1.65 15.09, -0.55 11.31 C0.55 7.53, 4.35 4.16, 6.08 1.96 C7.81 -0.24, 7.79 -2.58, 9.85 -1.88 C11.9 -1.19, 16.8 4.46, 18.42 6.14 C20.04 7.83, 19.98 7.9, 19.56 8.24" stroke="transparent" stroke-width="4.5" fill="none" stroke-dasharray="8 12"></path></g><g stroke-opacity="0.3" fill-opacity="0.3" stroke-linecap="round" transform="translate(602.3901017685412 747.8325448227922) rotate(22.819655697982842 10.321861512351461 16.621392693547783)"><path d="M5.66 1.05 C7.11 -0.96, 9.74 -0.7, 11.97 0.45 C14.2 1.6, 17.65 5.32, 19.03 7.93 C20.41 10.54, 20.47 12.6, 20.25 16.1 C20.02 19.61, 19.02 26.05, 17.66 28.95 C16.3 31.85, 13.99 33.42, 12.06 33.52 C10.14 33.61, 8.02 31.81, 6.12 29.52 C4.22 27.24, 1.54 23.22, 0.66 19.82 C-0.21 16.43, -0.92 12.15, 0.88 9.16 C2.68 6.17, 8.72 2.76, 11.47 1.87 C14.22 0.98, 17.48 4.07, 17.38 3.82" stroke="none" stroke-width="0" fill="#d6138f"></path><path d="M8.77 -0.38 C10.57 -0.93, 12.17 1.8, 13.82 3.24 C15.48 4.68, 17.96 5.34, 18.71 8.27 C19.46 11.19, 18.85 17.07, 18.32 20.79 C17.78 24.51, 17.14 28.83, 15.5 30.57 C13.87 32.31, 10.53 31.34, 8.5 31.23 C6.48 31.13, 4.81 32.2, 3.35 29.96 C1.89 27.72, -0.19 21.41, -0.28 17.81 C-0.37 14.22, 0.02 10.28, 2.81 8.37 C5.59 6.47, 13.33 3.74, 16.45 6.39 C19.58 9.04, 21.24 23.87, 21.55 24.27" stroke="transparent" stroke-width="4.5" fill="none" stroke-dasharray="8 12"></path></g><g stroke-opacity="0.3" fill-opacity="0.3" stroke-linecap="round" transform="translate(615.7871956268555 770.6076043819272) rotate(22.819655697982842 10.321861512351461 16.621392693547783)"><path d="M4.6 3.67 C6.48 1.12, 10.15 -0.92, 12.32 -1.07 C14.49 -1.21, 16.23 0.34, 17.62 2.8 C19.01 5.26, 20.53 9.56, 20.67 13.67 C20.8 17.78, 19.69 24.55, 18.42 27.46 C17.15 30.37, 15.25 30.63, 13.05 31.11 C10.86 31.6, 7.31 31.8, 5.24 30.37 C3.17 28.94, 1.17 25.32, 0.63 22.54 C0.08 19.76, 0.57 17.27, 1.96 13.67 C3.36 10.07, 7.07 2.95, 8.98 0.93 C10.88 -1.09, 13.44 1.59, 13.37 1.56" stroke="none" stroke-width="0" fill="#d6138f"></path><path d="M8.23 -1.81 C10.47 -2.2, 14.39 2.12, 16.33 4.36 C18.28 6.6, 19.15 8.28, 19.88 11.64 C20.61 15, 21.81 21.12, 20.72 24.51 C19.62 27.91, 15.09 30.45, 13.29 32.04 C11.5 33.62, 11.64 34.6, 9.93 34.01 C8.22 33.42, 4.54 31.53, 3.04 28.5 C1.55 25.46, 1.14 19.41, 0.94 15.8 C0.74 12.18, 0.07 9.4, 1.83 6.78 C3.58 4.17, 10.13 1.27, 11.46 0.1 C12.8 -1.08, 10.08 -0.61, 9.83 -0.27" stroke="transparent" stroke-width="4.5" fill="none" stroke-dasharray="8 12"></path></g><g stroke-opacity="0.3" fill-opacity="0.3" stroke-linecap="round" transform="translate(635.8828364143283 850.9901675318152) rotate(22.819655697982842 10.321861512351461 16.621392693547783)"><path d="M18.88 3.96 C20.13 6.26, 20.31 11.52, 20.08 15.09 C19.86 18.66, 18.65 22.65, 17.53 25.38 C16.4 28.12, 15.36 30.65, 13.33 31.5 C11.31 32.35, 7.71 31.61, 5.36 30.49 C3 29.37, -0.24 27.94, -0.81 24.77 C-1.38 21.6, 0.71 14.89, 1.94 11.49 C3.16 8.08, 5.02 6.12, 6.52 4.34 C8.01 2.55, 9.08 0.5, 10.9 0.78 C12.73 1.07, 16.03 4.63, 17.46 6.04 C18.9 7.46, 19.23 8.78, 19.5 9.27" stroke="none" stroke-width="0" fill="#d6138f"></path><path d="M5.66 1.05 C7.11 -0.96, 9.74 -0.7, 11.97 0.45 C14.2 1.6, 17.65 5.32, 19.03 7.93 C20.41 10.54, 20.47 12.6, 20.25 16.1 C20.02 19.61, 19.02 26.05, 17.66 28.95 C16.3 31.85, 13.99 33.42, 12.06 33.52 C10.14 33.61, 8.02 31.81, 6.12 29.52 C4.22 27.24, 1.54 23.22, 0.66 19.82 C-0.21 16.43, -0.92 12.15, 0.88 9.16 C2.68 6.17, 8.72 2.76, 11.47 1.87 C14.22 0.98, 17.48 4.07, 17.38 3.82" stroke="transparent" stroke-width="4.5" fill="none" stroke-dasharray="8 12"></path></g><g stroke-opacity="0.3" fill-opacity="0.3" stroke-linecap="round" transform="translate(672.0549898317777 818.8371422718601) rotate(22.819655697982842 10.321861512351461 16.621392693547783)"><path d="M13.32 0.77 C15.61 1.5, 18.38 3.39, 19.88 6.53 C21.38 9.66, 22.46 15.95, 22.3 19.58 C22.14 23.2, 20.7 26.31, 18.91 28.28 C17.11 30.24, 13.92 30.82, 11.53 31.36 C9.14 31.9, 6.27 33.11, 4.58 31.53 C2.88 29.96, 1.75 25.71, 1.35 21.89 C0.96 18.08, 1.55 11.89, 2.22 8.65 C2.89 5.4, 2.86 3.73, 5.39 2.42 C7.92 1.12, 15.41 0.25, 17.39 0.82 C19.38 1.38, 17.47 5.05, 17.32 5.81" stroke="none" stroke-width="0" fill="#d6138f"></path><path d="M10.34 -0.37 C12.06 -0.67, 14.36 0.3, 16.11 2.59 C17.86 4.88, 19.94 9.75, 20.84 13.37 C21.73 17, 22.68 21.45, 21.49 24.32 C20.3 27.18, 15.79 29.25, 13.68 30.57 C11.57 31.89, 11.05 33.03, 8.81 32.24 C6.57 31.45, 1.87 28.53, 0.26 25.81 C-1.36 23.08, -1.55 19.62, -0.86 15.91 C-0.17 12.21, 1.12 5.72, 4.39 3.59 C7.66 1.46, 15.92 1.38, 18.76 3.13 C21.6 4.88, 21.58 14.1, 21.44 14.09" stroke="transparent" stroke-width="4.5" fill="none" stroke-dasharray="8 12"></path></g><g stroke-linecap="round"><g transform="translate(591.6040548249612 352.3737666338116) rotate(0 -62.30688128280872 316.6732097516941)"><path d="M3.24 1.67 C-22.28 63.71, -50.51 132.16, -77.82 181.12 M-82.01 182.64 C-54.94 208.4, -29.4 239.09, -12.9 270.62 M-10.97 268.44 C33.92 243.28, 86.88 214.72, 140.18 188.33 M144.8 186.4 C123.66 222.72, 105.75 262.86, 57.85 354.69 M59.1 358.62 C-4.38 329.85, -63.99 305.6, -230.15 227.62 M-228.39 229.67 C-211.68 192.17, -186.55 164.27, -128.02 68.48 M-125.46 69.22 C-165.31 179.7, -198.28 293.06, -253.02 471.57 M-255.26 469.69 C-296.76 462.68, -340.89 443.83, -364.03 439.95 M-359.08 437.05 C-278.69 457.88, -191.13 471.31, -121.68 480.61 M-121.26 479.5 C-157.47 509.86, -198.87 539.67, -217.91 560.9 M-224.02 557.36 C-173.17 573.28, -121.46 597.31, -75.07 609.66 M-76.21 609.64 C-1.66 539.07, 74.55 468.78, 211.85 337.58 M214.39 337.1 C120.02 367.38, 24.71 395.76, -174.28 450.75 M-171.29 449.32 C-220.51 413.52, -269.1 376.97, -364.94 302.83 M-367.12 305.61 C-299.5 269.51, -227.24 234.7, -146.8 195.6 M-146.17 195.45 C-106.67 296.18, -67.14 401.81, -23.96 519.36 M-23.75 522.97 C-10.26 555.44, 1.43 593.85, 15.03 627.37 M19.42 631.68 C52.45 584.82, 94.28 535.01, 196.96 403.94 M194.85 402.79 C201.08 399.64, 216.82 402.5, 242.5 400.13" stroke="#d9480f" stroke-width="4.5" fill="none" stroke-dasharray="8 12"></path></g><g transform="translate(591.6040548249612 352.3737666338116) rotate(0 -62.30688128280872 316.6732097516941)"><path d="M239 398.47 L231.78 407.91 L231.09 390.7 L239.69 398.35" stroke="none" stroke-width="0" fill="#d9480f" fill-rule="evenodd"></path><path d="M244.93 401.38 C240 400.96, 235.56 405.16, 229.9 407.1 M227.14 408.07 C229.68 401.77, 231.07 397.77, 228.55 396.65 M229.99 395.42 C230.84 397.17, 238.26 397.23, 241.95 402.76 M242.5 400.13 C242.5 400.13, 242.5 400.13, 242.5 400.13" stroke="#d9480f" stroke-width="4.5" fill="none"></path></g></g><mask></mask><g stroke-linecap="round"><g transform="translate(1542.1319319084869 1369.2714567368016) rotate(342.19722198078694 33.25363937796237 31.552822539090528)" fill-rule="evenodd"><path d="M1.28 -0.92 L37.16 73.13 L66.85 -17.24 L45.39 8.58 L40.46 17.99 L25.85 9.62 L0.92 -4.49" stroke="none" stroke-width="0" fill="#4c6ef5" fill-rule="evenodd"></path><path d="M-2.38 0.72 C3.08 11.71, 28.28 55.88, 34.9 68.05 C41.52 80.21, 35.04 78.77, 37.35 73.71 C39.65 68.64, 43.2 52.04, 48.73 37.67 C54.26 23.29, 69.59 -6.02, 70.54 -12.55 C71.48 -19.09, 59.21 -5.84, 54.38 -1.53 C49.54 2.79, 45.99 10.45, 41.52 13.34 C37.06 16.23, 34.54 18.81, 27.58 15.81 C20.63 12.81, 4.56 -1.46, -0.2 -4.65 M1.53 -1.36 C6.56 9.93, 27.78 59.99, 33.51 71.7 C39.24 83.42, 33.39 74.36, 35.93 68.95 C38.46 63.53, 43.28 52.71, 48.7 39.22 C54.12 25.73, 67.13 -4.95, 68.44 -11.99 C69.75 -19.03, 60.97 -6.91, 56.58 -3.02 C52.2 0.86, 46.03 8.13, 42.1 11.31 C38.17 14.5, 40.7 17.98, 33 16.06 C25.31 14.15, 1.34 3.26, -4.08 -0.19" stroke="#4c6ef5" stroke-width="4" fill="none"></path></g></g><mask></mask><g stroke-linecap="round"><g transform="translate(1415.4671990435436 1304.318570441011) rotate(21.56378408498542 88.12857738599314 22.603753653045004)" fill-rule="evenodd"><path d="M3.77 -1.02 L95.34 6.54 L130.72 23.19 L163.4 58.4 L168.61 58.78 L174.94 52.24 L181.65 42.72 L174.85 39.89 L160.68 17.37 L146.8 2.82 L130.48 2.44 L81.47 -13.64 L8.88 -15.33 L6.93 -12.77 L4.73 -7.6 L-0.96 3.36" stroke="none" stroke-width="0" fill="#4c6ef5" fill-rule="evenodd"></path><path d="M1.56 0.05 C14.43 1.41, 59.6 7.86, 74.83 8.87 C90.07 9.88, 85.19 4.76, 92.97 6.11 C100.75 7.47, 114.23 12.81, 121.52 17.01 C128.82 21.21, 129.98 24.18, 136.73 31.34 C143.47 38.5, 155.37 57.31, 161.98 59.98 C168.59 62.65, 177.14 55.39, 176.38 47.36 C175.63 39.33, 165.06 19.92, 157.46 11.8 C149.86 3.68, 143.47 2.41, 130.79 -1.38 C118.11 -5.18, 101.29 -8.64, 81.38 -10.96 C61.46 -13.27, 23.63 -14.96, 11.27 -15.26 C-1.08 -15.56, 8.87 -15, 7.25 -12.76 C5.62 -10.52, 2.32 -4.38, 1.5 -1.85 M-1.04 -2.39 C11.74 -1.93, 57.72 2.86, 72.98 4.62 C88.25 6.39, 83.58 5.73, 90.55 8.17 C97.53 10.61, 106.48 15.08, 114.84 19.25 C123.21 23.43, 132.51 26.65, 140.77 33.22 C149.02 39.79, 158.32 56.67, 164.38 58.68 C170.43 60.68, 178.65 53.34, 177.1 45.24 C175.56 37.14, 162.1 18.43, 155.1 10.08 C148.11 1.73, 147.03 -1.12, 135.13 -4.86 C123.22 -8.6, 104.13 -10.82, 83.67 -12.37 C63.21 -13.93, 24.3 -15.18, 12.38 -14.2 C0.45 -13.21, 13.71 -9.46, 12.12 -6.46 C10.53 -3.45, 4.56 2.21, 2.86 3.84" stroke="#4c6ef5" stroke-width="4" fill="none"></path></g></g><mask></mask><g stroke-linecap="round"><g transform="translate(1491.0461443171444 1134.2768338166263) rotate(317.6739916953915 32.34259916307656 30.56793741032567)" fill-rule="evenodd"><path d="M1.77 1.07 L33.5 77.25 L66.32 -17.04 L40.58 12.81 L38.45 16.42 L24.6 7.64 L0.88 -0.53" stroke="none" stroke-width="0" fill="#fd7e14" fill-rule="evenodd"></path><path d="M1.73 1.91 C7.53 13.72, 29.77 57.22, 35.47 68.99 C41.17 80.76, 33.95 77.1, 35.92 72.53 C37.88 67.96, 41.73 55.19, 47.26 41.57 C52.78 27.96, 67.51 -1.42, 69.05 -9.14 C70.59 -16.86, 60.43 -7.87, 56.49 -4.76 C52.56 -1.65, 49.77 6.24, 45.46 9.52 C41.16 12.8, 38.3 17.28, 30.65 14.93 C22.99 12.58, 4.26 -1.91, -0.49 -4.57 M-0.77 0.47 C4.78 11.59, 28.64 51.97, 34.39 64.52 C40.13 77.07, 31.71 80.42, 33.72 75.76 C35.73 71.11, 41.03 51.79, 46.43 36.61 C51.84 21.42, 63.91 -9.38, 66.15 -15.37 C68.39 -21.37, 64.29 -4.27, 59.85 0.64 C55.42 5.54, 44.68 11.72, 39.55 14.06 C34.42 16.41, 36.44 17.06, 29.09 14.7 C21.75 12.35, 0.88 2.57, -4.52 -0.07" stroke="#fd7e14" stroke-width="4" fill="none"></path></g></g><mask></mask><g stroke-linecap="round"><g transform="translate(1385.5455234543288 1051.8088203466605) rotate(227.4392632345182 89.00010832495173 20.94863793772855)" fill-rule="evenodd"><path d="M0.8 -3.02 L95.16 7.39 L137.3 28.69 L164.81 59.84 L165.64 61.67 L173.04 53.78 L178.03 42.05 L172.92 41.02 L155.67 16.97 L146.68 2.63 L132.1 -1.45 L81.94 -8.84 L4.25 -14.42 L2.06 -13.82 L10.46 -9.94 L0.59 0.09" stroke="none" stroke-width="0" fill="#fd7e14" fill-rule="evenodd"></path><path d="M0.64 -1.45 C12.84 -0.95, 58.99 3.23, 74.18 4.98 C89.36 6.73, 84.73 7.38, 91.74 9.07 C98.76 10.75, 108.64 11.62, 116.29 15.08 C123.93 18.54, 129.26 22.65, 137.61 29.81 C145.96 36.97, 159.57 55.76, 166.39 58.04 C173.22 60.32, 180.51 50.6, 178.55 43.48 C176.59 36.36, 162.43 23.06, 154.64 15.3 C146.86 7.53, 144.56 1.42, 131.82 -3.1 C119.08 -7.62, 98.71 -10.5, 78.21 -11.81 C57.71 -13.12, 20.08 -11.34, 8.85 -10.98 C-2.39 -10.62, 12.18 -11.04, 10.81 -9.66 C9.45 -8.27, 2.11 -4.61, 0.64 -2.66 M-2.46 3.94 C9.29 4.51, 55.34 7.25, 71.97 7.27 C88.59 7.29, 90.07 2.58, 97.31 4.08 C104.55 5.59, 107.93 11.81, 115.4 16.27 C122.88 20.74, 134.28 24.3, 142.14 30.87 C149.99 37.43, 156.16 52.84, 162.55 55.68 C168.93 58.52, 180.97 54.59, 180.45 47.89 C179.92 41.19, 168.13 23.27, 159.41 15.48 C150.68 7.68, 141.52 5.99, 128.08 1.13 C114.65 -3.73, 98.7 -10.8, 78.79 -13.69 C58.88 -16.58, 20.27 -16.79, 8.63 -16.23 C-3 -15.67, 10.17 -13.45, 8.99 -10.31 C7.8 -7.17, 2.79 0.42, 1.52 2.58" stroke="#fd7e14" stroke-width="4" fill="none"></path></g></g><mask></mask></svg>