<svg version="1.1" xmlns="http://www.w3.org/2000/svg" viewBox="0 0 767.8948156062186 618.9691149979009" width="767.8948156062186" height="618.9691149979009">
  <!-- svg-source:excalidraw -->
  
  <defs>
    <style class="style-fonts">
      @font-face {
        font-family: "Virgil";
        src: url("https://excalidraw.com/Virgil.woff2");
      }
      @font-face {
        font-family: "Cascadia";
        src: url("https://excalidraw.com/Cascadia.woff2");
      }
    </style>
  </defs>
  <rect x="0" y="0" width="767.8948156062186" height="618.9691149979009" fill="#ffffff"></rect><g stroke-opacity="0.6" fill-opacity="0.6" stroke-linecap="round" transform="translate(10 268.5201371280905) rotate(0 369.61419864442075 63.24197315208718)"><path d="M-1.14 -0.77 L740.37 -1.53 L738.8 126.06 L-0.95 126.09" stroke="none" stroke-width="0" fill="#ced4da"></path><path d="M0.13 0 C211.36 -1.84, 423.29 -1.95, 739.74 0.65 M-0.12 -0.19 C249.97 -0.6, 499.28 -0.63, 739.28 -0.24 M740.73 -0.47 C739.04 34.07, 738.34 65.33, 739.3 126.53 M740.21 0.97 C740.88 35.39, 740.74 73.3, 739.45 126.96 M738.6 126.63 C466.66 124.65, 195.08 124.61, -0.72 126.86 M739.14 126.62 C520.44 126.95, 301.82 127.69, -0.06 126.75 M1.4 128.42 C-1.58 83.18, -0.96 40.43, -0.09 -1.04 M-0.37 126.2 C-0.5 87.69, -0.79 50.67, -0.4 0.89" stroke="#000000" stroke-width="1" fill="none"></path></g><g stroke-linecap="round"><g transform="translate(53.098233555496336 62.398150558324815) rotate(0 104.81616095416325 102.21918640801577)"><path d="M-0.38 -1.15 C34.25 33.1, 172.91 170.12, 207.86 204.44 M1.62 0.86 C36.6 35.34, 175.48 171.42, 210.01 205.59" stroke="#000000" stroke-width="4" fill="none"></path></g></g><mask></mask><g stroke-linecap="round"><g transform="translate(51.58795388922954 59.99668406733754) rotate(0 50.6204233991308 49.55147328457027)"><path d="M-1.07 -0.74 C16.04 15.87, 85.18 82.07, 102.31 98.53 M0.57 1.48 C17.59 18.36, 84.87 83.62, 101.58 99.85" stroke="#000000" stroke-width="4" fill="none"></path></g><g transform="translate(51.58795388922954 59.99668406733754) rotate(0 50.6204233991308 49.55147328457027)"><path d="M72.97 88.26 C80.74 90.82, 87.23 93.17, 100.63 101.37 M74.05 87.56 C82.23 90.97, 92.78 95.56, 100.96 99.36" stroke="#000000" stroke-width="4" fill="none"></path></g><g transform="translate(51.58795388922954 59.99668406733754) rotate(0 50.6204233991308 49.55147328457027)"><path d="M87.26 73.54 C91.05 79.92, 93.7 86.22, 100.63 101.37 M88.34 72.84 C91.99 80.96, 97.91 90.33, 100.96 99.36" stroke="#000000" stroke-width="4" fill="none"></path></g></g><mask></mask><g stroke-linecap="round"><g transform="translate(470.35265085408537 63.38079997514798) rotate(0 -104.35793690277808 102.38906645532126)"><path d="M0.23 0.28 C-34.77 34.41, -174.23 170.42, -208.95 204.5" stroke="#000000" stroke-width="4.5" fill="none" stroke-dasharray="8 12"></path></g></g><mask></mask><g stroke-linecap="round"><g transform="translate(363.7726415663742 168.08811991788457) rotate(180 -51.15232400767036 49.88219622976774)"><path d="M0.28 -0.02 C-16.77 16.58, -85.49 83.14, -102.58 99.78" stroke="#000000" stroke-width="4.5" fill="none" stroke-dasharray="8 12"></path></g><g transform="translate(363.7726415663742 168.08811991788457) rotate(180 -51.15232400767036 49.88219622976774)"><path d="M-89.53 71.64 C-91.69 79.63, -95.26 87.01, -104.07 100.83" stroke="#000000" stroke-width="4.5" fill="none"></path></g><g transform="translate(363.7726415663742 168.08811991788457) rotate(180 -51.15232400767036 49.88219622976774)"><path d="M-75.23 86.37 C-81.38 90.31, -88.91 93.62, -104.07 100.83" stroke="#000000" stroke-width="4.5" fill="none"></path></g></g><mask></mask><g stroke-linecap="round"><g transform="translate(586.3052820392177 63.38079997514798) rotate(0 -103.88062357498882 102.7807121729421)"><path d="M0.6 -0.11 C-34.3 33.99, -173.59 171.3, -208.36 205.67" stroke="#000000" stroke-width="4.5" fill="none" stroke-dasharray="8 12"></path></g></g><mask></mask><g stroke-linecap="round"><g transform="translate(479.7252727515065 168.08811991788457) rotate(180 -50.76067829004944 50.21263150579925)"><path d="M-0.11 0.57 C-17.19 17.12, -84.6 83.45, -101.41 99.85" stroke="#000000" stroke-width="4.5" fill="none" stroke-dasharray="8 12"></path></g><g transform="translate(479.7252727515065 168.08811991788457) rotate(180 -50.76067829004944 50.21263150579925)"><path d="M-87.5 73.6 C-91.85 84.8, -98.34 95.74, -100.4 101.65" stroke="#000000" stroke-width="4.5" fill="none"></path></g><g transform="translate(479.7252727515065 168.08811991788457) rotate(180 -50.76067829004944 50.21263150579925)"><path d="M-73.14 88.26 C-83.12 93.76, -95.19 99.02, -100.4 101.65" stroke="#000000" stroke-width="4.5" fill="none"></path></g></g><mask></mask><g stroke-linecap="round"><g transform="translate(708.0323556430508 63.38079997514798) rotate(0 -104.5995905373859 101.5264703025984)"><path d="M-0.49 -0.94 C-35.41 33.04, -173.81 169.79, -208.71 204" stroke="#000000" stroke-width="4.5" fill="none" stroke-dasharray="8 12"></path></g></g><mask></mask><g stroke-linecap="round"><g transform="translate(601.4523463553396 168.08811991788457) rotate(180 -51.48086774073079 49.94765767313237)"><path d="M-1.05 0.62 C-18.11 17.15, -85.02 82.8, -101.91 99.28" stroke="#000000" stroke-width="4.5" fill="none" stroke-dasharray="8 12"></path></g><g transform="translate(601.4523463553396 168.08811991788457) rotate(180 -51.48086774073079 49.94765767313237)"><path d="M-87.91 72.2 C-92.74 80.42, -96.8 90.57, -102.19 99.42" stroke="#000000" stroke-width="4.5" fill="none"></path></g><g transform="translate(601.4523463553396 168.08811991788457) rotate(180 -51.48086774073079 49.94765767313237)"><path d="M-73.56 86.87 C-83.24 90.02, -92.13 95.23, -102.19 99.42" stroke="#000000" stroke-width="4.5" fill="none"></path></g></g><mask></mask><g stroke-linecap="round"><g transform="translate(262.77188423074153 268.7611897439769) rotate(0 57.081008572667315 61.9094342558443)"><path d="M1.1 1.18 C19.19 43.89, 39.2 91.09, 49.57 122.64 M52.18 122.02 C77.08 75.46, 100.51 27.89, 113.06 1.56" stroke="#000000" stroke-width="1.5" fill="none" stroke-dasharray="8 9"></path></g></g><mask></mask><g stroke-linecap="round"><g transform="translate(381.6724636663432 268.7611897439769) rotate(0 58.157350201695635 60.23717166919107)"><path d="M-0.17 0.86 C15.53 39.02, 33.62 75.41, 50.24 120.91 M52.59 122.42 C74.34 77.23, 95.41 33.22, 116.49 -1.95" stroke="#000000" stroke-width="1.5" fill="none" stroke-dasharray="8 9"></path></g></g><mask></mask><g stroke-linecap="round"><g transform="translate(498.60774426829835 268.7611897439769) rotate(0 43.17930566216853 62.34594831678862)"><path d="M-1.23 1.22 C12.09 28.1, 22.99 55, 52.92 122.64 M52.86 123.48 C62.08 103.53, 73.33 84.52, 87.59 52.08" stroke="#000000" stroke-width="1.5" fill="none" stroke-dasharray="8 9"></path></g></g><mask></mask><g stroke-linecap="round"><g transform="translate(320.3788749313944 402.39484877913645) rotate(0 103.47870518623006 102.54501055982323)"><path d="M-0.1 -0.29 C34.54 33.97, 173.71 170.83, 208.57 205.09 M-1.62 -1.48 C32.78 33.01, 172.44 171.89, 207.44 206.57" stroke="#000000" stroke-width="4" fill="none"></path></g></g><mask></mask><g stroke-linecap="round"><g transform="translate(318.8685952651276 399.9933822881491) rotate(0 50.768960558096865 49.63451538046982)"><path d="M-0.78 -0.84 C16.19 15.75, 85.07 82.18, 102.32 98.7 M1.01 1.33 C17.82 18.18, 84.7 83.78, 101.59 100.11" stroke="#000000" stroke-width="4" fill="none"></path></g><g transform="translate(318.8685952651276 399.9933822881491) rotate(0 50.768960558096865 49.63451538046982)"><path d="M72.84 88.48 C83.05 93.52, 91.69 97.68, 100.2 101.03 M74.48 88 C83.83 91.73, 94.27 97.74, 101.67 99.13" stroke="#000000" stroke-width="4" fill="none"></path></g><g transform="translate(318.8685952651276 399.9933822881491) rotate(0 50.768960558096865 49.63451538046982)"><path d="M87.17 73.79 C92.4 83.74, 96.17 92.89, 100.2 101.03 M88.81 73.31 C92.86 82.61, 97.87 94.19, 101.67 99.13" stroke="#000000" stroke-width="4" fill="none"></path></g></g><mask></mask><g stroke-linecap="round"><g transform="translate(431.41825903241056 392.56835461090486) rotate(180 103.73654948218348 103.00382246728412)"><path d="M-0.63 0.16 C33.92 34.33, 173.27 171.61, 208.1 205.85" stroke="#000000" stroke-width="4.5" fill="none" stroke-dasharray="8 12"></path></g></g><mask></mask><g stroke-linecap="round"><g transform="translate(436.7865252839067 398.02808345450273) rotate(0 50.24362381569574 50.00060118890997)"><path d="M-0.83 0.66 C16.16 17.19, 84.31 82.92, 101.32 99.34" stroke="#000000" stroke-width="4.5" fill="none" stroke-dasharray="8 12"></path></g><g transform="translate(436.7865252839067 398.02808345450273) rotate(0 50.24362381569574 50.00060118890997)"><path d="M75.01 86.18 C81.36 89.27, 87.87 91.9, 100.17 100.65" stroke="#000000" stroke-width="4.5" fill="none"></path></g><g transform="translate(436.7865252839067 398.02808345450273) rotate(0 50.24362381569574 50.00060118890997)"><path d="M89.26 71.42 C92.1 78.06, 95.08 84.35, 100.17 100.65" stroke="#000000" stroke-width="4.5" fill="none"></path></g></g><mask></mask><g stroke-linecap="round"><g transform="translate(549.3361890511894 392.56835461090486) rotate(180 104.74132481409788 102.9138693084883)"><path d="M0.92 -0.48 C35.58 33.83, 173.84 171.88, 208.56 206.31" stroke="#000000" stroke-width="4.5" fill="none" stroke-dasharray="8 12"></path></g></g><mask></mask><g stroke-linecap="round"><g transform="translate(554.7044553026856 398.02808345450273) rotate(0 51.27019132248586 49.44072145677802)"><path d="M-0.48 -0.37 C16.62 16.01, 85.8 82.81, 103.02 99.26" stroke="#000000" stroke-width="4.5" fill="none" stroke-dasharray="8 12"></path></g><g transform="translate(554.7044553026856 398.02808345450273) rotate(0 51.27019132248586 49.44072145677802)"><path d="M74.96 89 C85.42 92.88, 93.08 96.77, 104.04 99.64" stroke="#000000" stroke-width="4.5" fill="none"></path></g><g transform="translate(554.7044553026856 398.02808345450273) rotate(0 51.27019132248586 49.44072145677802)"><path d="M89.18 74.2 C94.97 83, 97.85 91.88, 104.04 99.64" stroke="#000000" stroke-width="4.5" fill="none"></path></g></g><mask></mask><g transform="translate(28.196125302700693 10) rotate(0 9.433333396911621 17.5)"><text x="0" y="0" font-family="Virgil, Segoe UI Emoji" font-size="28px" fill="#000000" text-anchor="start" style="white-space: pre;" direction="ltr" dominant-baseline="text-before-edge">E</text></g><g transform="translate(48.37005290542106 19.19308863417399) rotate(0 9.5 10)"><text x="0" y="0" font-family="Virgil, Segoe UI Emoji" font-size="16px" fill="#000000" text-anchor="start" style="white-space: pre;" direction="ltr" dominant-baseline="text-before-edge">inc</text></g><g transform="translate(456.63838348423906 10) rotate(0 9.433333396911621 17.5)"><text x="0" y="0" font-family="Virgil, Segoe UI Emoji" font-size="28px" fill="#000000" text-anchor="start" style="white-space: pre;" direction="ltr" dominant-baseline="text-before-edge">E</text></g><g transform="translate(476.8123110869594 19.19308863417399) rotate(0 5.5 10)"><text x="0" y="0" font-family="Virgil, Segoe UI Emoji" font-size="16px" fill="#000000" text-anchor="start" style="white-space: pre;" direction="ltr" dominant-baseline="text-before-edge">0</text></g><g transform="translate(573.3123912926044 10) rotate(0 9.433333396911621 17.5)"><text x="0" y="0" font-family="Virgil, Segoe UI Emoji" font-size="28px" fill="#000000" text-anchor="start" style="white-space: pre;" direction="ltr" dominant-baseline="text-before-edge">E</text></g><g transform="translate(593.4863188953248 19.19308863417399) rotate(0 2.1666667461395264 10)"><text x="0" y="0" font-family="Virgil, Segoe UI Emoji" font-size="16px" fill="#000000" text-anchor="start" style="white-space: pre;" direction="ltr" dominant-baseline="text-before-edge">1</text></g><g transform="translate(692.8554320798639 10) rotate(0 9.433333396911621 17.5)"><text x="0" y="0" font-family="Virgil, Segoe UI Emoji" font-size="28px" fill="#000000" text-anchor="start" style="white-space: pre;" direction="ltr" dominant-baseline="text-before-edge">E</text></g><g transform="translate(713.0293596825843 19.19308863417399) rotate(0 5.699999809265137 10)"><text x="0" y="0" font-family="Virgil, Segoe UI Emoji" font-size="16px" fill="#000000" text-anchor="start" style="white-space: pre;" direction="ltr" dominant-baseline="text-before-edge">2</text></g><g stroke-linecap="round" transform="translate(648.6109395674519 231.6676717655733) rotate(0 4.344326415722435 4.344326415722463)"><path d="M4.19 0.94 C5 1.09, 6.23 0.5, 7.09 1.17 C7.95 1.83, 9.2 4.04, 9.37 4.94 C9.54 5.84, 8.69 5.87, 8.11 6.57 C7.52 7.27, 7 9.02, 5.88 9.15 C4.75 9.28, 2.4 7.88, 1.35 7.35 C0.3 6.81, -0.23 6.51, -0.44 5.93 C-0.66 5.36, -0.24 4.87, 0.05 3.9 C0.35 2.94, 0.27 0.6, 1.31 0.16 C2.34 -0.29, 5.4 1.05, 6.26 1.23 C7.12 1.41, 6.5 1.4, 6.47 1.23" stroke="none" stroke-width="0" fill="#000000"></path><path d="M3.48 -0.67 C4.38 -0.96, 5.19 0.49, 6.17 0.98 C7.15 1.46, 9.03 1.49, 9.34 2.25 C9.66 3, 8.57 4.56, 8.06 5.51 C7.55 6.45, 7.11 7.35, 6.27 7.93 C5.43 8.5, 4.02 9, 3 8.94 C1.99 8.88, 0.65 8.17, 0.17 7.58 C-0.31 6.99, -0.06 6.5, 0.11 5.41 C0.28 4.32, 0.49 1.91, 1.19 1.06 C1.9 0.21, 3.75 0.43, 4.35 0.31 C4.94 0.2, 4.99 0.22, 4.78 0.36" stroke="#000000" stroke-width="1.5" fill="none" stroke-dasharray="8 9"></path></g><g stroke-linecap="round" transform="translate(674.6580565671798 231.06192485860294) rotate(0 4.344326415722435 4.344326415722449)"><path d="M2.3 0.02 C3.35 -0.37, 5.42 0.71, 6.43 0.98 C7.45 1.26, 7.93 0.89, 8.4 1.66 C8.87 2.42, 9.62 4.72, 9.26 5.58 C8.9 6.43, 7.17 6.27, 6.24 6.78 C5.31 7.3, 4.46 8.34, 3.66 8.65 C2.87 8.95, 2.18 9.28, 1.46 8.62 C0.74 7.96, -0.59 5.57, -0.65 4.67 C-0.72 3.77, 0.38 3.9, 1.07 3.24 C1.76 2.58, 2.89 1.29, 3.47 0.71 C4.05 0.12, 4.64 -0.2, 4.57 -0.29" stroke="none" stroke-width="0" fill="#000000"></path><path d="M5.78 0.79 C6.77 1.13, 8.76 1.14, 9.16 1.85 C9.56 2.57, 8.59 4.12, 8.17 5.09 C7.75 6.06, 7.41 7.03, 6.62 7.68 C5.84 8.32, 4.46 8.94, 3.44 8.98 C2.41 9.01, 1.03 8.41, 0.48 7.89 C-0.07 7.36, 0.07 6.92, 0.15 5.84 C0.23 4.76, 0.41 2.3, 0.94 1.41 C1.48 0.52, 2.43 0.62, 3.35 0.51 C4.28 0.39, 6.12 0.57, 6.49 0.72 C6.87 0.88, 5.74 1.27, 5.61 1.42" stroke="#000000" stroke-width="1.5" fill="none" stroke-dasharray="8 9"></path></g><g stroke-linecap="round" transform="translate(700.7051735669074 231.06192485860294) rotate(0 4.344326415722435 4.344326415722449)"><path d="M6.91 1.18 C7.87 1.48, 8.27 1.3, 8.64 2.11 C9.01 2.93, 9.62 5.25, 9.15 6.08 C8.68 6.91, 6.83 6.67, 5.83 7.1 C4.83 7.52, 3.94 8.43, 3.15 8.63 C2.36 8.82, 1.72 9.02, 1.08 8.27 C0.43 7.53, -0.77 5.07, -0.72 4.16 C-0.68 3.25, 0.67 3.38, 1.35 2.81 C2.02 2.24, 2.4 1.18, 3.33 0.74 C4.26 0.3, 6.46 0.21, 6.92 0.15 C7.38 0.09, 6.11 0.11, 6.11 0.37" stroke="none" stroke-width="0" fill="#000000"></path><path d="M3.7 -0.14 C4.46 -0.63, 4.61 -0.3, 5.27 0.05 C5.93 0.4, 7.21 1.08, 7.64 1.95 C8.08 2.82, 8.12 4.26, 7.9 5.25 C7.67 6.24, 6.85 7.17, 6.3 7.89 C5.75 8.62, 5.32 9.71, 4.6 9.59 C3.87 9.46, 2.64 7.82, 1.94 7.14 C1.25 6.47, 0.64 6.3, 0.44 5.54 C0.23 4.78, 0.36 3.36, 0.72 2.56 C1.07 1.77, 2.03 1.09, 2.57 0.8 C3.1 0.51, 3.72 0.9, 3.94 0.85" stroke="#000000" stroke-width="1.5" fill="none" stroke-dasharray="8 9"></path></g><g stroke-linecap="round" transform="translate(648.6109395674519 423.689441275195) rotate(0 4.344326415722435 4.344326415722463)"><path d="M1.41 -0.25 C2.06 -0.82, 4.34 -1.08, 5.52 -0.68 C6.7 -0.28, 7.85 1.13, 8.48 2.14 C9.11 3.16, 9.4 4.46, 9.29 5.4 C9.17 6.34, 8.5 7.2, 7.78 7.8 C7.06 8.4, 5.76 8.79, 4.97 8.99 C4.17 9.19, 3.7 9.62, 3.01 9.01 C2.32 8.4, 1.39 6.24, 0.81 5.35 C0.23 4.46, -0.9 4.61, -0.44 3.67 C0.02 2.72, 2.74 0.42, 3.56 -0.31 C4.38 -1.05, 4.39 -0.76, 4.49 -0.75" stroke="none" stroke-width="0" fill="#000000"></path><path d="M3.49 0.79 C4.24 0.51, 4.75 0.66, 5.58 0.94 C6.42 1.22, 7.89 1.71, 8.5 2.46 C9.1 3.2, 9.38 4.33, 9.23 5.41 C9.08 6.48, 8.62 8.48, 7.57 8.91 C6.52 9.35, 4.07 8.44, 2.94 8.01 C1.81 7.58, 1.15 6.92, 0.81 6.33 C0.46 5.74, 0.79 5.21, 0.86 4.46 C0.94 3.7, 0.79 2.52, 1.26 1.79 C1.73 1.06, 3.24 0.22, 3.67 0.07 C4.11 -0.07, 3.92 0.82, 3.87 0.92" stroke="#000000" stroke-width="1.5" fill="none" stroke-dasharray="8 9"></path></g><g stroke-linecap="round" transform="translate(674.6580565671798 423.0836943682246) rotate(0 4.344326415722435 4.344326415722463)"><path d="M5.17 1.02 C6.14 1.16, 7.95 1.58, 8.49 1.96 C9.02 2.34, 8.32 2.44, 8.37 3.3 C8.42 4.17, 9.39 6.25, 8.82 7.13 C8.24 8.02, 6.14 8.34, 4.94 8.64 C3.73 8.93, 2.47 9.43, 1.58 8.93 C0.69 8.43, -0.14 6.63, -0.4 5.63 C-0.66 4.63, -0.44 3.64, 0.04 2.92 C0.52 2.21, 1.31 1.9, 2.47 1.33 C3.63 0.77, 6.25 -0.27, 6.99 -0.46 C7.74 -0.65, 7.14 -0.09, 6.94 0.18" stroke="none" stroke-width="0" fill="#000000"></path><path d="M5.58 0.09 C6.09 0.71, 6.87 2.45, 7.35 3.41 C7.83 4.37, 8.53 5.16, 8.45 5.88 C8.38 6.59, 7.64 7.32, 6.89 7.7 C6.15 8.08, 4.77 8.29, 3.97 8.14 C3.17 8, 2.69 7.4, 2.07 6.83 C1.45 6.27, 0.29 5.77, 0.24 4.78 C0.19 3.78, 1.12 1.64, 1.77 0.85 C2.42 0.06, 3.45 0.2, 4.12 0.06 C4.8 -0.08, 5.29 -0.06, 5.84 0 C6.39 0.05, 7.21 0.15, 7.44 0.41" stroke="#000000" stroke-width="1.5" fill="none" stroke-dasharray="8 9"></path></g><g stroke-linecap="round" transform="translate(700.7051735669074 423.0836943682246) rotate(0 4.344326415722435 4.344326415722463)"><path d="M3.14 0.38 C3.91 -0.05, 4.72 -0.75, 5.44 -0.57 C6.16 -0.38, 6.93 0.65, 7.47 1.49 C8.01 2.32, 8.73 3.33, 8.68 4.45 C8.63 5.56, 7.84 7.36, 7.17 8.18 C6.5 9, 5.68 9.36, 4.65 9.37 C3.61 9.38, 1.69 8.97, 0.95 8.26 C0.22 7.54, 0.2 6.11, 0.25 5.09 C0.29 4.07, 0.44 2.82, 1.22 2.12 C2 1.43, 4.35 1.34, 4.91 0.92 C5.46 0.49, 4.75 -0.19, 4.55 -0.43" stroke="none" stroke-width="0" fill="#000000"></path><path d="M4.46 -0.94 C5.31 -1.03, 6.39 0.85, 7.03 1.59 C7.68 2.33, 7.94 2.81, 8.31 3.49 C8.68 4.16, 9.74 4.7, 9.26 5.64 C8.78 6.58, 6.45 8.61, 5.44 9.11 C4.42 9.61, 3.85 8.83, 3.15 8.61 C2.45 8.4, 1.66 8.54, 1.21 7.8 C0.77 7.06, 0.44 5.21, 0.48 4.16 C0.53 3.11, 0.72 2.18, 1.5 1.5 C2.27 0.82, 4.71 0.24, 5.15 0.08 C5.6 -0.08, 4.29 0.56, 4.14 0.53" stroke="#000000" stroke-width="1.5" fill="none" stroke-dasharray="8 9"></path></g><g stroke-linecap="round"><g transform="translate(263.3191667863234 267.0845674526183) rotate(0 -0.637139921509629 -64.39213663996594)"><path d="M0.27 -1.98 C-1.08 -32.65, -2.68 -66.39, -0.39 -126.8" stroke="#000000" stroke-width="1.5" fill="none" stroke-dasharray="1.5 7"></path></g></g><mask></mask></svg>