<svg version="1.1" xmlns="http://www.w3.org/2000/svg" viewBox="0 0 3995.093182750916 1749.9364446015265" width="3995.093182750916" height="1749.9364446015265">
  <!-- svg-source:excalidraw -->
  
  <defs>
    <style class="style-fonts">
      @font-face {
        font-family: "Virgil";
        src: url("https://excalidraw.com/Virgil.woff2");
      }
      @font-face {
        font-family: "Cascadia";
        src: url("https://excalidraw.com/Cascadia.woff2");
      }
    </style>
  </defs>
  <rect x="0" y="0" width="3995.093182750916" height="1749.9364446015265" fill="#ffffff"></rect><g stroke-opacity="0.6" fill-opacity="0.6" stroke-linecap="round" transform="translate(954.0377721481416 203.800137636839) rotate(0 135.92404319006232 86.09573965403024)"><path d="M0.3 1 C85.09 -1.81, 172.92 -2.23, 272.26 -0.41 M-0.46 0.46 C93.28 0.94, 186.27 0.61, 271.43 -0.21 M273.51 -0.02 C273.04 58.23, 273.55 116.67, 273.35 173.48 M271.68 0.19 C269.95 46.33, 270.47 90.67, 272.41 172.31 M270.64 171.66 C207.54 174.9, 144.97 174.95, -0.5 173.17 M272.01 172.55 C194.07 170.52, 116.61 169.5, -0.36 172.55 M-1.09 171.85 C-1.4 103.63, -2.96 36.34, 1.61 1.84 M-0.99 172.53 C0.41 124.67, 0.51 79.42, -0.59 0.37" stroke="#c92a2a" stroke-width="4" fill="none"></path></g><g stroke-opacity="0.6" fill-opacity="0.6" transform="translate(975.6223434909293 241.76863807357853) rotate(0 109.5 45.5)"><text x="109.5" y="0" font-family="Virgil, Segoe UI Emoji" font-size="36px" fill="#c92a2a" text-anchor="middle" style="white-space: pre;" direction="ltr" dominant-baseline="text-before-edge">design of</text><text x="109.5" y="45.5" font-family="Virgil, Segoe UI Emoji" font-size="36px" fill="#c92a2a" text-anchor="middle" style="white-space: pre;" direction="ltr" dominant-baseline="text-before-edge"> experiments</text></g><g stroke-opacity="0.6" fill-opacity="0.6" stroke-linecap="round" transform="translate(1431.3268095372005 500.78810379245124) rotate(0 135.92404319006232 86.09573965403024)"><path d="M-0.21 -0.64 C99.44 -0.11, 198.74 0.94, 271.26 -0.93 M-0.69 -0.2 C97.21 -0.58, 195.55 -0.31, 272.41 0.65 M273.41 -0.17 C274.25 52.74, 272.02 101.77, 270.21 171.85 M271.44 -0.01 C270.8 54.98, 269.57 109.08, 272.79 171.41 M271.44 172.96 C198.97 174.14, 126.86 174.63, -1.56 172.53 M271.24 171.62 C177.44 173.78, 84.48 173.95, 0.15 171.77 M-1.79 171.57 C1.81 125.35, -0.37 73.88, 0.23 -1.97 M-0.31 172.96 C0.11 115.12, 0.78 56.87, -0.26 0.4" stroke="#c92a2a" stroke-width="4" fill="none"></path></g><g stroke-opacity="0.6" fill-opacity="0.6" transform="translate(1460.4158387852326 543.7403246447217) rotate(0 108 45.5)"><text x="108" y="0" font-family="Virgil, Segoe UI Emoji" font-size="36px" fill="#c92a2a" text-anchor="middle" style="white-space: pre;" direction="ltr" dominant-baseline="text-before-edge">software &amp;</text><text x="108" y="45.5" font-family="Virgil, Segoe UI Emoji" font-size="36px" fill="#c92a2a" text-anchor="middle" style="white-space: pre;" direction="ltr" dominant-baseline="text-before-edge"> automation</text></g><g stroke-opacity="0.6" fill-opacity="0.6" stroke-linecap="round" transform="translate(1068.5447913581547 496.72861807477034) rotate(0 135.92404319006232 86.09573965403024)"><path d="M0.68 0.64 C69.77 -0.37, 141.64 0.15, 272.12 -1.38 M0.31 0.07 C75.26 1.22, 149.38 0.99, 271.78 0.61 M271.11 -1.12 C271.5 49.86, 273.51 98.54, 273.84 171.38 M271.17 -0.65 C273.76 50.74, 272.48 102.35, 272.31 171.93 M271.6 173.67 C175.43 173.86, 82.84 172.61, 0.9 170.98 M272.57 172.72 C210.49 172.75, 148.7 173.08, -0.37 171.49 M-0.57 171.24 C-1.15 123.91, -0.72 78.76, -1.51 -0.62 M0.09 171.75 C0.75 107.74, 1.61 42.5, 0.59 -0.96" stroke="#c92a2a" stroke-width="4" fill="none"></path></g><g stroke-opacity="0.6" fill-opacity="0.6" transform="translate(1117.5257482750044 536.1852759686766) rotate(0 91.5 45.5)"><text x="91.5" y="0" font-family="Virgil, Segoe UI Emoji" font-size="36px" fill="#c92a2a" text-anchor="middle" style="white-space: pre;" direction="ltr" dominant-baseline="text-before-edge">data </text><text x="91.5" y="45.5" font-family="Virgil, Segoe UI Emoji" font-size="36px" fill="#c92a2a" text-anchor="middle" style="white-space: pre;" direction="ltr" dominant-baseline="text-before-edge">acquisition</text></g><g stroke-opacity="0.6" fill-opacity="0.6" stroke-linecap="round" transform="translate(957.9068766235396 794.6079229863087) rotate(0 135.92404319006232 86.09573965403024)"><path d="M0.92 -0.41 C92.9 -0.11, 184.87 0.43, 271.42 0.61 M-0.01 0.41 C83.77 -1.15, 167.61 -1.17, 272.35 -0.29 M272.22 -1.87 C272.42 41.17, 270.42 85.08, 272.08 170.84 M271.51 -0.69 C273.92 40.21, 273.96 80.62, 272.48 172.04 M272.57 171.28 C165.52 171.44, 56.24 171.92, 0.72 173.64 M271.71 172.1 C171.46 170.34, 71.58 171.67, 0.72 171.97 M0.67 171.38 C-1.71 128.09, 1.33 84.05, 0.73 0.18 M0.6 172.2 C1.03 127.18, 1.29 84.27, -0.78 0.69" stroke="#c92a2a" stroke-width="4" fill="none"></path></g><g stroke-opacity="0.6" fill-opacity="0.6" transform="translate(1025.8779525842572 843.0677906261876) rotate(0 69.5 45.5)"><text x="69.5" y="0" font-family="Virgil, Segoe UI Emoji" font-size="36px" fill="#c92a2a" text-anchor="middle" style="white-space: pre;" direction="ltr" dominant-baseline="text-before-edge">data </text><text x="69.5" y="45.5" font-family="Virgil, Segoe UI Emoji" font-size="36px" fill="#c92a2a" text-anchor="middle" style="white-space: pre;" direction="ltr" dominant-baseline="text-before-edge">analysis</text></g><g stroke-opacity="0.6" fill-opacity="0.6" stroke-linecap="round" transform="translate(501.8644609810267 708.9359346636984) rotate(0 135.92404319006232 86.09573965403024)"><path d="M-0.39 -0.84 C73.99 2.48, 148.95 3, 273.14 -0.02 M-0.07 0.58 C96.36 -1.94, 191.27 -2.3, 271.72 0.15 M271.83 1.13 C273.79 34.24, 272.26 73.05, 270.29 171.52 M272.34 -0.32 C273.26 39.66, 273.58 78.63, 272.06 172.65 M270.7 171.47 C206.95 172, 141.66 170.85, -0.85 171.92 M271.61 172.82 C194.14 170.07, 114.63 170.39, -0.77 172.45 M1.53 171.02 C2.03 127.66, 0.42 82.26, 0.81 1.19 M0.85 172.37 C-1.8 121.01, -1.28 69.3, 0.14 0.54" stroke="#c92a2a" stroke-width="4" fill="none"></path></g><g stroke-opacity="0.6" fill-opacity="0.6" transform="translate(537.9179626005589 756.3866765020902) rotate(0 95.5 45.5)"><text x="95.5" y="0" font-family="Virgil, Segoe UI Emoji" font-size="36px" fill="#c92a2a" text-anchor="middle" style="white-space: pre;" direction="ltr" dominant-baseline="text-before-edge">statistical</text><text x="95.5" y="45.5" font-family="Virgil, Segoe UI Emoji" font-size="36px" fill="#c92a2a" text-anchor="middle" style="white-space: pre;" direction="ltr" dominant-baseline="text-before-edge">analysis</text></g><g stroke-opacity="0.6" fill-opacity="0.6" stroke-linecap="round" transform="translate(10 806.2763895455375) rotate(0 135.92404319006232 86.09573965403024)"><path d="M-1.62 1.44 L270.17 -1.45 L271.43 170.68 L1.07 172.72" stroke="none" stroke-width="0" fill="#ced4da"></path><path d="M0.13 1.13 C68.29 -0.85, 134.81 -0.98, 273.07 -0.13 M-0.44 -0.64 C101.8 0.92, 203.13 1.55, 271.53 -0.01 M270.55 1.88 C270.49 60.68, 270.67 123.62, 271.33 173.17 M272.79 -1 C273.14 46.59, 272.34 92.83, 271.07 171.45 M272.91 172.49 C202.1 173.89, 133.87 173.42, -1.39 171.71 M271.48 172.28 C167.62 171.85, 64.62 171, -0.24 172.79 M-0.88 171.67 C0.18 131.81, -0.6 90.23, -1.93 1.7 M-0.27 173.05 C1.49 117.97, 0.73 62.28, -0.88 0.51" stroke="#000000" stroke-width="1" fill="none"></path></g><g stroke-opacity="0.6" fill-opacity="0.6" transform="translate(34.51546724068476 850.2315684255652) rotate(0 105.5 45.5)"><text x="105.5" y="0" font-family="Virgil, Segoe UI Emoji" font-size="36px" fill="#000000" text-anchor="middle" style="white-space: pre;" direction="ltr" dominant-baseline="text-before-edge">theoretical </text><text x="105.5" y="45.5" font-family="Virgil, Segoe UI Emoji" font-size="36px" fill="#000000" text-anchor="middle" style="white-space: pre;" direction="ltr" dominant-baseline="text-before-edge">model(s)</text></g><g stroke-opacity="0.6" fill-opacity="0.6" stroke-linecap="round" transform="translate(967.2071833294137 1131.806328540055) rotate(0 135.92404319006232 86.09573965403024)"><path d="M0.82 -0.14 C102.49 -0.11, 203.72 1.04, 271.28 -0.88 M-0.73 0.78 C58.95 -0.4, 118.97 -0.3, 271.32 -0.51 M270.47 0.91 C269.99 68.81, 269.87 136.92, 271.54 174.08 M271.26 0.58 C271.44 33.71, 271.75 69.36, 272.77 172.87 M271.67 171.45 C183.65 171.34, 99.5 173.26, -0.44 171.45 M271.53 171.6 C186.87 173.5, 101.91 173.19, 0.07 171.85 M0.03 173.37 C-2.62 126.7, -0.34 76.24, 1.38 -0.54 M-0.62 171.8 C-1.12 106.21, -1.05 39.93, -0.84 -0.73" stroke="#c92a2a" stroke-width="4" fill="none"></path></g><g stroke-opacity="0.6" fill-opacity="0.6" transform="translate(1030.2036646760873 1178.7481858633705) rotate(0 69.5 45.5)"><text x="69.5" y="0" font-family="Virgil, Segoe UI Emoji" font-size="36px" fill="#c92a2a" text-anchor="middle" style="white-space: pre;" direction="ltr" dominant-baseline="text-before-edge">critical </text><text x="69.5" y="45.5" font-family="Virgil, Segoe UI Emoji" font-size="36px" fill="#c92a2a" text-anchor="middle" style="white-space: pre;" direction="ltr" dominant-baseline="text-before-edge">analysis</text></g><g stroke-opacity="0.6" fill-opacity="0.6" stroke-linecap="round" transform="translate(560.3147245664006 1077.252632474686) rotate(0 135.92404319006232 86.09573965403024)"><path d="M1.17 1.01 C78.46 -0.7, 156.79 -0.09, 272.14 -1.46 M0.44 0.09 C108.05 -0.49, 217.88 -0.59, 271.58 -0.54 M271.21 1.26 C271.09 61.42, 269.4 119.49, 272.77 171.02 M271.38 0.46 C271.44 62.3, 270.71 122.69, 271.68 172.08 M273.11 173.63 C202.73 170.79, 134.68 169.99, 0.52 171.56 M271.39 172.48 C210.88 173.47, 149.57 174.13, 0.47 172.2 M0.36 170.62 C3.04 109.88, 3.38 48.92, 1.07 -1.23 M-0.81 172.91 C0.68 126.57, 1.31 81.65, 0.54 0.26" stroke="#087f5b" stroke-width="4" fill="none"></path></g><g stroke-opacity="0.6" fill-opacity="0.6" transform="translate(621.1807070873012 1146.6932625023387) rotate(0 70 23)"><text x="0" y="0" font-family="Virgil, Segoe UI Emoji" font-size="36px" fill="#087f5b" text-anchor="start" style="white-space: pre;" direction="ltr" dominant-baseline="text-before-edge">graphics</text></g><g stroke-opacity="0.6" fill-opacity="0.6" stroke-linecap="round" transform="translate(962.7281530089183 1495.7566405696502) rotate(0 135.92404319006232 86.09573965403024)"><path d="M-1.28 -0.27 C99.42 -0.26, 199.81 0.56, 271.84 0.88 M0.73 -0.61 C84.45 0.84, 169.79 1.18, 272.23 -0.25 M269.85 0.43 C272.5 61.3, 272.74 123.4, 270.37 171.26 M272.04 -0.54 C273.27 59.52, 272.97 118.37, 271.54 173 M272.03 170.65 C165.79 170.55, 57.51 170.7, 1.2 171.28 M271.65 172.51 C180.81 171.26, 89.3 170.5, 0.66 172.33 M1.72 172.47 C-0.11 132.8, -1.97 94.1, 1.01 -1.62 M-0.21 171.44 C1.98 108.42, 0.51 45.12, 0.75 -0.35" stroke="#c92a2a" stroke-width="4" fill="none"></path></g><g stroke-opacity="0.6" fill-opacity="0.6" transform="translate(980.1458503077477 1539.7118194496784) rotate(0 127 45.5)"><text x="127" y="0" font-family="Virgil, Segoe UI Emoji" font-size="36px" fill="#c92a2a" text-anchor="middle" style="white-space: pre;" direction="ltr" dominant-baseline="text-before-edge">communication </text><text x="127" y="45.5" font-family="Virgil, Segoe UI Emoji" font-size="36px" fill="#c92a2a" text-anchor="middle" style="white-space: pre;" direction="ltr" dominant-baseline="text-before-edge">of results</text></g><g stroke-linecap="round"><g stroke-opacity="0.6" fill-opacity="0.6" transform="translate(765.4664820817161 692.4326967811462) rotate(0 81.040654413114 -173.1631178923825)"><path d="M1.18 -0.48 C45.36 -96.62, 91.26 -196.28, 160.9 -345.84" stroke="#343a40" stroke-width="1.5" fill="none" stroke-dasharray="8 9"></path></g><g stroke-opacity="0.6" fill-opacity="0.6" transform="translate(765.4664820817161 692.4326967811462) rotate(0 81.040654413114 -173.1631178923825)"><path d="M-0.79 0.19 L0.31 -16.99 L12.01 -8.64 L0.01 0.25" stroke="none" stroke-width="0" fill="#343a40" fill-rule="evenodd"></path><path d="M2.67 -1.09 C1.13 -3.88, 1.29 -9.98, 0.15 -14.07 M1.7 -15.81 C4.28 -14.63, 7.02 -13.24, 13.83 -11.44 M13.5 -11.33 C7.89 -7.82, 6.01 -2.62, 2.2 -0.19 M1.18 -0.48 C1.18 -0.48, 1.18 -0.48, 1.18 -0.48" stroke="#343a40" stroke-width="1.5" fill="none"></path></g><g stroke-opacity="0.6" fill-opacity="0.6" transform="translate(765.4664820817161 692.4326967811462) rotate(0 81.040654413114 -173.1631178923825)"><path d="M158.92 -345.17 L160.11 -332.35 L148.8 -334.65 L159.73 -345.11" stroke="none" stroke-width="0" fill="#343a40" fill-rule="evenodd"></path><path d="M162.39 -346.45 C160.92 -340.75, 161.11 -338.36, 159.94 -329.43 M161.5 -331.17 C159 -332.52, 156.62 -333.5, 150.62 -337.45 M150.29 -337.35 C151.96 -339.92, 157.45 -340.94, 161.92 -345.55 M160.9 -345.84 C160.9 -345.84, 160.9 -345.84, 160.9 -345.84" stroke="#343a40" stroke-width="1.5" fill="none"></path></g></g><mask></mask><g stroke-linecap="round"><g stroke-opacity="0.6" fill-opacity="0.6" transform="translate(787.5070661989439 836.9897636833067) rotate(0 78.17534621368475 12.080507739678637)"><path d="M-0.02 1.13 C33.1 4.19, 64.2 12.32, 156.37 23.03" stroke="#343a40" stroke-width="1.5" fill="none" stroke-dasharray="8 9"></path></g><g stroke-opacity="0.6" fill-opacity="0.6" transform="translate(787.5070661989439 836.9897636833067) rotate(0 78.17534621368475 12.080507739678637)"><path d="M-0.82 -0.38 L13.74 -1.63 L11.33 10.12 L0.16 0.24" stroke="none" stroke-width="0" fill="#343a40" fill-rule="evenodd"></path><path d="M-0.03 1.97 C3.09 -0.71, 4.91 0.82, 13.19 -3.67 M14.98 -3.57 C14.78 -0.46, 14.76 1.37, 12.78 9.97 M11.4 8.69 C10.13 8.68, 7.43 5.59, -0.83 0.87 M-0.02 1.13 C-0.02 1.13, -0.02 1.13, -0.02 1.13" stroke="#343a40" stroke-width="1.5" fill="none"></path></g><g stroke-opacity="0.6" fill-opacity="0.6" transform="translate(787.5070661989439 836.9897636833067) rotate(0 78.17534621368475 12.080507739678637)"><path d="M155.56 21.53 L141.45 29.1 L142.53 15.72 L156.55 22.15" stroke="none" stroke-width="0" fill="#343a40" fill-rule="evenodd"></path><path d="M156.35 23.88 C153.63 22.9, 149.53 26.26, 140.9 27.06 M142.69 27.16 C143.18 24.46, 143.96 20.49, 143.98 15.58 M142.6 14.29 C147.5 18.42, 150.88 19.26, 155.55 22.78 M156.37 23.03 C156.37 23.03, 156.37 23.03, 156.37 23.03" stroke="#343a40" stroke-width="1.5" fill="none"></path></g></g><mask></mask><g stroke-opacity="0.6" fill-opacity="0.6" stroke-linecap="round" transform="translate(1424.8465718711568 206.15198780856733) rotate(0 135.92404319006232 86.09573965403025)"><path d="M0.18 -1.05 C69.51 0.27, 139.84 -1.72, 270.77 0.71 M0.49 -0.12 C75.24 -0.1, 149.17 1.04, 271.39 0.45 M272.77 1.85 C271.94 38.72, 269.49 76.32, 271.62 171.24 M272.77 -0.28 C270.84 36.38, 270.33 72.87, 271.44 171.44 M272.42 172.33 C198.02 170.54, 126.2 171.88, 0.02 173.11 M271.24 172.73 C216.26 173.25, 161.19 172.99, -0.48 171.89 M1.44 170.52 C-2.33 135.32, -2.38 100.36, 0.52 -1.87 M0.16 172.69 C-0.73 103.84, -1.84 33.85, 0 0.07" stroke="#c92a2a" stroke-width="4" fill="none"></path></g><g stroke-opacity="0.6" fill-opacity="0.6" transform="translate(1477.3408503447185 248.59532414576188) rotate(0 88.5 45.5)"><text x="88.5" y="0" font-family="Virgil, Segoe UI Emoji" font-size="36px" fill="#c92a2a" text-anchor="middle" style="white-space: pre;" direction="ltr" dominant-baseline="text-before-edge">hardware </text><text x="88.5" y="45.5" font-family="Virgil, Segoe UI Emoji" font-size="36px" fill="#c92a2a" text-anchor="middle" style="white-space: pre;" direction="ltr" dominant-baseline="text-before-edge">setup</text></g><g stroke-linecap="round"><g stroke-opacity="0.6" fill-opacity="0.6" transform="translate(1241.4751696951018 295.2420268246442) rotate(0 86.76538458986306 0.7817094310779851)"><path d="M-1.55 -0.68 C39.49 -0.51, 81.23 -0.21, 175.08 2.24" stroke="#343a40" stroke-width="1.5" fill="none" stroke-dasharray="8 9"></path></g><g stroke-opacity="0.6" fill-opacity="0.6" transform="translate(1241.4751696951018 295.2420268246442) rotate(0 86.76538458986306 0.7817094310779851)"><path d="M-1.37 -1.56 L11.6 -6.04 L13.16 5.85 L-0.38 -2.6" stroke="none" stroke-width="0" fill="#343a40" fill-rule="evenodd"></path><path d="M-2.72 -1.18 C0.63 -1.56, 4.46 -2.94, 11.63 -5.91 M12.39 -6.27 C11.45 -2.52, 11.17 -0.58, 11.38 6.41 M11.15 5.56 C6.44 2.59, -0.04 0.28, -0.35 0.71 M-1.55 -0.68 C-1.55 -0.68, -1.55 -0.68, -1.55 -0.68" stroke="#343a40" stroke-width="1.5" fill="none"></path></g><g stroke-opacity="0.6" fill-opacity="0.6" transform="translate(1241.4751696951018 295.2420268246442) rotate(0 86.76538458986306 0.7817094310779851)"><path d="M175.26 1.36 L160.83 9.07 L162.83 -4.39 L176.26 0.31" stroke="none" stroke-width="0" fill="#343a40" fill-rule="evenodd"></path><path d="M173.92 1.73 C170.82 4.45, 168.26 5.9, 160.86 9.2 M161.62 8.84 C160.57 5.39, 160.41 0.12, 161.05 -3.83 M160.82 -4.68 C166.79 -2.54, 170.9 0.32, 176.29 3.62 M175.08 2.24 C175.08 2.24, 175.08 2.24, 175.08 2.24" stroke="#343a40" stroke-width="1.5" fill="none"></path></g></g><mask></mask><g stroke-linecap="round"><g stroke-opacity="0.6" fill-opacity="0.6" transform="translate(1359.699840413104 583.1694731116132) rotate(0 31.14742240500925 -0.08813589657404464)"><path d="M-1.38 0.91 C24.71 0.02, 49.79 -0.88, 63.67 -1.09" stroke="#343a40" stroke-width="1.5" fill="none" stroke-dasharray="8 9"></path></g><g stroke-opacity="0.6" fill-opacity="0.6" transform="translate(1359.699840413104 583.1694731116132) rotate(0 31.14742240500925 -0.08813589657404464)"><path d="M-1.89 1.72 L13.19 -5.85 L13.6 4.88 L0.32 1.27" stroke="none" stroke-width="0" fill="#343a40" fill-rule="evenodd"></path><path d="M-2.41 1.6 C3.56 -0.98, 8.74 -3.44, 11.77 -4.45 M11.26 -5.14 C11.13 -4.27, 11.61 -0.21, 13.6 7.66 M12.25 6.09 C6.71 4.43, 4.85 4.4, -1.8 0.2 M-1.38 0.91 C-1.38 0.91, -1.38 0.91, -1.38 0.91" stroke="#343a40" stroke-width="1.5" fill="none"></path></g><g stroke-opacity="0.6" fill-opacity="0.6" transform="translate(1359.699840413104 583.1694731116132) rotate(0 31.14742240500925 -0.08813589657404464)"><path d="M63.15 -0.28 L51.42 5.59 L51.1 -9.03 L65.37 -0.73" stroke="none" stroke-width="0" fill="#343a40" fill-rule="evenodd"></path><path d="M62.64 -0.4 C57.93 2.22, 52.55 5.05, 49.99 6.98 M49.49 6.3 C49.16 2.1, 49.49 1.08, 51.1 -6.25 M49.76 -7.82 C52.94 -5.63, 59.88 -1.86, 63.24 -1.8 M63.67 -1.09 C63.67 -1.09, 63.67 -1.09, 63.67 -1.09" stroke="#343a40" stroke-width="1.5" fill="none"></path></g></g><mask></mask><g stroke-linecap="round"><g stroke-opacity="0.6" fill-opacity="0.6" transform="translate(1534.8444979763415 382.491805612883) rotate(0 -0.7236117188457456 55.43060508699659)"><path d="M-0.52 0.98 C-1.11 30.39, -0.49 60.16, -0.93 109.88" stroke="#343a40" stroke-width="1.5" fill="none" stroke-dasharray="8 9"></path></g><g stroke-opacity="0.6" fill-opacity="0.6" transform="translate(1534.8444979763415 382.491805612883) rotate(0 -0.7236117188457456 55.43060508699659)"><path d="M0.67 1 L6.95 12.67 L-5.21 14.91 L-2.09 2.36" stroke="none" stroke-width="0" fill="#343a40" fill-rule="evenodd"></path><path d="M-0.91 1.71 C0.58 5.52, 2.5 9.62, 4.27 14.92 M4.79 13.66 C0.8 15.24, -1.82 15.5, -6.66 13.86 M-8.25 14.09 C-3.88 12.13, -3.7 6.2, -0.34 -0.5 M-0.52 0.98 C-0.52 0.98, -0.52 0.98, -0.52 0.98" stroke="#343a40" stroke-width="1.5" fill="none"></path></g><g stroke-opacity="0.6" fill-opacity="0.6" transform="translate(1534.8444979763415 382.491805612883) rotate(0 -0.7236117188457456 55.43060508699659)"><path d="M0.26 109.91 L-6.04 94.34 L7.16 96.67 L-2.5 111.26" stroke="none" stroke-width="0" fill="#343a40" fill-rule="evenodd"></path><path d="M-1.32 110.62 C-2.99 107.23, -4.41 104.07, -8.71 96.58 M-8.19 95.33 C-3.41 96.79, 2.74 97.09, 5.71 95.62 M4.13 95.85 C4.85 101.5, 1.41 103.24, -0.75 108.4 M-0.93 109.88 C-0.93 109.88, -0.93 109.88, -0.93 109.88" stroke="#343a40" stroke-width="1.5" fill="none"></path></g></g><mask></mask><g stroke-linecap="round"><g stroke-opacity="0.6" fill-opacity="0.6" transform="translate(1093.5978865241736 379.861218559241) rotate(0 20.31068504557652 53.143717544355525)"><path d="M-0.64 1.26 C13.36 38.41, 25.62 73.66, 41.26 105.03" stroke="#343a40" stroke-width="1.5" fill="none" stroke-dasharray="8 9"></path></g><g stroke-opacity="0.6" fill-opacity="0.6" transform="translate(1093.5978865241736 379.861218559241) rotate(0 20.31068504557652 53.143717544355525)"><path d="M0.53 -0.67 L11.84 12.04 L-3.26 17.6 L-1.18 2.98" stroke="none" stroke-width="0" fill="#343a40" fill-rule="evenodd"></path><path d="M-1.12 2.2 C2.83 6.22, 5.29 8.73, 10.84 10.8 M9.56 12.26 C7.05 14.08, 1.88 14.15, -1.91 16.07 M-0.48 17.6 C-1.72 11.73, -0.85 7.18, -0.14 0.65 M-0.64 1.26 C-0.64 1.26, -0.64 1.26, -0.64 1.26" stroke="#343a40" stroke-width="1.5" fill="none"></path></g><g stroke-opacity="0.6" fill-opacity="0.6" transform="translate(1093.5978865241736 379.861218559241) rotate(0 20.31068504557652 53.143717544355525)"><path d="M42.44 103.11 L31.56 95.64 L39.83 91.41 L40.73 106.75" stroke="none" stroke-width="0" fill="#343a40" fill-rule="evenodd"></path><path d="M40.78 105.97 C37.11 103.13, 31.91 98.67, 30.55 94.41 M29.27 95.87 C35.21 94.35, 38.41 90.92, 41.18 89.89 M42.61 91.41 C40.81 93.11, 41.37 96.13, 41.77 104.43 M41.26 105.03 C41.26 105.03, 41.26 105.03, 41.26 105.03" stroke="#343a40" stroke-width="1.5" fill="none"></path></g></g><mask></mask><g stroke-linecap="round"><g stroke-opacity="0.6" fill-opacity="0.6" transform="translate(1407.938931259584 393.2121788622895) rotate(0 -34.334145600434795 46.537774851580565)"><path d="M-0.31 1.89 C-26.55 33.22, -47.89 63.98, -68.36 91.19" stroke="#343a40" stroke-width="1.5" fill="none" stroke-dasharray="8 9"></path></g><g stroke-opacity="0.6" fill-opacity="0.6" transform="translate(1407.938931259584 393.2121788622895) rotate(0 -34.334145600434795 46.537774851580565)"><path d="M1.38 2.25 L-5.16 17.91 L-14.17 10.51 L-0.03 2.96" stroke="none" stroke-width="0" fill="#343a40" fill-rule="evenodd"></path><path d="M-0.55 3.31 C-3 7.34, -1.96 11.25, -2.72 15.37 M-2.42 17.39 C-5.58 14.13, -8.32 12.92, -14.23 7.65 M-14.06 8.07 C-9.93 5.33, -6.02 4.35, -1.44 1.42 M-0.31 1.89 C-0.31 1.89, -0.31 1.89, -0.31 1.89" stroke="#343a40" stroke-width="1.5" fill="none"></path></g><g stroke-opacity="0.6" fill-opacity="0.6" transform="translate(1407.938931259584 393.2121788622895) rotate(0 -34.334145600434795 46.537774851580565)"><path d="M-66.66 91.55 L-66.94 77.87 L-55.71 85.75 L-68.08 92.26" stroke="none" stroke-width="0" fill="#343a40" fill-rule="evenodd"></path><path d="M-68.59 92.6 C-68.77 86.36, -65.53 80.03, -64.5 75.33 M-64.19 77.35 C-62.85 77.46, -61.01 79.71, -55.78 82.89 M-55.6 83.32 C-58.49 84.59, -61.7 87.39, -69.49 90.72 M-68.36 91.19 C-68.36 91.19, -68.36 91.19, -68.36 91.19" stroke="#343a40" stroke-width="1.5" fill="none"></path></g></g><mask></mask><g stroke-linecap="round"><g stroke-opacity="0.6" fill-opacity="0.6" transform="translate(1124.7951563024458 681.4764984646208) rotate(0 -22.297452525320523 48.555159556927265)"><path d="M-2 0.43 C-14.15 34.63, -28.83 69.67, -42.6 96.68" stroke="#343a40" stroke-width="1.5" fill="none" stroke-dasharray="8 9"></path></g><g stroke-opacity="0.6" fill-opacity="0.6" transform="translate(1124.7951563024458 681.4764984646208) rotate(0 -22.297452525320523 48.555159556927265)"><path d="M-3.57 1.81 L-1.71 17.13 L-12.66 11.76 L-3.23 -0.36" stroke="none" stroke-width="0" fill="#343a40" fill-rule="evenodd"></path><path d="M-3.5 0.75 C-1.03 4.97, -0.55 10.13, -2.28 14.71 M-0.93 14.71 C-5.51 13.71, -9.97 11.08, -13.33 11.71 M-12.76 9.21 C-8.12 6.11, -5.46 2.23, -0.85 -0.45 M-2 0.43 C-2 0.43, -2 0.43, -2 0.43" stroke="#343a40" stroke-width="1.5" fill="none"></path></g><g stroke-opacity="0.6" fill-opacity="0.6" transform="translate(1124.7951563024458 681.4764984646208) rotate(0 -22.297452525320523 48.555159556927265)"><path d="M-44.16 98.06 L-42.99 83.41 L-30.74 88.23 L-43.83 95.9" stroke="none" stroke-width="0" fill="#343a40" fill-rule="evenodd"></path><path d="M-44.1 97 C-41.83 90.36, -41.6 84.64, -43.56 80.99 M-42.21 80.99 C-38.66 83.35, -35.08 84.26, -31.41 88.17 M-30.84 85.67 C-35.08 90.23, -41.25 94.11, -41.45 95.8 M-42.6 96.68 C-42.6 96.68, -42.6 96.68, -42.6 96.68" stroke="#343a40" stroke-width="1.5" fill="none"></path></g></g><mask></mask><g stroke-linecap="round"><g stroke-opacity="0.6" fill-opacity="0.6" transform="translate(1095.7162544134324 986.2931695511439) rotate(0 1.542923422625222 67.32395666919285)"><path d="M0.92 -1.17 C0.59 51.29, -1.28 104.75, 2.87 135.82" stroke="#343a40" stroke-width="1.5" fill="none" stroke-dasharray="8 9"></path></g><g stroke-opacity="0.6" fill-opacity="0.6" transform="translate(1095.7162544134324 986.2931695511439) rotate(0 1.542923422625222 67.32395666919285)"><path d="M0.38 0.55 L7.49 13.52 L-6.7 11.61 L-0.85 -0.16" stroke="none" stroke-width="0" fill="#343a40" fill-rule="evenodd"></path><path d="M1.61 -2.05 C4.13 3.02, 4.64 8.86, 7.91 13.83 M6.99 12.3 C1.95 11.23, -2.51 13.36, -4.3 12.04 M-4.96 11.79 C-5 8.57, -1.11 4.73, 1.47 -1.04 M0.92 -1.17 C0.92 -1.17, 0.92 -1.17, 0.92 -1.17" stroke="#343a40" stroke-width="1.5" fill="none"></path></g><g stroke-opacity="0.6" fill-opacity="0.6" transform="translate(1095.7162544134324 986.2931695511439) rotate(0 1.542923422625222 67.32395666919285)"><path d="M2.34 137.54 L-4.12 123.77 L7.02 121.03 L1.11 136.83" stroke="none" stroke-width="0" fill="#343a40" fill-rule="evenodd"></path><path d="M3.56 134.94 C1.01 129.5, -3.83 124.78, -3.7 124.09 M-4.61 122.55 C-0.34 121.31, 4.52 123.14, 9.42 121.46 M8.76 121.21 C5.78 124.84, 6.7 127.96, 3.42 135.95 M2.87 135.82 C2.87 135.82, 2.87 135.82, 2.87 135.82" stroke="#343a40" stroke-width="1.5" fill="none"></path></g></g><mask></mask><g stroke-linecap="round"><g stroke-opacity="0.6" fill-opacity="0.6" transform="translate(695.2085026460118 1053.966717137463) rotate(0 121.74237014509026 -76.08991378210249)"><path d="M0.88 -1.17 C75.99 -48.26, 155.45 -94.77, 242.61 -151.01" stroke="#343a40" stroke-width="1.5" fill="none" stroke-dasharray="8 9"></path></g><g stroke-opacity="0.6" fill-opacity="0.6" transform="translate(695.2085026460118 1053.966717137463) rotate(0 121.74237014509026 -76.08991378210249)"><path d="M1.15 -0.1 L7.91 -14.48 L14.01 -1.88 L-0.74 0.26" stroke="none" stroke-width="0" fill="#343a40" fill-rule="evenodd"></path><path d="M1.75 -2.33 C2.37 -5.85, 6.83 -7.78, 10.16 -13.4 M8.54 -14.83 C10.36 -10.01, 13.55 -8.74, 15.18 -2.74 M14.65 -3.35 C13.93 -3.48, 10.33 -2.13, 0.21 -1.56 M0.88 -1.17 C0.88 -1.17, 0.88 -1.17, 0.88 -1.17" stroke="#343a40" stroke-width="1.5" fill="none"></path></g><g stroke-opacity="0.6" fill-opacity="0.6" transform="translate(695.2085026460118 1053.966717137463) rotate(0 121.74237014509026 -76.08991378210249)"><path d="M242.89 -149.93 L233.26 -139.17 L225.96 -148.1 L240.99 -149.57" stroke="none" stroke-width="0" fill="#343a40" fill-rule="evenodd"></path><path d="M243.48 -152.17 C238.95 -147.7, 238.15 -141.55, 235.51 -138.1 M233.9 -139.52 C232.46 -140.01, 232.36 -144.02, 227.13 -148.96 M226.6 -149.57 C231.87 -150.31, 234.26 -149.68, 241.95 -151.4 M242.61 -151.01 C242.61 -151.01, 242.61 -151.01, 242.61 -151.01" stroke="#343a40" stroke-width="1.5" fill="none"></path></g></g><mask></mask><g stroke-linecap="round"><g stroke-opacity="0.6" fill-opacity="0.6" transform="translate(582.2499402812 896.9035297205444) rotate(0 8.33124611612675 82.52392682132125)"><path d="M-1.47 -0.93 C6.53 42.15, 11.6 80.83, 18.14 165.98" stroke="#343a40" stroke-width="1.5" fill="none" stroke-dasharray="8 9"></path></g><g stroke-opacity="0.6" fill-opacity="0.6" transform="translate(582.2499402812 896.9035297205444) rotate(0 8.33124611612675 82.52392682132125)"><path d="M-2.71 -1.72 L4.9 12.68 L-7.51 14.84 L-3.15 -2.39" stroke="none" stroke-width="0" fill="#343a40" fill-rule="evenodd"></path><path d="M-2.58 -1.63 C1.26 3.56, 3.55 5.5, 5.85 11.41 M6.27 12.69 C4.2 11.7, -1.19 12.71, -7.15 13.83 M-4.75 12.52 C-4.09 9.83, -4.15 5.58, -0.87 -0.04 M-1.47 -0.93 C-1.47 -0.93, -1.47 -0.93, -1.47 -0.93" stroke="#343a40" stroke-width="1.5" fill="none"></path></g><g stroke-opacity="0.6" fill-opacity="0.6" transform="translate(582.2499402812 896.9035297205444) rotate(0 8.33124611612675 82.52392682132125)"><path d="M16.91 165.19 L8.9 153.99 L21.68 153.33 L16.46 164.52" stroke="none" stroke-width="0" fill="#343a40" fill-rule="evenodd"></path><path d="M17.03 165.28 C16.95 164.17, 15.47 159.93, 9.84 152.72 M10.27 154 C15.48 152.42, 17.35 152.61, 22.04 152.32 M24.44 151.01 C22.4 155.67, 19.85 158.8, 18.74 166.87 M18.14 165.98 C18.14 165.98, 18.14 165.98, 18.14 165.98" stroke="#343a40" stroke-width="1.5" fill="none"></path></g></g><mask></mask><g stroke-linecap="round"><g stroke-opacity="0.6" fill-opacity="0.6" transform="translate(757.0488644947591 891.9466610432257) rotate(0 101.7196466738302 117.79329961283946)"><path d="M0.66 1.33 C44.91 53.25, 88.33 105.03, 202.78 234.26" stroke="#343a40" stroke-width="1.5" fill="none" stroke-dasharray="8 9"></path></g><g stroke-opacity="0.6" fill-opacity="0.6" transform="translate(757.0488644947591 891.9466610432257) rotate(0 101.7196466738302 117.79329961283946)"><path d="M-1.1 2.34 L12.71 8.95 L3.04 14.32 L0.24 -0.18" stroke="none" stroke-width="0" fill="#343a40" fill-rule="evenodd"></path><path d="M1.36 2.72 C4.68 3.06, 5.89 3.88, 14.16 6.8 M15.5 7.15 C11.68 9.47, 9 11.49, 4.2 14.81 M5.26 15.9 C2.85 11.47, 3.03 8.87, 0.68 2.21 M0.66 1.33 C0.66 1.33, 0.66 1.33, 0.66 1.33" stroke="#343a40" stroke-width="1.5" fill="none"></path></g><g stroke-opacity="0.6" fill-opacity="0.6" transform="translate(757.0488644947591 891.9466610432257) rotate(0 101.7196466738302 117.79329961283946)"><path d="M201.01 235.27 L187.42 229.68 L196.88 218.41 L202.36 232.75" stroke="none" stroke-width="0" fill="#343a40" fill-rule="evenodd"></path><path d="M203.47 235.65 C200.78 233.15, 195.89 231.26, 188.86 227.53 M190.2 227.88 C190.47 226.55, 191.82 225.06, 198.04 218.91 M199.11 220 C199.14 223.37, 201.54 228.53, 202.8 235.14 M202.78 234.26 C202.78 234.26, 202.78 234.26, 202.78 234.26" stroke="#343a40" stroke-width="1.5" fill="none"></path></g></g><mask></mask><g stroke-linecap="round"><g stroke-opacity="0.6" fill-opacity="0.6" transform="translate(1096.0197832627985 1323.973659540557) rotate(0 -2.4063190548687317 79.55895863955743)"><path d="M1.36 0.39 C-1.46 40.08, -1.71 79.87, -6.17 158.73" stroke="#343a40" stroke-width="1.5" fill="none" stroke-dasharray="8 9"></path></g><g stroke-opacity="0.6" fill-opacity="0.6" transform="translate(1096.0197832627985 1323.973659540557) rotate(0 -2.4063190548687317 79.55895863955743)"><path d="M-0.26 1.82 L5.39 12.8 L-6.02 12.17 L2.43 0.91" stroke="none" stroke-width="0" fill="#343a40" fill-rule="evenodd"></path><path d="M2.38 0.68 C2.05 3.59, 4.14 6.65, 5.72 13.79 M6.46 14.41 C0.99 14.43, -3.09 12.82, -5.99 14.65 M-6.26 13.28 C-3.36 11.35, -2.27 8.13, -0.09 1.66 M1.36 0.39 C1.36 0.39, 1.36 0.39, 1.36 0.39" stroke="#343a40" stroke-width="1.5" fill="none"></path></g><g stroke-opacity="0.6" fill-opacity="0.6" transform="translate(1096.0197832627985 1323.973659540557) rotate(0 -2.4063190548687317 79.55895863955743)"><path d="M-7.79 160.17 L-13.5 143.38 L0.42 143.96 L-5.1 159.26" stroke="none" stroke-width="0" fill="#343a40" fill-rule="evenodd"></path><path d="M-5.15 159.02 C-8.49 155, -9.27 151.03, -13.17 144.37 M-12.43 144.99 C-8.25 145.54, -2.69 144.4, 0.44 146.44 M0.17 145.08 C-0.2 149.57, -2.48 152.76, -7.61 160 M-6.17 158.73 C-6.17 158.73, -6.17 158.73, -6.17 158.73" stroke="#343a40" stroke-width="1.5" fill="none"></path></g></g><mask></mask><g stroke-linecap="round"><g stroke-opacity="0.6" fill-opacity="0.6" transform="translate(287.75637262998816 879.6563319801188) rotate(0 105.82000279014255 -21.031186219549625)"><path d="M-0.95 -0.3 C82.47 -18.21, 164.03 -34.96, 212.59 -41.76" stroke="#343a40" stroke-width="1.5" fill="none" stroke-dasharray="8 9"></path></g><g stroke-opacity="0.6" fill-opacity="0.6" transform="translate(287.75637262998816 879.6563319801188) rotate(0 105.82000279014255 -21.031186219549625)"><path d="M210.92 -43.21 L199.79 -34.79 L199.22 -45.27 L210.73 -39.78" stroke="none" stroke-width="0" fill="#343a40" fill-rule="evenodd"></path><path d="M211.78 -42.02 C207.62 -39.12, 201.59 -35.55, 201.42 -31.91 M198.96 -32.86 C199.2 -37.64, 198.76 -39.11, 197.4 -45.33 M198.75 -44.9 C202.61 -43.63, 205.61 -41.99, 212.86 -42.94 M212.59 -41.76 C212.59 -41.76, 212.59 -41.76, 212.59 -41.76" stroke="#343a40" stroke-width="1.5" fill="none"></path></g></g><mask></mask><g stroke-linecap="round"><g stroke-opacity="0.6" fill-opacity="0.6" transform="translate(724.4084327126006 1254.445445959826) rotate(0 111.37497000077167 140.303434288684)"><path d="M-0.15 -0.6 C69.18 89.83, 142.62 181.38, 222.9 281.21" stroke="#495057" stroke-width="1.5" fill="none" stroke-dasharray="8 9"></path></g><g stroke-opacity="0.6" fill-opacity="0.6" transform="translate(724.4084327126006 1254.445445959826) rotate(0 111.37497000077167 140.303434288684)"><path d="M-0.57 -2.11 L14.31 6.69 L1.41 15.98 L1.36 -1.3" stroke="none" stroke-width="0" fill="#495057" fill-rule="evenodd"></path><path d="M-0.32 -1.31 C2.75 1.12, 9.57 5.12, 12.81 5.45 M12.73 5.21 C9.66 9.61, 6.21 11.55, 3.39 13.44 M3.29 14.88 C0.83 11.29, 1.61 4.84, 0.89 -1 M-0.15 -0.6 C-0.15 -0.6, -0.15 -0.6, -0.15 -0.6" stroke="#495057" stroke-width="1.5" fill="none"></path></g><g stroke-opacity="0.6" fill-opacity="0.6" transform="translate(724.4084327126006 1254.445445959826) rotate(0 111.37497000077167 140.303434288684)"><path d="M222.48 279.7 L210.52 275.1 L217.46 268.62 L224.4 280.51" stroke="none" stroke-width="0" fill="#495057" fill-rule="evenodd"></path><path d="M222.72 280.5 C217.3 278.6, 215.55 278.33, 209.02 273.86 M208.93 273.62 C212.21 273.04, 214.94 270.06, 219.44 266.08 M219.35 267.52 C218.92 271.88, 221.61 273.43, 223.93 280.81 M222.9 281.21 C222.9 281.21, 222.9 281.21, 222.9 281.21" stroke="#495057" stroke-width="1.5" fill="none"></path></g></g><mask></mask><g stroke-linecap="round"><g stroke-opacity="0.6" fill-opacity="0.6" transform="translate(247.8363118149332 994.1747087020302) rotate(0 147.12229193064627 96.31769130948629)"><path d="M-1.15 -0.4 C84.37 57.02, 166.44 110.16, 295.4 193.04" stroke="#343a40" stroke-width="1.5" fill="none" stroke-dasharray="8 9"></path></g><g stroke-opacity="0.6" fill-opacity="0.6" transform="translate(247.8363118149332 994.1747087020302) rotate(0 147.12229193064627 96.31769130948629)"><path d="M-0.08 0.12 L11.83 3.75 L8.23 11.66 L-0.83 0.61" stroke="none" stroke-width="0" fill="#343a40" fill-rule="evenodd"></path><path d="M-2.49 -0.87 C4.25 1.66, 6.81 0.18, 13.87 0.28 M13.3 2.74 C10.58 5.71, 9.12 8.22, 6.4 12.87 M5.29 13.63 C4.16 6.64, 2.09 2.83, 0.14 -0.19 M-1.15 -0.4 C-1.15 -0.4, -1.15 -0.4, -1.15 -0.4" stroke="#343a40" stroke-width="1.5" fill="none"></path></g><g stroke-opacity="0.6" fill-opacity="0.6" transform="translate(247.8363118149332 994.1747087020302) rotate(0 147.12229193064627 96.31769130948629)"><path d="M296.47 193.56 L278.67 192.98 L288.9 179.64 L295.72 194.04" stroke="none" stroke-width="0" fill="#343a40" fill-rule="evenodd"></path><path d="M294.06 192.57 C292.41 193.77, 286.57 191.1, 280.71 189.52 M280.14 191.97 C282.12 187.96, 285.27 183.38, 287.07 180.86 M285.96 181.62 C290.55 183.69, 294.19 189.02, 296.69 193.24 M295.4 193.04 C295.4 193.04, 295.4 193.04, 295.4 193.04" stroke="#343a40" stroke-width="1.5" fill="none"></path></g></g><mask></mask><g stroke-linecap="round"><g stroke-opacity="0.6" fill-opacity="0.6" transform="translate(100.78256917221415 994.2133348664485) rotate(0 418.99814707533505 289.4103178755926)"><path d="M-0.37 0.97 C139.45 97.45, 698.86 481.63, 838.37 577.85" stroke="#495057" stroke-width="1.5" fill="none" stroke-dasharray="8 9"></path></g><g stroke-opacity="0.6" fill-opacity="0.6" transform="translate(100.78256917221415 994.2133348664485) rotate(0 418.99814707533505 289.4103178755926)"><path d="M-2.24 2.95 L15.92 2.75 L7.56 14.9 L0.76 1.69" stroke="none" stroke-width="0" fill="#495057" fill-rule="evenodd"></path><path d="M0.84 2.35 C2.92 0.93, 7.26 0.79, 14.92 2.84 M13.68 3.91 C12.89 5.29, 10.83 8.71, 7.99 13.91 M7.51 12.72 C5.67 8.92, 3.19 4.89, 0.43 0.04 M-0.37 0.97 C-0.37 0.97, -0.37 0.97, -0.37 0.97" stroke="#495057" stroke-width="1.5" fill="none"></path></g><g stroke-opacity="0.6" fill-opacity="0.6" transform="translate(100.78256917221415 994.2133348664485) rotate(0 418.99814707533505 289.4103178755926)"><path d="M836.5 579.84 L825.08 574.67 L831.08 565.93 L839.51 578.58" stroke="none" stroke-width="0" fill="#495057" fill-rule="evenodd"></path><path d="M839.58 579.23 C834.23 576.47, 831.09 575.07, 824.08 574.76 M822.83 575.83 C825.34 572.41, 826.51 571.14, 831.52 564.94 M831.03 563.75 C834.4 569.1, 837.39 574.35, 839.18 576.93 M838.37 577.85 C838.37 577.85, 838.37 577.85, 838.37 577.85" stroke="#495057" stroke-width="1.5" fill="none"></path></g></g><mask></mask><g stroke-linecap="round"><g stroke-opacity="0.6" fill-opacity="0.6" transform="translate(143.05161162004788 787.2733321190298) rotate(0 393.7239836393546 -277.786898305124)"><path d="M-0.23 -0.38 C210.32 -152.95, 422.51 -301.74, 787.68 -555.19" stroke="#343a40" stroke-width="1.5" fill="none" stroke-dasharray="8 9"></path></g><g stroke-opacity="0.6" fill-opacity="0.6" transform="translate(143.05161162004788 787.2733321190298) rotate(0 393.7239836393546 -277.786898305124)"><path d="M1.28 -1.08 L7.52 -12.41 L15.67 -2.35 L-1.32 -2.21" stroke="none" stroke-width="0" fill="#343a40" fill-rule="evenodd"></path><path d="M-0.65 -1.09 C1.84 -5.43, 4.16 -8.07, 6.06 -13.88 M7.31 -13.97 C9.57 -9.03, 13.42 -5.63, 15.27 -4.29 M15.56 -3.47 C10.15 -1.94, 3.98 -2.04, -0.82 -1.7 M-0.23 -0.38 C-0.23 -0.38, -0.23 -0.38, -0.23 -0.38" stroke="#343a40" stroke-width="1.5" fill="none"></path></g><g stroke-opacity="0.6" fill-opacity="0.6" transform="translate(143.05161162004788 787.2733321190298) rotate(0 393.7239836393546 -277.786898305124)"><path d="M789.18 -555.9 L780.46 -541.22 L774.03 -551.91 L786.58 -557.03" stroke="none" stroke-width="0" fill="#343a40" fill-rule="evenodd"></path><path d="M787.25 -555.91 C785.93 -553.12, 784.23 -548.75, 779 -542.69 M780.25 -542.79 C777.14 -545.61, 775.5 -550.02, 773.64 -553.85 M773.93 -553.04 C779.87 -553.29, 785.07 -555.41, 787.09 -556.52 M787.68 -555.19 C787.68 -555.19, 787.68 -555.19, 787.68 -555.19" stroke="#343a40" stroke-width="1.5" fill="none"></path></g></g><mask></mask><g stroke-linecap="round"><g stroke-opacity="0.6" fill-opacity="0.6" transform="translate(842.2582247977705 1205.1374343778702) rotate(0 54.06827412675227 20.196773328008476)"><path d="M0.23 -1.97 C42.25 16.77, 81.77 34.03, 107.9 42.37" stroke="#343a40" stroke-width="1.5" fill="none" stroke-dasharray="8 9"></path></g><g stroke-opacity="0.6" fill-opacity="0.6" transform="translate(842.2582247977705 1205.1374343778702) rotate(0 54.06827412675227 20.196773328008476)"><path d="M0.55 -0.97 L16.36 -1.72 L9.14 7.37 L0.23 -1.83" stroke="none" stroke-width="0" fill="#343a40" fill-rule="evenodd"></path><path d="M0.41 -3.45 C6.62 -2.69, 10.86 -2.74, 16.38 -3.33 M14.9 -1.93 C14.31 1.47, 12.62 4.16, 11.31 9.43 M11.53 9.41 C8.75 5.78, 5.14 2.9, 0.99 -3.19 M0.23 -1.97 C0.23 -1.97, 0.23 -1.97, 0.23 -1.97" stroke="#343a40" stroke-width="1.5" fill="none"></path></g><g stroke-opacity="0.6" fill-opacity="0.6" transform="translate(842.2582247977705 1205.1374343778702) rotate(0 54.06827412675227 20.196773328008476)"><path d="M108.22 43.37 L94.1 44.42 L96.19 29.95 L107.9 42.51" stroke="none" stroke-width="0" fill="#343a40" fill-rule="evenodd"></path><path d="M108.08 40.89 C102.54 42.21, 95.05 42.88, 94.11 42.82 M92.63 44.21 C95.16 39.72, 96.6 34.47, 98.35 32.01 M98.57 31.99 C100.51 33.23, 101.47 35.18, 108.66 41.15 M107.9 42.37 C107.9 42.37, 107.9 42.37, 107.9 42.37" stroke="#343a40" stroke-width="1.5" fill="none"></path></g></g><mask></mask><g stroke-opacity="0.6" fill-opacity="0.6" stroke-linecap="round" transform="translate(1431.3268095372005 901.9559225055833) rotate(0 135.92404319006232 86.09573965403024)"><path d="M0.52 -0.63 C67.47 1.61, 138.5 1.18, 272.42 0.14 M0.47 0.01 C70.01 -1.61, 139.76 -0.72, 271.24 0.54 M272.92 -1.23 C272.55 45.27, 274.34 92.46, 273.29 170.52 M272.38 0.26 C270.55 40.13, 272.24 77.92, 272.01 172.69 M270.42 172.19 C174.96 171.95, 79.06 171.51, -1.23 172.89 M271.2 171.8 C179.97 173.6, 86.88 174.49, -0.12 172.73 M1.58 173.43 C0.63 121.95, -0.68 67.46, -0.33 1.39 M-0.54 172.56 C0.77 115.12, 0.22 57.75, 0.34 0.08" stroke="#087f5b" stroke-width="4" fill="none"></path></g><g stroke-opacity="0.6" fill-opacity="0.6" transform="translate(1465.4247128685045 948.9101153763585) rotate(0 103 45.5)"><text x="103" y="0" font-family="Virgil, Segoe UI Emoji" font-size="36px" fill="#087f5b" text-anchor="middle" style="white-space: pre;" direction="ltr" dominant-baseline="text-before-edge">data </text><text x="103" y="45.5" font-family="Virgil, Segoe UI Emoji" font-size="36px" fill="#087f5b" text-anchor="middle" style="white-space: pre;" direction="ltr" dominant-baseline="text-before-edge">management</text></g><g stroke-opacity="0.6" fill-opacity="0.6" stroke-linecap="round" transform="translate(1431.3268095372005 1229.5867044643433) rotate(0 135.92404319006232 86.09573965403024)"><path d="M1.2 -0.91 C71.15 0.8, 140.47 0.25, 272.48 0.93 M0.66 0.14 C81.29 2.58, 163.59 2.71, 271.96 0.42 M272.86 -1.62 C272.61 39.37, 269.72 81.68, 270.34 173.26 M272.6 -0.35 C270.4 56.67, 270.81 112.69, 271.3 171.28 M273.07 172.67 C189.08 174.13, 109.39 173.44, 1.49 170.89 M271.95 172.47 C203.9 171.07, 136.19 170.57, -0.56 172.81 M-0.61 170.5 C-0.94 111.26, 0.06 47.51, -0.42 -1.08 M0.2 172.44 C-0.96 114.21, -1.88 55.2, 0.88 0.77" stroke="#087f5b" stroke-width="4" fill="none"></path></g><g stroke-opacity="0.6" fill-opacity="0.6" transform="translate(1439.4414750257956 1276.036953298109) rotate(0 137 45.5)"><text x="137" y="0" font-family="Virgil, Segoe UI Emoji" font-size="36px" fill="#087f5b" text-anchor="middle" style="white-space: pre;" direction="ltr" dominant-baseline="text-before-edge">version control </text><text x="137" y="45.5" font-family="Virgil, Segoe UI Emoji" font-size="36px" fill="#087f5b" text-anchor="middle" style="white-space: pre;" direction="ltr" dominant-baseline="text-before-edge">&amp; documenting</text></g><g stroke-linecap="round"><g stroke-opacity="0.6" fill-opacity="0.6" transform="translate(1237.3849013170168 882.9854368326859) rotate(0 87.59576172082393 45.03082005045758)"><path d="M-0.88 -0.52 C44.11 22.49, 86.3 43.93, 176.07 90.58" stroke="#343a40" stroke-width="1.5" fill="none" stroke-dasharray="8 9"></path></g><g stroke-opacity="0.6" fill-opacity="0.6" transform="translate(1237.3849013170168 882.9854368326859) rotate(0 87.59576172082393 45.03082005045758)"><path d="M-0.27 -2.09 L15 0.85 L8.32 13.23 L-2.55 -1.53" stroke="none" stroke-width="0" fill="#343a40" fill-rule="evenodd"></path><path d="M-1.55 -0.91 C3.34 0.5, 6.38 0.62, 12.66 1.32 M13.77 1.14 C12.35 4.35, 9.56 6.76, 7.2 11.97 M7.23 11.01 C5.09 9.46, 4.6 4.66, 0.6 0.61 M-0.88 -0.52 C-0.88 -0.52, -0.88 -0.52, -0.88 -0.52" stroke="#343a40" stroke-width="1.5" fill="none"></path></g><g stroke-opacity="0.6" fill-opacity="0.6" transform="translate(1237.3849013170168 882.9854368326859) rotate(0 87.59576172082393 45.03082005045758)"><path d="M176.69 89 L161.98 90.76 L166.92 80.6 L174.41 89.57" stroke="none" stroke-width="0" fill="#343a40" fill-rule="evenodd"></path><path d="M175.41 90.19 C173.06 91.34, 168.86 91.17, 159.64 91.23 M160.75 91.05 C163.21 87.02, 164.1 82.26, 165.8 79.34 M165.83 78.38 C167.88 82.18, 171.41 82.58, 177.56 91.71 M176.07 90.58 C176.07 90.58, 176.07 90.58, 176.07 90.58" stroke="#343a40" stroke-width="1.5" fill="none"></path></g></g><mask></mask><g stroke-linecap="round"><g stroke-opacity="0.6" fill-opacity="0.6" transform="translate(1558.6017203035565 1088.9954712096628) rotate(0 -0.25657339007392466 60.77436913284032)"><path d="M0.81 1.19 C-0.63 38.84, -2.7 77.03, -0.03 120.36" stroke="#343a40" stroke-width="1.5" fill="none" stroke-dasharray="8 9"></path></g><g stroke-opacity="0.6" fill-opacity="0.6" transform="translate(1558.6017203035565 1088.9954712096628) rotate(0 -0.25657339007392466 60.77436913284032)"><path d="M1.7 2 L6.8 16.85 L-7.54 13.61 L2.5 -0.37" stroke="none" stroke-width="0" fill="#343a40" fill-rule="evenodd"></path><path d="M1.42 2.09 C2.62 6.34, 3 10.98, 7.06 13.77 M6.97 15.63 C1.34 14.44, -3.68 15.46, -6.91 15.53 M-7.01 15.42 C-3.94 10.33, -1.4 9.95, 0.28 1.43 M0.81 1.19 C0.81 1.19, 0.81 1.19, 0.81 1.19" stroke="#343a40" stroke-width="1.5" fill="none"></path></g><g stroke-opacity="0.6" fill-opacity="0.6" transform="translate(1558.6017203035565 1088.9954712096628) rotate(0 -0.25657339007392466 60.77436913284032)"><path d="M0.87 121.16 L-6.82 108.89 L4.19 105.55 L1.66 118.79" stroke="none" stroke-width="0" fill="#343a40" fill-rule="evenodd"></path><path d="M0.58 121.25 C-2.05 117.09, -5.61 113.35, -6.55 105.81 M-6.64 107.66 C-2.92 106.22, 1.41 107.2, 4.83 107.47 M4.72 107.36 C4.87 108.13, 4.7 113.64, -0.55 120.6 M-0.03 120.36 C-0.03 120.36, -0.03 120.36, -0.03 120.36" stroke="#343a40" stroke-width="1.5" fill="none"></path></g></g><mask></mask><g stroke-linecap="round"><g stroke-opacity="0.6" fill-opacity="0.6" transform="translate(1248.7077444923175 1529.8339410999215) rotate(0 89.65331683862212 -53.502263317742404)"><path d="M0.02 1.04 C46.71 -28.92, 97.53 -61.29, 179.28 -108.05" stroke="#343a40" stroke-width="1.5" fill="none" stroke-dasharray="8 9"></path></g><g stroke-opacity="0.6" fill-opacity="0.6" transform="translate(1248.7077444923175 1529.8339410999215) rotate(0 89.65331683862212 -53.502263317742404)"><path d="M0.02 2.95 L6.55 -12.54 L16.6 -2.33 L0.3 1.76" stroke="none" stroke-width="0" fill="#343a40" fill-rule="evenodd"></path><path d="M0.04 1.92 C0.77 -1.18, 4.73 -7.07, 9.25 -11.93 M7.43 -12.02 C9.69 -6.76, 12.38 -2.34, 13.85 -1.69 M15.31 -2.16 C12.23 0.95, 6.07 0.56, 0.78 1.89 M0.02 1.04 C0.02 1.04, 0.02 1.04, 0.02 1.04" stroke="#343a40" stroke-width="1.5" fill="none"></path></g><g stroke-opacity="0.6" fill-opacity="0.6" transform="translate(1248.7077444923175 1529.8339410999215) rotate(0 89.65331683862212 -53.502263317742404)"><path d="M179.29 -106.14 L169.08 -96.73 L166.04 -108.23 L179.56 -107.33" stroke="none" stroke-width="0" fill="#343a40" fill-rule="evenodd"></path><path d="M179.3 -107.16 C175.55 -103.34, 174.92 -102.41, 171.78 -96.12 M169.96 -96.21 C167.14 -99.27, 164.76 -103.23, 163.29 -107.59 M164.74 -108.06 C170.01 -106, 172.17 -107.28, 180.04 -107.19 M179.28 -108.05 C179.28 -108.05, 179.28 -108.05, 179.28 -108.05" stroke="#343a40" stroke-width="1.5" fill="none"></path></g></g><mask></mask><g stroke-linecap="round"><g stroke-opacity="0.6" fill-opacity="0.6" transform="translate(1244.9061700935035 985.622852282817) rotate(0 81.03428887109487 128.13952576208237)"><path d="M-1.41 1.24 C58.62 89.81, 117.71 182.21, 163.47 255.04" stroke="#343a40" stroke-width="1.5" fill="none" stroke-dasharray="8 9"></path></g><g stroke-opacity="0.6" fill-opacity="0.6" transform="translate(1244.9061700935035 985.622852282817) rotate(0 81.03428887109487 128.13952576208237)"><path d="M-3.07 0.23 L13.04 7.57 L1.02 16.8 L-1.71 2.62" stroke="none" stroke-width="0" fill="#343a40" fill-rule="evenodd"></path><path d="M-2.85 2.51 C3.45 2.83, 8.81 6.44, 12.64 9.34 M10.23 9.77 C6.53 12.46, 2.75 13.08, 0.48 15.13 M2.24 17.21 C-0.58 11.05, -0.06 6.42, -0.86 0.42 M-1.41 1.24 C-1.41 1.24, -1.41 1.24, -1.41 1.24" stroke="#343a40" stroke-width="1.5" fill="none"></path></g><g stroke-opacity="0.6" fill-opacity="0.6" transform="translate(1244.9061700935035 985.622852282817) rotate(0 81.03428887109487 128.13952576208237)"><path d="M161.81 254.03 L152.53 245.39 L161.83 240.88 L163.17 256.42" stroke="none" stroke-width="0" fill="#343a40" fill-rule="evenodd"></path><path d="M162.03 256.31 C159.2 251.03, 155.42 248.89, 152.14 247.15 M149.73 247.59 C153.65 245.5, 157.4 241.27, 161.29 239.21 M163.04 241.29 C161.75 245.68, 163.71 251.56, 164.02 254.22 M163.47 255.04 C163.47 255.04, 163.47 255.04, 163.47 255.04" stroke="#343a40" stroke-width="1.5" fill="none"></path></g></g><mask></mask><g stroke-opacity="0.6" fill-opacity="0.6" stroke-linecap="round" transform="translate(253.4975341677623 1415.1718559027154) rotate(0 135.92404319006232 86.09573965403024)"><path d="M-1.85 1 L270 -0.9 L272.1 172.81 L0.4 172.46" stroke="none" stroke-width="0" fill="#ced4da"></path><path d="M0.28 -1.22 C98.6 -2.22, 196.39 -1.58, 272.69 -0.96 M-0.63 0.56 C70.22 -1.64, 141.59 -1.66, 272.27 0.2 M271.15 0.32 C274.56 36.73, 274.28 70.1, 270.02 172.19 M272.15 -0.79 C273.31 53.33, 272.86 106.81, 271.02 171.69 M272.41 171.96 C168.4 172.47, 62.87 171.35, 1.23 173.16 M271.19 172.06 C181.28 171.8, 89.62 171.38, -0.42 172.48 M0.49 172.87 C-0.31 106.4, -2.22 44.69, 1.54 1.75 M-0.41 172.56 C0.04 105.01, 0.23 37.2, 0.35 0.85" stroke="#000000" stroke-width="1" fill="none"></path></g><g stroke-opacity="0.6" fill-opacity="0.6" transform="translate(296.00412732517543 1454.6285137966215) rotate(0 86.5 45.5)"><text x="86.5" y="0" font-family="Virgil, Segoe UI Emoji" font-size="36px" fill="#000000" text-anchor="middle" style="white-space: pre;" direction="ltr" dominant-baseline="text-before-edge">literature</text><text x="86.5" y="45.5" font-family="Virgil, Segoe UI Emoji" font-size="36px" fill="#000000" text-anchor="middle" style="white-space: pre;" direction="ltr" dominant-baseline="text-before-edge">review</text></g><g stroke-linecap="round"><g stroke-opacity="0.6" fill-opacity="0.6" transform="translate(538.0184237706248 1475.4357612017693) rotate(0 201.95985404694056 -88.33239472250011)"><path d="M0.86 0.14 C89.14 -39.08, 177.43 -78.35, 403.06 -176.8" stroke="#495057" stroke-width="1.5" fill="none" stroke-dasharray="8 9"></path></g><g stroke-opacity="0.6" fill-opacity="0.6" transform="translate(538.0184237706248 1475.4357612017693) rotate(0 201.95985404694056 -88.33239472250011)"><path d="M0.56 1.52 L10.72 -11.07 L14.41 2.02 L2.1 0.84" stroke="none" stroke-width="0" fill="#495057" fill-rule="evenodd"></path><path d="M2.16 0.35 C3.78 -3.26, 4.57 -6.16, 11.5 -12.37 M10.47 -12.11 C13.22 -6.47, 13.27 -1.24, 16.81 0 M16.4 -0.37 C9.75 0.43, 6.49 1.22, 2.04 0.6 M0.86 0.14 C0.86 0.14, 0.86 0.14, 0.86 0.14" stroke="#495057" stroke-width="1.5" fill="none"></path></g><g stroke-opacity="0.6" fill-opacity="0.6" transform="translate(538.0184237706248 1475.4357612017693) rotate(0 201.95985404694056 -88.33239472250011)"><path d="M402.76 -175.42 L393.13 -165.46 L386.61 -175.58 L404.3 -176.1" stroke="none" stroke-width="0" fill="#495057" fill-rule="evenodd"></path><path d="M404.35 -176.6 C401.74 -175.26, 398.15 -173.17, 393.9 -166.76 M392.88 -166.5 C392.03 -169.57, 388.28 -172.97, 389.01 -177.61 M388.6 -177.98 C391.43 -177.14, 397.65 -176.14, 404.23 -176.34 M403.06 -176.8 C403.06 -176.8, 403.06 -176.8, 403.06 -176.8" stroke="#495057" stroke-width="1.5" fill="none"></path></g></g><mask></mask><g stroke-linecap="round"><g stroke-opacity="0.6" fill-opacity="0.6" transform="translate(534.2881872310186 1516.7640152048389) rotate(0 199.8103178784213 40.91070513298587)"><path d="M0.6 -0.68 C108.75 21.51, 218.54 44.38, 399.02 82.51" stroke="#343a40" stroke-width="1.5" fill="none" stroke-dasharray="8 9"></path></g><g stroke-opacity="0.6" fill-opacity="0.6" transform="translate(534.2881872310186 1516.7640152048389) rotate(0 199.8103178784213 40.91070513298587)"><path d="M0.58 -0.6 L13.75 -2.55 L13.86 8.99 L1.87 -1.29" stroke="none" stroke-width="0" fill="#343a40" fill-rule="evenodd"></path><path d="M1.4 -1.61 C3.97 -2.97, 9.3 -3.8, 16.27 -5.38 M15.88 -3.79 C13.4 -0.07, 14.95 1.05, 12.82 8.93 M11.24 8.29 C8.41 5.9, 5.18 2.28, -0.59 -0.01 M0.6 -0.68 C0.6 -0.68, 0.6 -0.68, 0.6 -0.68" stroke="#343a40" stroke-width="1.5" fill="none"></path></g><g stroke-opacity="0.6" fill-opacity="0.6" transform="translate(534.2881872310186 1516.7640152048389) rotate(0 199.8103178784213 40.91070513298587)"><path d="M399.01 82.59 L382.97 87.49 L388.27 74.2 L400.3 81.9" stroke="none" stroke-width="0" fill="#343a40" fill-rule="evenodd"></path><path d="M399.83 81.58 C394.47 82.13, 391.83 83.17, 385.49 84.65 M385.09 86.24 C383.85 84.36, 386.58 79.84, 387.23 74.14 M385.65 73.5 C391.45 77.66, 396.8 80.45, 397.84 83.18 M399.02 82.51 C399.02 82.51, 399.02 82.51, 399.02 82.51" stroke="#343a40" stroke-width="1.5" fill="none"></path></g></g><mask></mask><g stroke-opacity="0.6" fill-opacity="0.6" transform="translate(73.10814006085457 10) rotate(0 765 57.5)"><text x="765" y="0" font-family="Virgil, Segoe UI Emoji" font-size="90.72013087866057px" fill="#000000" text-anchor="middle" style="white-space: pre;" direction="ltr" dominant-baseline="text-before-edge">the tangle of experimental physics</text></g><g stroke-linecap="round"><g stroke-opacity="0.6" fill-opacity="0.6" transform="translate(54.9895552749972 1003.7695589482827) rotate(0 109.67323023135305 193.7168013326043)"><path d="M0.5 -0.79 C52.3 92.55, 103.23 185.59, 218.85 388.23" stroke="#495057" stroke-width="1.5" fill="none" stroke-dasharray="8 9"></path></g><g stroke-opacity="0.6" fill-opacity="0.6" transform="translate(54.9895552749972 1003.7695589482827) rotate(0 109.67323023135305 193.7168013326043)"><path d="M1.74 -0.09 L13.93 7.38 L-0.11 13.83 L1.89 -0.13" stroke="none" stroke-width="0" fill="#495057" fill-rule="evenodd"></path><path d="M1.26 -2.01 C4.44 0.15, 5.17 3.19, 11.52 8.8 M13.6 7.55 C9.18 10.76, 6.09 12.59, 0.89 13.01 M2.75 14.63 C0.06 10.36, 1.52 5.2, 1.93 -2.04 M0.5 -0.79 C0.5 -0.79, 0.5 -0.79, 0.5 -0.79" stroke="#495057" stroke-width="1.5" fill="none"></path></g><g stroke-opacity="0.6" fill-opacity="0.6" transform="translate(54.9895552749972 1003.7695589482827) rotate(0 109.67323023135305 193.7168013326043)"><path d="M220.09 388.93 L207.91 378.92 L215.97 372.94 L220.24 388.89" stroke="none" stroke-width="0" fill="#495057" fill-rule="evenodd"></path><path d="M219.61 387.01 C217.05 384.79, 211.97 383.66, 205.5 380.34 M207.58 379.09 C210.49 378.02, 214.6 375.8, 216.96 372.11 M218.83 373.74 C216.84 378.42, 218.99 382.24, 220.28 386.98 M218.85 388.23 C218.85 388.23, 218.85 388.23, 218.85 388.23" stroke="#495057" stroke-width="1.5" fill="none"></path></g></g><mask></mask><g stroke-linecap="round"><g stroke-opacity="0.6" fill-opacity="0.6" transform="translate(1338.085547353102 691.0201980575102) rotate(0 99.76436667119174 93.50125628211464)"><path d="M1.12 -1.3 C41.53 41.09, 83.41 82.41, 198.41 188.3" stroke="#343a40" stroke-width="1.5" fill="none" stroke-dasharray="8 9"></path></g><g stroke-opacity="0.6" fill-opacity="0.6" transform="translate(1338.085547353102 691.0201980575102) rotate(0 99.76436667119174 93.50125628211464)"><path d="M2.39 -1.91 L13.56 3.39 L7.74 13.42 L1.09 -1.72" stroke="none" stroke-width="0" fill="#343a40" fill-rule="evenodd"></path><path d="M2.19 -2.56 C3.04 -0.44, 5.99 1.75, 15.64 2.33 M15.45 4.36 C12.49 7.76, 7.52 9.74, 6.35 12.85 M5.17 13.43 C4.97 7.73, 3.91 1.44, 0.36 -0.03 M1.12 -1.3 C1.12 -1.3, 1.12 -1.3, 1.12 -1.3" stroke="#343a40" stroke-width="1.5" fill="none"></path></g><g stroke-opacity="0.6" fill-opacity="0.6" transform="translate(1338.085547353102 691.0201980575102) rotate(0 99.76436667119174 93.50125628211464)"><path d="M199.69 187.69 L182.45 183.36 L194.16 175.07 L198.39 187.89" stroke="none" stroke-width="0" fill="#343a40" fill-rule="evenodd"></path><path d="M199.49 187.05 C194.28 186.9, 191.22 187.04, 184.53 182.29 M184.34 184.33 C188.23 180.47, 190.27 175.15, 192.77 174.5 M191.59 175.07 C195.51 179.38, 198.36 183.11, 197.66 189.57 M198.41 188.3 C198.41 188.3, 198.41 188.3, 198.41 188.3" stroke="#343a40" stroke-width="1.5" fill="none"></path></g></g><mask></mask><g stroke-linecap="round"><g stroke-opacity="0.6" fill-opacity="0.6" transform="translate(1625.3227406370822 696.2771536315272) rotate(0 1.0262019907719377 92.78812050801122)"><path d="M-1.45 -0.42 C0.15 41.51, 2.52 78.99, 3.51 186" stroke="#343a40" stroke-width="1.5" fill="none" stroke-dasharray="8 9"></path></g><g stroke-opacity="0.6" fill-opacity="0.6" transform="translate(1625.3227406370822 696.2771536315272) rotate(0 1.0262019907719377 92.78812050801122)"><path d="M-3.14 -0.75 L6.75 13.6 L-7.34 12.97 L-2.53 0.32" stroke="none" stroke-width="0" fill="#343a40" fill-rule="evenodd"></path><path d="M-2.55 -0.74 C-1 3.37, 2.02 4.09, 6.84 14.07 M6.08 13.4 C1.31 11.96, -1.36 13.34, -6.57 14.38 M-6.71 13.39 C-3.84 7.55, -4.09 5.5, -2.63 -0.21 M-1.45 -0.42 C-1.45 -0.42, -1.45 -0.42, -1.45 -0.42" stroke="#343a40" stroke-width="1.5" fill="none"></path></g><g stroke-opacity="0.6" fill-opacity="0.6" transform="translate(1625.3227406370822 696.2771536315272) rotate(0 1.0262019907719377 92.78812050801122)"><path d="M1.82 185.66 L-1.64 173.16 L9.62 171.89 L2.43 186.74" stroke="none" stroke-width="0" fill="#343a40" fill-rule="evenodd"></path><path d="M2.42 185.68 C0.85 183.79, 0.93 178.63, -1.55 173.63 M-2.32 172.96 C-0.37 171.22, 3.68 172.43, 10.38 173.3 M10.25 172.31 C8.93 175.61, 4.72 182.66, 2.34 186.2 M3.51 186 C3.51 186, 3.51 186, 3.51 186" stroke="#343a40" stroke-width="1.5" fill="none"></path></g></g><mask></mask><g stroke-linecap="round"><g stroke-opacity="0.6" fill-opacity="0.6" transform="translate(1002.1237129913814 773.7327656008041) rotate(0 -0.7861260933246967 -191.81123018052062)"><path d="M-0.89 0.64 C1.52 -84.23, 1.94 -165.36, -2.47 -384.26" stroke="#343a40" stroke-width="1.5" fill="none" stroke-dasharray="8 9"></path></g><g stroke-opacity="0.6" fill-opacity="0.6" transform="translate(1002.1237129913814 773.7327656008041) rotate(0 -0.7861260933246967 -191.81123018052062)"><path d="M0.5 1.3 L-7.18 -13.41 L4.44 -12.18 L0.61 1.18" stroke="none" stroke-width="0" fill="#343a40" fill-rule="evenodd"></path><path d="M-2.02 1.44 C-1.76 -3.72, -2.02 -4.14, -7.69 -12.75 M-7.85 -14.15 C-2.72 -12.92, 2.47 -12, 5.91 -13.92 M6.95 -14.17 C2.61 -6.98, -0.02 -3.37, -0.36 0.41 M-0.89 0.64 C-0.89 0.64, -0.89 0.64, -0.89 0.64" stroke="#343a40" stroke-width="1.5" fill="none"></path></g><g stroke-opacity="0.6" fill-opacity="0.6" transform="translate(1002.1237129913814 773.7327656008041) rotate(0 -0.7861260933246967 -191.81123018052062)"><path d="M-1.08 -383.6 L4.07 -371.19 L-9.66 -369.82 L-0.96 -383.71" stroke="none" stroke-width="0" fill="#343a40" fill-rule="evenodd"></path><path d="M-3.6 -383.45 C-0.76 -382.73, 1.76 -377.29, 3.57 -370.53 M3.4 -371.93 C-0.34 -370.56, -4.04 -369.58, -8.19 -371.56 M-7.15 -371.81 C-7.29 -374.01, -5.59 -379.8, -1.93 -384.48 M-2.47 -384.26 C-2.47 -384.26, -2.47 -384.26, -2.47 -384.26" stroke="#343a40" stroke-width="1.5" fill="none"></path></g></g><mask></mask><g stroke-opacity="0.6" fill-opacity="0.6" stroke-linecap="round" transform="translate(3242.4362966477765 203.800137636839) rotate(0 135.92404319006232 86.09573965403024)"><path d="M0.99 1.33 C79.95 1.37, 157.57 -1.29, 271.03 -0.47 M-0.48 -0.33 C76.47 1.27, 152.74 1.1, 271.35 -0.69 M272.15 -0.46 C270.06 55.3, 272.61 106.27, 272.06 171.74 M271.35 0.94 C270.05 38.19, 270.31 74.52, 272.31 172.95 M273.18 173.03 C194.67 170.82, 114.84 172.44, 0.11 171.49 M271.5 172.68 C167.25 173.76, 63.64 174.69, -0.34 172.11 M0.42 170.92 C0.14 116.84, 1.3 62.25, -0.54 -1.78 M-0.38 172.93 C2.02 119.15, 1.09 63.39, 0.94 -0.83" stroke="#c92a2a" stroke-width="4" fill="none"></path></g><g stroke-opacity="0.6" fill-opacity="0.6" transform="translate(3327.5208679905645 241.76863807357853) rotate(0 46 45.5)"><text x="46" y="0" font-family="Virgil, Segoe UI Emoji" font-size="36px" fill="#c92a2a" text-anchor="middle" style="white-space: pre;" direction="ltr" dominant-baseline="text-before-edge">rough</text><text x="46" y="45.5" font-family="Virgil, Segoe UI Emoji" font-size="36px" fill="#c92a2a" text-anchor="middle" style="white-space: pre;" direction="ltr" dominant-baseline="text-before-edge">plan</text></g><g stroke-opacity="0.6" fill-opacity="0.6" stroke-linecap="round" transform="translate(3356.9433158577895 496.72861807477034) rotate(0 135.92404319006232 86.09573965403024)"><path d="M-1.04 0.13 C89.71 -0.16, 178.84 0.79, 271.59 0.77 M0.49 -0.54 C66.66 -2.1, 132.91 -1.36, 271.24 -0.49 M272.08 1.02 C273.1 39.42, 273.32 80.92, 272.53 172.82 M272.11 0.17 C270.66 61.82, 271.61 123, 271.76 173.1 M271.97 170.71 C172.73 173.78, 70.96 172.39, 0.39 172.8 M272.23 171.62 C183.06 170.52, 95.96 169.73, -0.54 171.76 M-1.34 173.45 C-1.78 113.89, -2.47 53.35, 0.66 -0.47 M-0.14 173.03 C1.54 129.44, 2.31 86.24, 0.4 -0.5" stroke="#c92a2a" stroke-width="4" fill="none"></path></g><g stroke-opacity="0.6" fill-opacity="0.6" transform="translate(3405.9242727746396 536.1852759686766) rotate(0 91.5 45.5)"><text x="91.5" y="0" font-family="Virgil, Segoe UI Emoji" font-size="36px" fill="#c92a2a" text-anchor="middle" style="white-space: pre;" direction="ltr" dominant-baseline="text-before-edge">data </text><text x="91.5" y="45.5" font-family="Virgil, Segoe UI Emoji" font-size="36px" fill="#c92a2a" text-anchor="middle" style="white-space: pre;" direction="ltr" dominant-baseline="text-before-edge">acquisition</text></g><g stroke-opacity="0.6" fill-opacity="0.6" stroke-linecap="round" transform="translate(3246.3054011231743 794.6079229863087) rotate(0 135.92404319006232 86.09573965403024)"><path d="M-0.2 -1.05 C96.83 2.97, 193.62 1.8, 272.84 0.92 M0.4 -0.69 C86.8 -0.4, 174.52 -0.69, 272.02 0.35 M269.98 1.53 C272.09 41.1, 269.4 79.01, 273.43 172.97 M271.23 0.6 C272.49 46.92, 271.26 93.07, 271.29 172.65 M272.51 171.93 C212.71 172.57, 157.67 171.81, 0.84 173.07 M272.17 172.07 C173.05 173.27, 74.17 173.63, 0.52 172.54 M-0.03 173.89 C-0.57 115.75, 2.81 55.03, -0.6 0.87 M-0.32 171.46 C1.25 131.73, 0.98 91.24, -0.71 0.23" stroke="#c92a2a" stroke-width="4" fill="none"></path></g><g stroke-opacity="0.6" fill-opacity="0.6" transform="translate(3314.276477083892 843.0677906261876) rotate(0 69.5 45.5)"><text x="69.5" y="0" font-family="Virgil, Segoe UI Emoji" font-size="36px" fill="#c92a2a" text-anchor="middle" style="white-space: pre;" direction="ltr" dominant-baseline="text-before-edge">data </text><text x="69.5" y="45.5" font-family="Virgil, Segoe UI Emoji" font-size="36px" fill="#c92a2a" text-anchor="middle" style="white-space: pre;" direction="ltr" dominant-baseline="text-before-edge">analysis</text></g><g stroke-opacity="0.6" fill-opacity="0.6" stroke-linecap="round" transform="translate(2790.262985480658 708.9359346636984) rotate(0 135.92404319006232 86.09573965403024)"><path d="M1.12 0.08 C64.19 -0.8, 126.72 -2.34, 272.35 0.8 M0.22 -0.01 C57.56 -0.42, 114.26 -1.41, 272.34 -0.73 M270.79 -1.07 C274.84 65.61, 272.68 129.66, 273.41 170.96 M271.27 -0.25 C272.42 62.48, 272.1 123.58, 271.96 172.62 M273.34 171.58 C195.62 173.27, 118.72 171.17, 0.63 172.83 M272.03 172.77 C194.92 173.13, 117.23 172.18, -0.26 172.18 M1.49 171.08 C1.02 106.76, 0.36 38.85, 0.88 -0.65 M0.33 172.84 C-1.75 133.29, -0.11 94.43, 0.32 0.73" stroke="#c92a2a" stroke-width="4" fill="none"></path></g><g stroke-opacity="0.6" fill-opacity="0.6" transform="translate(2844.31648710019 756.3866765020902) rotate(0 77.5 45.5)"><text x="77.5" y="0" font-family="Virgil, Segoe UI Emoji" font-size="36px" fill="#c92a2a" text-anchor="middle" style="white-space: pre;" direction="ltr" dominant-baseline="text-before-edge">practical</text><text x="77.5" y="45.5" font-family="Virgil, Segoe UI Emoji" font-size="36px" fill="#c92a2a" text-anchor="middle" style="white-space: pre;" direction="ltr" dominant-baseline="text-before-edge">wisdom</text></g><g stroke-opacity="0.6" fill-opacity="0.6" stroke-linecap="round" transform="translate(2298.398524499631 806.2763895455375) rotate(0 135.92404319006232 86.09573965403024)"><path d="M-0.73 -1.27 L272.99 1.96 L272.65 172.73 L-0.69 173.93" stroke="none" stroke-width="0" fill="#ced4da"></path><path d="M0.32 -0.63 C83.52 -0.44, 164.65 -1.95, 272.42 0.45 M-0.53 -0.63 C81.84 -1.69, 163.29 -0.32, 272.26 -0.41 M271.27 -0.01 C274.77 41.19, 274.41 86.14, 272.36 171.04 M270.98 -0.45 C271.01 47.84, 270.73 93.98, 271.94 173.15 M272.85 170.97 C201.65 174.03, 129.95 173.65, 0.43 172.56 M272.14 171.59 C170.01 173.12, 69.37 172.4, 0.62 172.77 M-1.26 171.44 C1.4 129.5, -0.94 89.3, 0.67 0.66 M0.93 172.68 C1.55 110.03, 1.93 46.95, 0.05 0.26" stroke="#000000" stroke-width="1" fill="none"></path></g><g stroke-opacity="0.6" fill-opacity="0.6" transform="translate(2307.0261802409846 850.2315684255652) rotate(0 135.5 45.5)"><text x="135.5" y="0" font-family="Virgil, Segoe UI Emoji" font-size="36px" fill="#000000" text-anchor="middle" style="white-space: pre;" direction="ltr" dominant-baseline="text-before-edge">theoretical-ish </text><text x="135.5" y="45.5" font-family="Virgil, Segoe UI Emoji" font-size="36px" fill="#000000" text-anchor="middle" style="white-space: pre;" direction="ltr" dominant-baseline="text-before-edge">idea(s)</text></g><g stroke-opacity="0.6" fill-opacity="0.6" stroke-linecap="round" transform="translate(3255.6057078290487 1131.806328540055) rotate(0 135.92404319006232 86.09573965403024)"><path d="M0.42 0.03 C67.61 -3.07, 133.78 -3.38, 270.57 0.02 M-0.46 0.59 C77.98 -0.84, 155.33 -0.05, 271.75 0.36 M272.16 -1.22 C269.07 58.66, 269.24 115.13, 272.96 172.29 M270.89 0.62 C271.06 65.35, 271.35 132.79, 271.63 171.57 M270.82 173.39 C215.93 171.64, 158.31 169.64, -1.56 171.27 M271.78 172.76 C192.97 174.39, 113.16 173.81, 0.04 172.85 M-1.22 173.94 C0.45 114.03, 1.19 59.82, 0.39 0.85 M-0.37 171.27 C-0.07 117.97, -0.34 61.52, 0.59 -0.66" stroke="#c92a2a" stroke-width="4" fill="none"></path></g><g stroke-opacity="0.6" fill-opacity="0.6" transform="translate(3318.6021891757223 1178.7481858633705) rotate(0 69.5 45.5)"><text x="69.5" y="0" font-family="Virgil, Segoe UI Emoji" font-size="36px" fill="#c92a2a" text-anchor="middle" style="white-space: pre;" direction="ltr" dominant-baseline="text-before-edge">critical </text><text x="69.5" y="45.5" font-family="Virgil, Segoe UI Emoji" font-size="36px" fill="#c92a2a" text-anchor="middle" style="white-space: pre;" direction="ltr" dominant-baseline="text-before-edge">analysis</text></g><g stroke-opacity="0.6" fill-opacity="0.6" stroke-linecap="round" transform="translate(2848.713249066032 1077.252632474686) rotate(0 135.92404319006232 86.09573965403024)"><path d="M-0.19 1.4 C54.16 1.26, 110.46 0.91, 271.65 0.36 M-0.44 0.64 C88.24 -2.14, 176.69 -1.53, 271.64 -0.61 M270.56 -1.6 C270.42 40.63, 268.7 79.21, 269.85 172.24 M272.49 0.72 C273.88 60.25, 273.16 120.66, 272.56 172.38 M270.64 171.39 C215.11 172.53, 161.74 172.88, -0.23 173.1 M272.27 172.02 C180.36 172.34, 88.46 171.91, 0.49 171.56 M0.66 171.6 C-0.74 108.92, -0.91 50.09, -1.14 0.96 M0.23 172.18 C-1.26 128.55, -1.72 84.41, -0.49 -0.01" stroke="#087f5b" stroke-width="4" fill="none"></path></g><g stroke-opacity="0.6" fill-opacity="0.6" transform="translate(2909.579231586933 1146.6932625023387) rotate(0 70 23)"><text x="0" y="0" font-family="Virgil, Segoe UI Emoji" font-size="36px" fill="#087f5b" text-anchor="start" style="white-space: pre;" direction="ltr" dominant-baseline="text-before-edge">graphics</text></g><g stroke-linecap="round"><g stroke-opacity="0.6" fill-opacity="0.6" transform="translate(3053.865006581349 692.4326967811462) rotate(0 81.76334365729801 -172.62624388620736)"><path d="M1.11 1.01 C38.92 -79.11, 75.61 -156.76, 162.41 -346.26" stroke="#343a40" stroke-width="1.5" fill="none" stroke-dasharray="8 9"></path></g><g stroke-opacity="0.6" fill-opacity="0.6" transform="translate(3053.865006581349 692.4326967811462) rotate(0 81.76334365729801 -172.62624388620736)"><path d="M-0.44 2.81 L0.25 -13.87 L13.23 -6.79 L2.79 -0.66" stroke="none" stroke-width="0" fill="#343a40" fill-rule="evenodd"></path><path d="M2.51 2.28 C1.94 -2.71, 2.39 -5.64, 2.06 -13.11 M0.16 -15.14 C5.88 -10.71, 10.52 -10.13, 13.77 -9.72 M13.7 -8.75 C8.9 -5.27, 7.81 -5.42, 2.59 0.99 M1.11 1.01 C1.11 1.01, 1.11 1.01, 1.11 1.01" stroke="#343a40" stroke-width="1.5" fill="none"></path></g><g stroke-opacity="0.6" fill-opacity="0.6" transform="translate(3053.865006581349 692.4326967811462) rotate(0 81.76334365729801 -172.62624388620736)"><path d="M160.86 -344.46 L161.62 -331.14 L151.59 -334.73 L164.1 -347.93" stroke="none" stroke-width="0" fill="#343a40" fill-rule="evenodd"></path><path d="M163.82 -344.99 C162.96 -343.24, 163.42 -339.43, 163.43 -330.38 M161.52 -332.41 C158.29 -332.41, 153.89 -336.02, 152.13 -337.66 M152.06 -336.69 C152.36 -337.62, 156.3 -342.02, 163.89 -346.29 M162.41 -346.26 C162.41 -346.26, 162.41 -346.26, 162.41 -346.26" stroke="#343a40" stroke-width="1.5" fill="none"></path></g></g><mask></mask><g stroke-linecap="round"><g stroke-opacity="0.6" fill-opacity="0.6" transform="translate(3075.905590698577 836.9897636833067) rotate(0 78.54994501109547 12.3390575528598)"><path d="M0.05 0.85 C46.54 8.24, 93.08 16.06, 157.05 23.83" stroke="#343a40" stroke-width="1.5" fill="none" stroke-dasharray="8 9"></path></g><g stroke-opacity="0.6" fill-opacity="0.6" transform="translate(3075.905590698577 836.9897636833067) rotate(0 78.54994501109547 12.3390575528598)"><path d="M-0.48 -0.38 L12.55 -1.76 L14.14 8.42 L-0.13 0.54" stroke="none" stroke-width="0" fill="#343a40" fill-rule="evenodd"></path><path d="M0.09 1.49 C3.71 0.4, 7.49 -0.3, 13.8 -3.25 M13.4 -2.37 C13.61 1.46, 12.36 4.72, 13.09 9.64 M13.92 9.25 C9.52 7.13, 2.81 2.4, 0.23 -0.49 M0.05 0.85 C0.05 0.85, 0.05 0.85, 0.05 0.85" stroke="#343a40" stroke-width="1.5" fill="none"></path></g><g stroke-opacity="0.6" fill-opacity="0.6" transform="translate(3075.905590698577 836.9897636833067) rotate(0 78.54994501109547 12.3390575528598)"><path d="M156.51 22.6 L140.83 29.93 L146.01 15.01 L156.86 23.52" stroke="none" stroke-width="0" fill="#343a40" fill-rule="evenodd"></path><path d="M157.09 24.47 C152.15 25.98, 147.34 27.88, 142.09 28.44 M141.68 29.32 C142.85 24.81, 142.79 19.76, 144.96 16.23 M145.79 15.84 C150.4 19.6, 152.65 20.72, 157.22 22.5 M157.05 23.83 C157.05 23.83, 157.05 23.83, 157.05 23.83" stroke="#343a40" stroke-width="1.5" fill="none"></path></g></g><mask></mask><g stroke-opacity="0.6" fill-opacity="0.6" stroke-linecap="round" transform="translate(3713.2450963707915 206.15198780856733) rotate(0 135.92404319006232 86.09573965403025)"><path d="M0.72 0.04 C55.91 1.61, 111.39 -0.36, 271.8 0.1 M-0.18 -0.7 C64.45 0.94, 128.87 1.81, 271.48 0.63 M270.67 -0.84 C272.03 45.43, 269.66 86.64, 271.03 174.08 M271.16 -0.5 C271.43 55.74, 272.8 112.29, 272.33 172.42 M271.2 173.05 C164.3 171.84, 57.22 169.14, 1.02 172.17 M271.51 171.49 C191.01 169.9, 108.2 170.77, 0.24 171.78 M1.98 173.85 C1.29 120.86, 1.13 64.77, -1.5 1.53 M0 173.11 C2.26 109.52, 1.8 46.03, 0.46 -0.73" stroke="#c92a2a" stroke-width="4" fill="none"></path></g><g stroke-opacity="0.6" fill-opacity="0.6" transform="translate(3765.7393748443533 248.59532414576188) rotate(0 88.5 45.5)"><text x="88.5" y="0" font-family="Virgil, Segoe UI Emoji" font-size="36px" fill="#c92a2a" text-anchor="middle" style="white-space: pre;" direction="ltr" dominant-baseline="text-before-edge">hardware </text><text x="88.5" y="45.5" font-family="Virgil, Segoe UI Emoji" font-size="36px" fill="#c92a2a" text-anchor="middle" style="white-space: pre;" direction="ltr" dominant-baseline="text-before-edge">setup</text></g><g stroke-linecap="round"><g stroke-opacity="0.6" fill-opacity="0.6" transform="translate(3529.873694194737 295.2420268246442) rotate(0 87.49769935159111 0.3475728056986611)"><path d="M0.83 1.39 C65.63 -0.71, 130.98 0.61, 174.17 -0.7" stroke="#343a40" stroke-width="1.5" fill="none" stroke-dasharray="8 9"></path></g><g stroke-opacity="0.6" fill-opacity="0.6" transform="translate(3529.873694194737 295.2420268246442) rotate(0 87.49769935159111 0.3475728056986611)"><path d="M-0.47 2.3 L16.03 -6.87 L14.05 6.55 L0.42 0.21" stroke="none" stroke-width="0" fill="#343a40" fill-rule="evenodd"></path><path d="M1.45 2.44 C5.49 -2.35, 9.97 -4.08, 13.18 -6.36 M13.83 -6.24 C13.83 -1.45, 14.31 1.5, 13.79 8.45 M13.21 7.34 C11.18 4.83, 6.2 3.36, -0.41 2.45 M0.83 1.39 C0.83 1.39, 0.83 1.39, 0.83 1.39" stroke="#343a40" stroke-width="1.5" fill="none"></path></g><g stroke-opacity="0.6" fill-opacity="0.6" transform="translate(3529.873694194737 295.2420268246442) rotate(0 87.49769935159111 0.3475728056986611)"><path d="M172.86 0.21 L162.34 4.06 L160.03 -7.87 L173.76 -1.88" stroke="none" stroke-width="0" fill="#343a40" fill-rule="evenodd"></path><path d="M174.79 0.35 C168.73 0.35, 163.04 3.52, 159.49 4.57 M160.14 4.7 C160.18 3.88, 160.59 1.23, 159.77 -5.97 M159.2 -7.08 C164.55 -6.19, 166.87 -4.37, 172.93 0.36 M174.17 -0.7 C174.17 -0.7, 174.17 -0.7, 174.17 -0.7" stroke="#343a40" stroke-width="1.5" fill="none"></path></g></g><mask></mask><g stroke-linecap="round"><g stroke-opacity="0.6" fill-opacity="0.6" transform="translate(3381.996411023809 379.861218559241) rotate(0 19.35503799051685 53.10472275895728)"><path d="M-0.57 1.45 C6.29 24.68, 17.88 46.93, 39.28 104.76" stroke="#343a40" stroke-width="1.5" fill="none" stroke-dasharray="8 9"></path></g><g stroke-opacity="0.6" fill-opacity="0.6" transform="translate(3381.996411023809 379.861218559241) rotate(0 19.35503799051685 53.10472275895728)"><path d="M-2.16 0.99 L10.46 11.21 L-1.27 17.12 L0.74 1.74" stroke="none" stroke-width="0" fill="#343a40" fill-rule="evenodd"></path><path d="M-0.99 2.53 C0.3 4.59, 4.72 6.06, 9.44 10.77 M9.22 12.41 C8.35 13.76, 4.97 13.64, -1.54 15.2 M-0.38 15.07 C-0.2 12.99, -0.84 7.09, 0.03 2.73 M-0.57 1.45 C-0.57 1.45, -0.57 1.45, -0.57 1.45" stroke="#343a40" stroke-width="1.5" fill="none"></path></g><g stroke-opacity="0.6" fill-opacity="0.6" transform="translate(3381.996411023809 379.861218559241) rotate(0 19.35503799051685 53.10472275895728)"><path d="M37.68 104.31 L28.69 93.72 L40.62 90.5 L40.58 105.06" stroke="none" stroke-width="0" fill="#343a40" fill-rule="evenodd"></path><path d="M38.85 105.85 C35.52 103.17, 35.19 100.06, 27.67 93.28 M27.45 94.91 C31.48 94.43, 32.98 92.43, 40.35 88.58 M41.51 88.46 C40.99 95.37, 39.74 98.47, 39.87 106.05 M39.28 104.76 C39.28 104.76, 39.28 104.76, 39.28 104.76" stroke="#343a40" stroke-width="1.5" fill="none"></path></g></g><mask></mask><g stroke-linecap="round"><g stroke-opacity="0.6" fill-opacity="0.6" transform="translate(3696.3374557592188 393.2121788622895) rotate(0 -34.03430449077155 46.16797940622777)"><path d="M0.01 -0.53 C-20.26 28.24, -42.66 55.29, -68.08 92.86" stroke="#343a40" stroke-width="1.5" fill="none" stroke-dasharray="8 9"></path></g><g stroke-opacity="0.6" fill-opacity="0.6" transform="translate(3696.3374557592188 393.2121788622895) rotate(0 -34.03430449077155 46.16797940622777)"><path d="M-1.84 -0.38 L-2.81 15.37 L-13.8 6.53 L-1.33 -1.29" stroke="none" stroke-width="0" fill="#343a40" fill-rule="evenodd"></path><path d="M0.02 -0.92 C-0.74 4.98, -3.09 9.13, -1.91 14.27 M-2.34 14.92 C-6.92 12.41, -9.24 9.89, -13.16 5.64 M-14.38 6.28 C-8.55 3.64, -4.03 2.24, 0.99 -0.3 M0.01 -0.53 C0.01 -0.53, 0.01 -0.53, 0.01 -0.53" stroke="#343a40" stroke-width="1.5" fill="none"></path></g><g stroke-opacity="0.6" fill-opacity="0.6" transform="translate(3696.3374557592188 393.2121788622895) rotate(0 -34.03430449077155 46.16797940622777)"><path d="M-69.93 93.01 L-65.25 79.3 L-55.68 85.32 L-69.42 92.09" stroke="none" stroke-width="0" fill="#343a40" fill-rule="evenodd"></path><path d="M-68.07 92.47 C-67.18 89.75, -67.86 85.24, -64.35 78.2 M-64.77 78.85 C-63.57 80.3, -60.17 81.92, -55.05 84.43 M-56.26 85.07 C-59.3 87.53, -63.61 91.05, -67.1 93.08 M-68.08 92.86 C-68.08 92.86, -68.08 92.86, -68.08 92.86" stroke="#343a40" stroke-width="1.5" fill="none"></path></g></g><mask></mask><g stroke-linecap="round"><g stroke-opacity="0.6" fill-opacity="0.6" transform="translate(3413.193680802081 681.4764984646208) rotate(0 -20.655238759788745 49.8558355413993)"><path d="M-0.51 1.39 C-14.73 29.09, -25.29 58.29, -40.8 98.32" stroke="#343a40" stroke-width="1.5" fill="none" stroke-dasharray="8 9"></path></g><g stroke-opacity="0.6" fill-opacity="0.6" transform="translate(3413.193680802081 681.4764984646208) rotate(0 -20.655238759788745 49.8558355413993)"><path d="M0.62 3.36 L0.17 18.25 L-11.19 11.42 L-0.11 0.77" stroke="none" stroke-width="0" fill="#343a40" fill-rule="evenodd"></path><path d="M-0.89 2.44 C-1.7 5.56, -0.2 9.94, 0.16 16.92 M0.43 17.45 C-4.33 13.55, -8.67 12.71, -11.89 10.24 M-11.61 11.49 C-6.79 7.33, -3.63 3.12, -1.09 2.13 M-0.51 1.39 C-0.51 1.39, -0.51 1.39, -0.51 1.39" stroke="#343a40" stroke-width="1.5" fill="none"></path></g><g stroke-opacity="0.6" fill-opacity="0.6" transform="translate(3413.193680802081 681.4764984646208) rotate(0 -20.655238759788745 49.8558355413993)"><path d="M-39.66 100.28 L-41.58 85.22 L-29.47 87.98 L-40.4 97.7" stroke="none" stroke-width="0" fill="#343a40" fill-rule="evenodd"></path><path d="M-41.18 99.36 C-42.19 93.48, -41.14 88.83, -41.59 83.89 M-41.32 84.42 C-37.5 83.8, -33.26 86.46, -30.17 86.79 M-29.89 88.05 C-32.98 91.18, -37.92 94.46, -41.38 99.06 M-40.8 98.32 C-40.8 98.32, -40.8 98.32, -40.8 98.32" stroke="#343a40" stroke-width="1.5" fill="none"></path></g></g><mask></mask><g stroke-linecap="round"><g stroke-opacity="0.6" fill-opacity="0.6" transform="translate(3384.1147789130673 986.2931695511439) rotate(0 -0.39587958747631546 67.80963176942998)"><path d="M-1.99 1.85 C-0.97 43.23, -1.26 86.47, 1.19 133.77" stroke="#343a40" stroke-width="1.5" fill="none" stroke-dasharray="8 9"></path></g><g stroke-opacity="0.6" fill-opacity="0.6" transform="translate(3384.1147789130673 986.2931695511439) rotate(0 -0.39587958747631546 67.80963176942998)"><path d="M-3 2.47 L5.42 16.97 L-7.89 17.19 L-2.35 1.58" stroke="none" stroke-width="0" fill="#343a40" fill-rule="evenodd"></path><path d="M-3.47 3.23 C-0.64 5.85, 0.82 9.9, 4.03 15.18 M3.57 14.11 C2.15 14.05, -3.17 14.65, -7.35 15.56 M-7.35 16.56 C-6.73 10.84, -3.42 7.21, -1.64 3.17 M-1.99 1.85 C-1.99 1.85, -1.99 1.85, -1.99 1.85" stroke="#343a40" stroke-width="1.5" fill="none"></path></g><g stroke-opacity="0.6" fill-opacity="0.6" transform="translate(3384.1147789130673 986.2931695511439) rotate(0 -0.39587958747631546 67.80963176942998)"><path d="M0.18 134.4 L-4.83 122.08 L7.21 121.59 L0.83 133.51" stroke="none" stroke-width="0" fill="#343a40" fill-rule="evenodd"></path><path d="M-0.3 135.16 C-1.72 129.13, -4.64 124.43, -6.22 120.28 M-6.68 119.22 C-1.08 119.18, 0.62 119.58, 7.75 119.96 M7.74 120.95 C4.73 123.89, 4.32 128.86, 1.53 135.09 M1.19 133.77 C1.19 133.77, 1.19 133.77, 1.19 133.77" stroke="#343a40" stroke-width="1.5" fill="none"></path></g></g><mask></mask><g stroke-linecap="round"><g stroke-opacity="0.6" fill-opacity="0.6" transform="translate(2983.6070271456438 1053.966717137463) rotate(0 120.67955753930562 -74.95268928724522)"><path d="M0.19 0.49 C59.26 -36.45, 119.04 -74.87, 241.17 -150.39" stroke="#343a40" stroke-width="1.5" fill="none" stroke-dasharray="8 9"></path></g><g stroke-opacity="0.6" fill-opacity="0.6" transform="translate(2983.6070271456438 1053.966717137463) rotate(0 120.67955753930562 -74.95268928724522)"><path d="M-0.58 0.91 L9.66 -14.02 L13.86 -0.85 L1.82 -0.38" stroke="none" stroke-width="0" fill="#343a40" fill-rule="evenodd"></path><path d="M0.38 0.96 C2.69 -1.88, 5.12 -6.22, 7.92 -11.22 M8.58 -12.74 C9.83 -7.67, 13.73 -6.15, 14.58 -1.96 M14.31 -0.92 C11.38 0.32, 6.57 0.86, -0.08 0.29 M0.19 0.49 C0.19 0.49, 0.19 0.49, 0.19 0.49" stroke="#343a40" stroke-width="1.5" fill="none"></path></g><g stroke-opacity="0.6" fill-opacity="0.6" transform="translate(2983.6070271456438 1053.966717137463) rotate(0 120.67955753930562 -74.95268928724522)"><path d="M240.4 -149.96 L234.31 -139.73 L225.06 -148.06 L242.8 -151.25" stroke="none" stroke-width="0" fill="#343a40" fill-rule="evenodd"></path><path d="M241.36 -149.91 C239.8 -146.57, 238.22 -144.73, 232.56 -136.93 M233.23 -138.45 C230.17 -140.06, 229.82 -145.35, 225.78 -149.17 M225.51 -148.13 C231.22 -147.81, 235.08 -148.34, 240.9 -150.59 M241.17 -150.39 C241.17 -150.39, 241.17 -150.39, 241.17 -150.39" stroke="#343a40" stroke-width="1.5" fill="none"></path></g></g><mask></mask><g stroke-linecap="round"><g stroke-opacity="0.6" fill-opacity="0.6" transform="translate(2870.6484647808315 896.9035297205444) rotate(0 8.894323621804688 82.83820340108872)"><path d="M-0.67 -1.07 C6.12 53.78, 12.35 111.15, 18.46 166.75" stroke="#343a40" stroke-width="1.5" fill="none" stroke-dasharray="8 9"></path></g><g stroke-opacity="0.6" fill-opacity="0.6" transform="translate(2870.6484647808315 896.9035297205444) rotate(0 8.894323621804688 82.83820340108872)"><path d="M-2.34 0.89 L8.87 10.86 L-5.34 14.42 L-1.13 0.5" stroke="none" stroke-width="0" fill="#343a40" fill-rule="evenodd"></path><path d="M-1.17 -1.88 C2.08 2.3, 4.58 8.3, 6.61 12.02 M7.53 12.73 C2.01 11.38, -2.43 12.12, -4.23 13.49 M-6.33 14.58 C-4.93 9.67, -1.83 7.57, -1.49 -1.22 M-0.67 -1.07 C-0.67 -1.07, -0.67 -1.07, -0.67 -1.07" stroke="#343a40" stroke-width="1.5" fill="none"></path></g><g stroke-opacity="0.6" fill-opacity="0.6" transform="translate(2870.6484647808315 896.9035297205444) rotate(0 8.894323621804688 82.83820340108872)"><path d="M16.78 168.72 L12.35 153.09 L23.33 153.81 L18 168.33" stroke="none" stroke-width="0" fill="#343a40" fill-rule="evenodd"></path><path d="M17.96 165.95 C16.11 161.78, 13.43 159.32, 10.09 154.25 M11.01 154.96 C14.76 152.73, 19.55 152.42, 24.44 152.88 M22.34 153.96 C21.35 155.81, 22.17 160.51, 17.64 166.61 M18.46 166.75 C18.46 166.75, 18.46 166.75, 18.46 166.75" stroke="#343a40" stroke-width="1.5" fill="none"></path></g></g><mask></mask><g stroke-linecap="round"><g stroke-opacity="0.6" fill-opacity="0.6" transform="translate(3045.447388994392 891.9466610432257) rotate(0 101.38738489501097 117.55749833971521)"><path d="M1.02 1.37 C63.75 74.71, 127.68 148.53, 201.76 233.74" stroke="#343a40" stroke-width="1.5" fill="none" stroke-dasharray="8 9"></path></g><g stroke-opacity="0.6" fill-opacity="0.6" transform="translate(3045.447388994392 891.9466610432257) rotate(0 101.38738489501097 117.55749833971521)"><path d="M1.71 0.21 L15.77 6.71 L4.06 15.59 L1.01 0.84" stroke="none" stroke-width="0" fill="#343a40" fill-rule="evenodd"></path><path d="M2.08 2.81 C6.44 3.41, 10.93 5.35, 13.45 6.28 M14.73 8.33 C10.65 11.79, 6.58 14.4, 4.97 14.95 M4.18 15.03 C4.42 10.82, 3.51 6.52, 0.65 1.84 M1.02 1.37 C1.02 1.37, 1.02 1.37, 1.02 1.37" stroke="#343a40" stroke-width="1.5" fill="none"></path></g><g stroke-opacity="0.6" fill-opacity="0.6" transform="translate(3045.447388994392 891.9466610432257) rotate(0 101.38738489501097 117.55749833971521)"><path d="M202.46 232.57 L189.14 226.8 L196.61 219.1 L201.75 233.21" stroke="none" stroke-width="0" fill="#343a40" fill-rule="evenodd"></path><path d="M202.82 235.18 C198.67 231.76, 194.55 229.84, 186.82 226.38 M188.1 228.43 C191.51 225.36, 195.08 221.37, 197.51 218.45 M196.73 218.54 C200.16 224.66, 202.16 230.61, 201.39 234.21 M201.76 233.74 C201.76 233.74, 201.76 233.74, 201.76 233.74" stroke="#343a40" stroke-width="1.5" fill="none"></path></g></g><mask></mask><g stroke-linecap="round"><g stroke-opacity="0.6" fill-opacity="0.6" transform="translate(2576.1548971296193 879.6563319801188) rotate(0 105.81640900635648 -21.45729652065245)"><path d="M-1.14 1.72 C58.43 -9.6, 115.73 -22.01, 212.77 -44.63" stroke="#343a40" stroke-width="1.5" fill="none" stroke-dasharray="8 9"></path></g><g stroke-opacity="0.6" fill-opacity="0.6" transform="translate(2576.1548971296193 879.6563319801188) rotate(0 105.81640900635648 -21.45729652065245)"><path d="M214.52 -44.54 L199.49 -36.78 L196.77 -47.87 L212.55 -43.49" stroke="none" stroke-width="0" fill="#343a40" fill-rule="evenodd"></path><path d="M211.79 -43.16 C210.69 -41.08, 207.26 -39.08, 202.3 -36.5 M200.57 -36.66 C198.96 -40.46, 198.01 -42.95, 198.01 -46.96 M198.19 -49.21 C201.58 -46.63, 208.34 -46.93, 214.25 -45.76 M212.77 -44.63 C212.77 -44.63, 212.77 -44.63, 212.77 -44.63" stroke="#343a40" stroke-width="1.5" fill="none"></path></g></g><mask></mask><g stroke-linecap="round"><g stroke-opacity="0.6" fill-opacity="0.6" transform="translate(2536.2348363145643 994.1747087020302) rotate(0 147.8513578766284 97.2458352674538)"><path d="M0.35 1.14 C94.6 62.33, 187.38 123.43, 295.35 193.36" stroke="#343a40" stroke-width="1.5" fill="none" stroke-dasharray="8 9"></path></g><g stroke-opacity="0.6" fill-opacity="0.6" transform="translate(2536.2348363145643 994.1747087020302) rotate(0 147.8513578766284 97.2458352674538)"><path d="M1.45 1.45 L13.76 3.61 L6.53 12.95 L1.98 -0.35" stroke="none" stroke-width="0" fill="#343a40" fill-rule="evenodd"></path><path d="M0.77 2.46 C6.19 2.11, 10.73 2.75, 15.32 2.15 M15.39 3.59 C12.4 7.23, 9.71 11.46, 7.08 14.28 M7.65 15.13 C7.01 10.88, 4.15 9.24, 0.46 2.08 M0.35 1.14 C0.35 1.14, 0.35 1.14, 0.35 1.14" stroke="#343a40" stroke-width="1.5" fill="none"></path></g><g stroke-opacity="0.6" fill-opacity="0.6" transform="translate(2536.2348363145643 994.1747087020302) rotate(0 147.8513578766284 97.2458352674538)"><path d="M296.45 193.67 L279.06 191.62 L285.66 179.71 L296.97 191.87" stroke="none" stroke-width="0" fill="#343a40" fill-rule="evenodd"></path><path d="M295.76 194.68 C291.81 192.85, 287.01 192.16, 280.62 190.15 M280.68 191.59 C283.03 187.1, 285.7 183.09, 286.21 181.04 M286.77 181.89 C289.54 183.45, 290.3 187.62, 295.45 194.3 M295.35 193.36 C295.35 193.36, 295.35 193.36, 295.35 193.36" stroke="#343a40" stroke-width="1.5" fill="none"></path></g></g><mask></mask><g stroke-linecap="round"><g stroke-opacity="0.6" fill-opacity="0.6" transform="translate(2431.450136119679 787.2733321190298) rotate(0 393.8890980167937 -277.1507849460899)"><path d="M0.24 0.2 C188.22 -129.78, 377.2 -262.21, 787.53 -554.5" stroke="#343a40" stroke-width="1.5" fill="none" stroke-dasharray="8 9"></path></g><g stroke-opacity="0.6" fill-opacity="0.6" transform="translate(2431.450136119679 787.2733321190298) rotate(0 393.8890980167937 -277.1507849460899)"><path d="M1.87 2.01 L8.51 -11.37 L16.15 -4.39 L-0.74 1.83" stroke="none" stroke-width="0" fill="#343a40" fill-rule="evenodd"></path><path d="M0.7 0.56 C1.72 -2.23, 4.24 -4.7, 6.34 -11.95 M7.75 -12.29 C8.58 -10.75, 12.89 -8.31, 15.73 -1.86 M16.09 -1.09 C10.52 -0.59, 7.46 -2.52, -0.43 0.51 M0.24 0.2 C0.24 0.2, 0.24 0.2, 0.24 0.2" stroke="#343a40" stroke-width="1.5" fill="none"></path></g><g stroke-opacity="0.6" fill-opacity="0.6" transform="translate(2431.450136119679 787.2733321190298) rotate(0 393.8890980167937 -277.1507849460899)"><path d="M789.16 -552.68 L780.89 -540.03 L773.91 -553.77 L786.55 -552.86" stroke="none" stroke-width="0" fill="#343a40" fill-rule="evenodd"></path><path d="M787.99 -554.13 C785.47 -550.82, 784.42 -547.07, 778.73 -540.61 M780.14 -540.94 C776.89 -544.88, 777.32 -547.94, 773.49 -551.24 M773.85 -550.46 C775.16 -551.06, 778.93 -554.22, 786.86 -554.18 M787.53 -554.5 C787.53 -554.5, 787.53 -554.5, 787.53 -554.5" stroke="#343a40" stroke-width="1.5" fill="none"></path></g></g><mask></mask><g stroke-linecap="round"><g stroke-opacity="0.6" fill-opacity="0.6" transform="translate(3130.6567492974054 1205.1374343778702) rotate(0 52.87527160848583 20.77221408871037)"><path d="M0.01 -1.49 C23.29 8.5, 42.3 18.2, 105.74 43.03" stroke="#343a40" stroke-width="1.5" fill="none" stroke-dasharray="8 9"></path></g><g stroke-opacity="0.6" fill-opacity="0.6" transform="translate(3130.6567492974054 1205.1374343778702) rotate(0 52.87527160848583 20.77221408871037)"><path d="M-1.14 -2.26 L15.42 -2.13 L9.94 10.64 L1.87 -3.23" stroke="none" stroke-width="0" fill="#343a40" fill-rule="evenodd"></path><path d="M0.02 -2.61 C4.16 -1.45, 5.1 -0.96, 14.53 -2.25 M15.89 -1.24 C13.16 1.83, 12.78 3.45, 9.05 10.37 M10.91 8.93 C6.35 6.9, 3.97 3.27, -0.66 -1.34 M0.01 -1.49 C0.01 -1.49, 0.01 -1.49, 0.01 -1.49" stroke="#343a40" stroke-width="1.5" fill="none"></path></g><g stroke-opacity="0.6" fill-opacity="0.6" transform="translate(3130.6567492974054 1205.1374343778702) rotate(0 52.87527160848583 20.77221408871037)"><path d="M104.58 42.26 L91.18 43.58 L95.49 32.97 L107.59 41.3" stroke="none" stroke-width="0" fill="#343a40" fill-rule="evenodd"></path><path d="M105.75 41.92 C103.72 43.53, 98.51 44.26, 90.29 43.46 M91.65 44.47 C90.97 42.61, 92.65 39.32, 94.6 32.7 M96.46 31.26 C97.9 35.82, 101.68 38.97, 105.07 43.18 M105.74 43.03 C105.74 43.03, 105.74 43.03, 105.74 43.03" stroke="#343a40" stroke-width="1.5" fill="none"></path></g></g><mask></mask><g stroke-opacity="0.6" fill-opacity="0.6" stroke-linecap="round" transform="translate(2541.8960586673934 1415.1718559027154) rotate(0 135.92404319006232 86.09573965403024)"><path d="M-1.06 1.03 L271.09 -1.46 L271.49 172.36 L0.44 172.12" stroke="none" stroke-width="0" fill="#ced4da"></path><path d="M-0.79 -0.04 C64.44 -1, 126.59 -0.06, 271.97 1.44 M0.59 -0.57 C94.64 -1.98, 190.08 -0.95, 272.51 0.26 M270.01 1.27 C270.84 56.09, 269.74 116.57, 271.88 171.02 M271.75 -0.14 C271.57 50.62, 270.87 102.2, 272.09 171.66 M273.21 170.91 C164.55 170.25, 56.76 172.9, 1.16 171.09 M272.21 171.6 C186.48 170.24, 100.95 170.88, 0.3 172.58 M1.5 170.21 C1.78 113.72, 0.02 52.77, 0.5 -0.85 M0.75 171.9 C-0.93 111.56, -2.01 49.8, -0.16 0.22" stroke="#000000" stroke-width="1" fill="none"></path></g><g stroke-opacity="0.6" fill-opacity="0.6" transform="translate(2585.4026518248065 1454.6285137966215) rotate(0 85.5 45.5)"><text x="85.5" y="0" font-family="Virgil, Segoe UI Emoji" font-size="36px" fill="#000000" text-anchor="middle" style="white-space: pre;" direction="ltr" dominant-baseline="text-before-edge">overheard</text><text x="85.5" y="45.5" font-family="Virgil, Segoe UI Emoji" font-size="36px" fill="#000000" text-anchor="middle" style="white-space: pre;" direction="ltr" dominant-baseline="text-before-edge">ideas</text></g><g stroke-linecap="round"><g stroke-opacity="0.6" fill-opacity="0.6" transform="translate(2826.416948270256 1475.4357612017693) rotate(0 200.8252799974203 -88.35569619172293)"><path d="M-0.8 -0.14 C123.75 -53.32, 250.41 -107.66, 402.45 -176.57" stroke="#495057" stroke-width="1.5" fill="none" stroke-dasharray="8 9"></path></g><g stroke-opacity="0.6" fill-opacity="0.6" transform="translate(2826.416948270256 1475.4357612017693) rotate(0 200.8252799974203 -88.35569619172293)"><path d="M-2.5 -1.29 L10.69 -10.57 L14.59 1.49 L0.09 -1" stroke="none" stroke-width="0" fill="#495057" fill-rule="evenodd"></path><path d="M-2.01 -0.36 C0.77 -3.89, 5.61 -6.59, 9.01 -12.22 M8.46 -11.11 C10.47 -9.25, 11.43 -6.93, 14.33 1.09 M12.89 0.64 C9.26 0.19, 7.07 -0.16, -1.9 1.14 M-0.8 -0.14 C-0.8 -0.14, -0.8 -0.14, -0.8 -0.14" stroke="#495057" stroke-width="1.5" fill="none"></path></g><g stroke-opacity="0.6" fill-opacity="0.6" transform="translate(2826.416948270256 1475.4357612017693) rotate(0 200.8252799974203 -88.35569619172293)"><path d="M400.76 -177.71 L394.17 -164.44 L387.85 -175.59 L403.34 -177.42" stroke="none" stroke-width="0" fill="#495057" fill-rule="evenodd"></path><path d="M401.25 -176.78 C398.06 -173.46, 396.74 -169.13, 392.49 -166.09 M391.94 -164.98 C391.52 -168.51, 390.12 -171.57, 387.6 -175.99 M386.15 -176.44 C390.59 -176.77, 396.46 -176.95, 401.36 -175.28 M402.45 -176.57 C402.45 -176.57, 402.45 -176.57, 402.45 -176.57" stroke="#495057" stroke-width="1.5" fill="none"></path></g></g><mask></mask><g stroke-opacity="0.6" fill-opacity="0.6" transform="translate(2600.5066645604857 10) rotate(0 526 57.5)"><text x="526" y="0" font-family="Virgil, Segoe UI Emoji" font-size="90.72013087866057px" fill="#000000" text-anchor="middle" style="white-space: pre;" direction="ltr" dominant-baseline="text-before-edge">exploratory experiments</text></g><g stroke-linecap="round"><g stroke-opacity="0.6" fill-opacity="0.6" transform="translate(2343.3880797746283 1003.7695589482827) rotate(0 109.4683151961728 193.9624835302543)"><path d="M0.14 0.2 C57.74 106.56, 117.8 211.83, 218.79 387.72" stroke="#495057" stroke-width="1.5" fill="none" stroke-dasharray="8 9"></path></g><g stroke-opacity="0.6" fill-opacity="0.6" transform="translate(2343.3880797746283 1003.7695589482827) rotate(0 109.4683151961728 193.9624835302543)"><path d="M1.76 -0.27 L13.11 9.64 L2.42 16.63 L-1.85 0.69" stroke="none" stroke-width="0" fill="#495057" fill-rule="evenodd"></path><path d="M0.36 0.51 C2.22 3.28, 6.01 5.31, 11.1 9.01 M12.94 8.21 C8.93 9.56, 5.66 13.54, 0.37 13.99 M0.39 16.04 C1.02 9.11, -0.17 7.39, -1.17 -0.34 M0.14 0.2 C0.14 0.2, 0.14 0.2, 0.14 0.2" stroke="#495057" stroke-width="1.5" fill="none"></path></g><g stroke-opacity="0.6" fill-opacity="0.6" transform="translate(2343.3880797746283 1003.7695589482827) rotate(0 109.4683151961728 193.9624835302543)"><path d="M220.41 387.25 L207.33 379.75 L218.71 374.25 L216.8 388.21" stroke="none" stroke-width="0" fill="#495057" fill-rule="evenodd"></path><path d="M219.01 388.03 C214.34 385.92, 211.49 383.21, 205.32 379.12 M207.17 378.32 C209.7 376.07, 212.89 376.4, 216.66 371.61 M216.68 373.66 C217.9 375.87, 217.43 383.27, 217.48 387.18 M218.79 387.72 C218.79 387.72, 218.79 387.72, 218.79 387.72" stroke="#495057" stroke-width="1.5" fill="none"></path></g></g><mask></mask><g stroke-linecap="round"><g stroke-opacity="0.6" fill-opacity="0.6" transform="translate(3290.5222374910163 773.7327656008041) rotate(0 -1.9521836555609298 -191.88905364659476)"><path d="M-0.73 0.47 C-1.38 -131.98, -3.95 -266.85, -2.95 -384.25" stroke="#343a40" stroke-width="1.5" fill="none" stroke-dasharray="8 9"></path></g><g stroke-opacity="0.6" fill-opacity="0.6" transform="translate(3290.5222374910163 773.7327656008041) rotate(0 -1.9521836555609298 -191.88905364659476)"><path d="M-1.92 0.98 L-5.73 -14.52 L4.56 -14.02 L0.47 1.79" stroke="none" stroke-width="0" fill="#343a40" fill-rule="evenodd"></path><path d="M-1.64 1.07 C-2.09 -2.97, -6.67 -10.1, -8.31 -12.82 M-7.8 -13.66 C-4.22 -14.15, -0.37 -12.02, 6.08 -12.94 M4.47 -12.08 C2.2 -7.33, 1.76 -2.22, -1.64 -0.07 M-0.73 0.47 C-0.73 0.47, -0.73 0.47, -0.73 0.47" stroke="#343a40" stroke-width="1.5" fill="none"></path></g><g stroke-opacity="0.6" fill-opacity="0.6" transform="translate(3290.5222374910163 773.7327656008041) rotate(0 -1.9521836555609298 -191.88905364659476)"><path d="M-4.15 -383.74 L4.82 -372.1 L-10.24 -371.5 L-1.76 -382.93" stroke="none" stroke-width="0" fill="#343a40" fill-rule="evenodd"></path><path d="M-3.87 -383.65 C0.27 -378.42, 0.11 -376.17, 2.24 -370.4 M2.76 -371.24 C-1.64 -371.77, -5.78 -369.6, -8.72 -370.42 M-10.34 -369.56 C-7.85 -375.44, -3.4 -380.9, -3.86 -384.79 M-2.95 -384.25 C-2.95 -384.25, -2.95 -384.25, -2.95 -384.25" stroke="#343a40" stroke-width="1.5" fill="none"></path></g></g><mask></mask><g stroke-linecap="round"><g transform="translate(3385.9060415110207 1342.1905622409995) rotate(0 -624.8025502466821 -343.03182072449806)"><path d="M0 0 C-24.44 57.22, 11.11 285, -146.67 343.33 C-304.44 401.67, -765.56 426.11, -946.67 350 C-1127.78 273.89, -1205 107.22, -1233.33 -113.33 C-1261.67 -333.89, -1269.29 -811.59, -1116.67 -973.33 C-964.05 -1135.08, -450.79 -1065.4, -317.62 -1083.81" stroke="#c92a2a" stroke-width="2.5" fill="none" stroke-dasharray="8 10"></path></g><g transform="translate(3385.9060415110207 1342.1905622409995) rotate(0 -624.8025502466821 -343.03182072449806)"><path d="M-317.62 -1083.81 L-331.17 -1077.38 L-331.26 -1090.05 L-317.62 -1083.81" stroke="none" stroke-width="0" fill="#c92a2a" fill-rule="evenodd"></path><path d="M-317.62 -1083.81 C-321.27 -1082.07, -324.93 -1080.34, -331.17 -1077.38 M-331.17 -1077.38 C-331.19 -1080.8, -331.22 -1084.23, -331.26 -1090.05 M-331.26 -1090.05 C-327.47 -1088.32, -323.67 -1086.58, -317.62 -1083.81 M-317.62 -1083.81 C-317.62 -1083.81, -317.62 -1083.81, -317.62 -1083.81" stroke="#c92a2a" stroke-width="2.5" fill="none"></path></g></g><mask></mask></svg>